%TF.GenerationSoftware,KiCad,Pcbnew,9.0.5*%
%TF.CreationDate,2025-10-23T08:30:37+01:00*%
%TF.ProjectId,Gotek,476f7465-6b2e-46b6-9963-61645f706362,rev?*%
%TF.SameCoordinates,Original*%
%TF.FileFunction,Soldermask,Top*%
%TF.FilePolarity,Negative*%
%FSLAX46Y46*%
G04 Gerber Fmt 4.6, Leading zero omitted, Abs format (unit mm)*
G04 Created by KiCad (PCBNEW 9.0.5) date 2025-10-23 08:30:37*
%MOMM*%
%LPD*%
G01*
G04 APERTURE LIST*
G04 Aperture macros list*
%AMRoundRect*
0 Rectangle with rounded corners*
0 $1 Rounding radius*
0 $2 $3 $4 $5 $6 $7 $8 $9 X,Y pos of 4 corners*
0 Add a 4 corners polygon primitive as box body*
4,1,4,$2,$3,$4,$5,$6,$7,$8,$9,$2,$3,0*
0 Add four circle primitives for the rounded corners*
1,1,$1+$1,$2,$3*
1,1,$1+$1,$4,$5*
1,1,$1+$1,$6,$7*
1,1,$1+$1,$8,$9*
0 Add four rect primitives between the rounded corners*
20,1,$1+$1,$2,$3,$4,$5,0*
20,1,$1+$1,$4,$5,$6,$7,0*
20,1,$1+$1,$6,$7,$8,$9,0*
20,1,$1+$1,$8,$9,$2,$3,0*%
G04 Aperture macros list end*
%ADD10C,5.000000*%
%ADD11R,1.700000X1.700000*%
%ADD12O,1.700000X1.700000*%
%ADD13RoundRect,0.250000X-0.350000X-0.450000X0.350000X-0.450000X0.350000X0.450000X-0.350000X0.450000X0*%
%ADD14RoundRect,0.250000X-0.475000X0.337500X-0.475000X-0.337500X0.475000X-0.337500X0.475000X0.337500X0*%
%ADD15R,1.600000X1.600000*%
%ADD16C,1.600000*%
%ADD17C,1.575000*%
%ADD18C,2.025000*%
%ADD19R,0.900000X0.600000*%
%ADD20RoundRect,0.250000X0.450000X-0.325000X0.450000X0.325000X-0.450000X0.325000X-0.450000X-0.325000X0*%
%ADD21RoundRect,0.250000X-0.337500X-0.475000X0.337500X-0.475000X0.337500X0.475000X-0.337500X0.475000X0*%
%ADD22R,1.650000X0.700000*%
%ADD23R,1.500000X1.600000*%
%ADD24C,3.000000*%
%ADD25R,0.820000X0.420000*%
%ADD26R,1.475000X0.300000*%
%ADD27R,0.300000X1.475000*%
%ADD28R,1.000000X0.400000*%
%ADD29R,1.300000X2.000000*%
%ADD30RoundRect,0.250000X0.337500X0.475000X-0.337500X0.475000X-0.337500X-0.475000X0.337500X-0.475000X0*%
%ADD31RoundRect,0.250000X-0.450000X0.350000X-0.450000X-0.350000X0.450000X-0.350000X0.450000X0.350000X0*%
%ADD32C,1.500000*%
%ADD33R,0.950000X1.300000*%
%ADD34R,3.250000X1.300000*%
%ADD35RoundRect,0.250000X0.350000X0.450000X-0.350000X0.450000X-0.350000X-0.450000X0.350000X-0.450000X0*%
%ADD36RoundRect,0.150000X-0.825000X-0.150000X0.825000X-0.150000X0.825000X0.150000X-0.825000X0.150000X0*%
G04 APERTURE END LIST*
D10*
%TO.C,H1*%
X118491000Y-60642500D03*
%TD*%
%TO.C,H2*%
X139573000Y-60642500D03*
%TD*%
%TO.C,H3*%
X118491000Y-110363000D03*
%TD*%
%TO.C,H4*%
X139573000Y-110363000D03*
%TD*%
%TO.C,H5*%
X189357000Y-60642500D03*
%TD*%
D11*
%TO.C,J10*%
X105038525Y-69713475D03*
D12*
X105038525Y-67173475D03*
X105038525Y-64633475D03*
X105038525Y-62093475D03*
%TD*%
D11*
%TO.C,J7*%
X147653375Y-95653700D03*
D12*
X147653375Y-98193700D03*
X147653375Y-100733700D03*
X147653375Y-103273700D03*
%TD*%
D13*
%TO.C,PU5*%
X119195975Y-91357450D03*
X121195975Y-91357450D03*
%TD*%
D14*
%TO.C,C4*%
X147659725Y-73025725D03*
X147659725Y-75100725D03*
%TD*%
D15*
%TO.C,C1*%
X187333138Y-91535250D03*
D16*
X184833138Y-91535250D03*
%TD*%
D17*
%TO.C,S4*%
X202485625Y-70133600D03*
X202485625Y-65633600D03*
D18*
X199985625Y-71383600D03*
X199985625Y-64383600D03*
%TD*%
D19*
%TO.C,Q5*%
X134226125Y-99390875D03*
X134226125Y-97490875D03*
X131426125Y-98440875D03*
%TD*%
D13*
%TO.C,RN4*%
X137337925Y-103641525D03*
X139337925Y-103641525D03*
%TD*%
D19*
%TO.C,Q6*%
X134226125Y-95761850D03*
X134226125Y-93861850D03*
X131426125Y-94811850D03*
%TD*%
D20*
%TO.C,L5*%
X190595250Y-74173550D03*
X190595250Y-72123550D03*
%TD*%
D21*
%TO.C,C20*%
X141561275Y-78879700D03*
X143636275Y-78879700D03*
%TD*%
D15*
%TO.C,C17*%
X139304913Y-68164075D03*
D16*
X136804913Y-68164075D03*
%TD*%
D11*
%TO.C,J1*%
X148000000Y-57500000D03*
D12*
X150540000Y-57500000D03*
X148000000Y-60040000D03*
X150540000Y-60040000D03*
%TD*%
D13*
%TO.C,PU12*%
X119056275Y-103397050D03*
X121056275Y-103397050D03*
%TD*%
D21*
%TO.C,C6*%
X159165925Y-64573150D03*
X161240925Y-64573150D03*
%TD*%
D17*
%TO.C,S3*%
X202345925Y-62915800D03*
X202345925Y-58415800D03*
D18*
X199845925Y-64165800D03*
X199845925Y-57165800D03*
%TD*%
D13*
%TO.C,PU13*%
X124498225Y-103431975D03*
X126498225Y-103431975D03*
%TD*%
%TO.C,PU2*%
X119164225Y-78432025D03*
X121164225Y-78432025D03*
%TD*%
%TO.C,PU11*%
X119126125Y-100466525D03*
X121126125Y-100466525D03*
%TD*%
D19*
%TO.C,Q3*%
X129523775Y-86497200D03*
X129523775Y-84597200D03*
X126723775Y-85547200D03*
%TD*%
D11*
%TO.C,JD1*%
X99568000Y-64465200D03*
D12*
X99568000Y-61925200D03*
%TD*%
D13*
%TO.C,PU9*%
X119126125Y-97326450D03*
X121126125Y-97326450D03*
%TD*%
D19*
%TO.C,Q4*%
X134261050Y-103159600D03*
X134261050Y-101259600D03*
X131461050Y-102209600D03*
%TD*%
D13*
%TO.C,RN2*%
X133016750Y-81600675D03*
X135016750Y-81600675D03*
%TD*%
%TO.C,PU8*%
X124637925Y-97221675D03*
X126637925Y-97221675D03*
%TD*%
D21*
%TO.C,C18*%
X137027375Y-73539350D03*
X139102375Y-73539350D03*
%TD*%
D11*
%TO.C,MO1*%
X99456875Y-72002650D03*
D12*
X99456875Y-69462650D03*
X99456875Y-66922650D03*
%TD*%
D14*
%TO.C,C5*%
X150764875Y-72851100D03*
X150764875Y-74926100D03*
%TD*%
D22*
%TO.C,U8*%
X171469500Y-88026875D03*
X171469500Y-89296875D03*
X171469500Y-90566875D03*
X171469500Y-91836875D03*
X178669500Y-91836875D03*
X178669500Y-90566875D03*
X178669500Y-89296875D03*
X178669500Y-88026875D03*
%TD*%
D11*
%TO.C,J3*%
X107664250Y-59467750D03*
D12*
X107664250Y-62007750D03*
X107664250Y-64547750D03*
%TD*%
D11*
%TO.C,J2*%
X182857775Y-67846575D03*
D12*
X180317775Y-67846575D03*
X182857775Y-65306575D03*
X180317775Y-65306575D03*
%TD*%
D13*
%TO.C,RN1*%
X132934075Y-78705075D03*
X134934075Y-78705075D03*
%TD*%
D23*
%TO.C,P3*%
X196706525Y-88456650D03*
D16*
X196706525Y-85956650D03*
X196706525Y-83956650D03*
X196706525Y-81456650D03*
D24*
X199416525Y-91526650D03*
X199416525Y-78386650D03*
%TD*%
D19*
%TO.C,Q2*%
X129552525Y-83042800D03*
X129552525Y-81142800D03*
X126752525Y-82092800D03*
%TD*%
D25*
%TO.C,DID1*%
X139313300Y-100812600D03*
X137013300Y-100812600D03*
%TD*%
D13*
%TO.C,RN3*%
X133016750Y-84461350D03*
X135016750Y-84461350D03*
%TD*%
%TO.C,RN5*%
X137303000Y-97742375D03*
X139303000Y-97742375D03*
%TD*%
D14*
%TO.C,C3*%
X150729950Y-67688550D03*
X150729950Y-69763550D03*
%TD*%
D26*
%TO.C,U3*%
X160606600Y-74250225D03*
X160606600Y-74750225D03*
X160606600Y-75250225D03*
X160606600Y-75750225D03*
X160606600Y-76250225D03*
X160606600Y-76750225D03*
X160606600Y-77250225D03*
X160606600Y-77750225D03*
X160606600Y-78250225D03*
X160606600Y-78750225D03*
X160606600Y-79250225D03*
X160606600Y-79750225D03*
X160606600Y-80250225D03*
X160606600Y-80750225D03*
X160606600Y-81250225D03*
X160606600Y-81750225D03*
D27*
X162594600Y-83738225D03*
X163094600Y-83738225D03*
X163594600Y-83738225D03*
X164094600Y-83738225D03*
X164594600Y-83738225D03*
X165094600Y-83738225D03*
X165594600Y-83738225D03*
X166094600Y-83738225D03*
X166594600Y-83738225D03*
X167094600Y-83738225D03*
X167594600Y-83738225D03*
X168094600Y-83738225D03*
X168594600Y-83738225D03*
X169094600Y-83738225D03*
X169594600Y-83738225D03*
X170094600Y-83738225D03*
D26*
X172082600Y-81750225D03*
X172082600Y-81250225D03*
X172082600Y-80750225D03*
X172082600Y-80250225D03*
X172082600Y-79750225D03*
X172082600Y-79250225D03*
X172082600Y-78750225D03*
X172082600Y-78250225D03*
X172082600Y-77750225D03*
X172082600Y-77250225D03*
X172082600Y-76750225D03*
X172082600Y-76250225D03*
X172082600Y-75750225D03*
X172082600Y-75250225D03*
X172082600Y-74750225D03*
X172082600Y-74250225D03*
D27*
X170094600Y-72262225D03*
X169594600Y-72262225D03*
X169094600Y-72262225D03*
X168594600Y-72262225D03*
X168094600Y-72262225D03*
X167594600Y-72262225D03*
X167094600Y-72262225D03*
X166594600Y-72262225D03*
X166094600Y-72262225D03*
X165594600Y-72262225D03*
X165094600Y-72262225D03*
X164594600Y-72262225D03*
X164094600Y-72262225D03*
X163594600Y-72262225D03*
X163094600Y-72262225D03*
X162594600Y-72262225D03*
%TD*%
D13*
%TO.C,PU1*%
X119129300Y-75638025D03*
X121129300Y-75638025D03*
%TD*%
D11*
%TO.C,JE1*%
X99456875Y-59356625D03*
D12*
X99456875Y-56816625D03*
%TD*%
D28*
%TO.C,P1*%
X101666675Y-80618051D03*
X101666675Y-81618051D03*
X101666675Y-82618052D03*
X101666675Y-83618050D03*
X101666675Y-84618050D03*
X101666675Y-85618051D03*
X101666675Y-86618051D03*
X101666675Y-87618049D03*
X101666675Y-88618050D03*
X101666675Y-89618050D03*
X101666675Y-90618051D03*
X101666675Y-91618051D03*
X101666675Y-92618049D03*
X101666675Y-93618050D03*
X101666675Y-94618051D03*
X101666675Y-95618051D03*
X101666675Y-96618052D03*
X101666675Y-97618050D03*
X101666675Y-98618050D03*
X101666675Y-99618051D03*
X101666675Y-100618051D03*
X101666675Y-101618052D03*
X101666675Y-102618050D03*
X101666675Y-103618050D03*
X101666675Y-104618051D03*
X101666675Y-105618051D03*
D29*
X98966676Y-77818076D03*
X98966676Y-108418026D03*
%TD*%
D14*
%TO.C,C23*%
X126253875Y-58846900D03*
X126253875Y-60921900D03*
%TD*%
D13*
%TO.C,PU6*%
X124555250Y-94322900D03*
X126555250Y-94322900D03*
%TD*%
%TO.C,RN6*%
X137233150Y-94916625D03*
X139233150Y-94916625D03*
%TD*%
%TO.C,R2*%
X187375925Y-86077425D03*
X189375925Y-86077425D03*
%TD*%
D30*
%TO.C,C8*%
X162797400Y-88576150D03*
X160722400Y-88576150D03*
%TD*%
D31*
%TO.C,R10*%
X147589875Y-67621275D03*
X147589875Y-69621275D03*
%TD*%
D32*
%TO.C,Y1*%
X153800175Y-73233450D03*
X153800175Y-68333450D03*
%TD*%
D11*
%TO.C,J4*%
X107607100Y-67016075D03*
D12*
X107607100Y-69556075D03*
%TD*%
D33*
%TO.C,U4*%
X129434400Y-65554600D03*
X131724400Y-65554600D03*
X134014400Y-65554600D03*
D34*
X131724400Y-58854600D03*
%TD*%
D13*
%TO.C,PU10*%
X124603000Y-100396675D03*
X126603000Y-100396675D03*
%TD*%
D35*
%TO.C,RN13*%
X121059450Y-73091675D03*
X119059450Y-73091675D03*
%TD*%
D19*
%TO.C,Q1*%
X129517600Y-79623325D03*
X129517600Y-77723325D03*
X126717600Y-78673325D03*
%TD*%
D20*
%TO.C,L4*%
X193328925Y-74084925D03*
X193328925Y-72034925D03*
%TD*%
D13*
%TO.C,PU14*%
X119269000Y-83734275D03*
X121269000Y-83734275D03*
%TD*%
D36*
%TO.C,U1*%
X139984075Y-83127850D03*
X139984075Y-84397850D03*
X139984075Y-85667850D03*
X139984075Y-86937850D03*
X139984075Y-88207850D03*
X139984075Y-89477850D03*
X139984075Y-90747850D03*
X144934075Y-90747850D03*
X144934075Y-89477850D03*
X144934075Y-88207850D03*
X144934075Y-86937850D03*
X144934075Y-85667850D03*
X144934075Y-84397850D03*
X144934075Y-83127850D03*
%TD*%
D13*
%TO.C,R1*%
X187417200Y-83331050D03*
X189417200Y-83331050D03*
%TD*%
D31*
%TO.C,R21*%
X187915550Y-72059925D03*
X187915550Y-74059925D03*
%TD*%
D14*
%TO.C,C9*%
X154774900Y-79794825D03*
X154774900Y-81869825D03*
%TD*%
D35*
%TO.C,PU4*%
X126637925Y-91287600D03*
X124637925Y-91287600D03*
%TD*%
D14*
%TO.C,C7*%
X181105175Y-71628725D03*
X181105175Y-73703725D03*
%TD*%
D15*
%TO.C,C19*%
X126017025Y-67227450D03*
D16*
X123517025Y-67227450D03*
%TD*%
D13*
%TO.C,PU3*%
X119269000Y-80978375D03*
X121269000Y-80978375D03*
%TD*%
%TO.C,PU7*%
X119091200Y-94322900D03*
X121091200Y-94322900D03*
%TD*%
D21*
%TO.C,C16*%
X175146425Y-85185250D03*
X177221425Y-85185250D03*
%TD*%
M02*
