M48
METRIC
T1C0.300
T2C0.800
T3C0.950
T4C1.000
T5C1.050
T6C1.350
T7C2.300
T8C3.200
%
G90
G05
T1
X101.33Y-65.761
X105.226Y-82.461
X105.505Y-86.928
X106.118Y-89.551
X108.052Y-83.461
X109.299Y-90.389
X109.468Y-97.326
X109.658Y-74.178
X110.696Y-101.778
X110.807Y-88.618
X110.817Y-65.592
X110.874Y-63.751
X111.211Y-60.122
X111.281Y-68.602
X112.817Y-94.631
X113.935Y-96.326
X114.827Y-99.377
X115.44Y-93.323
X115.554Y-64.303
X116.056Y-81.232
X116.056Y-100.467
X116.221Y-78.61
X116.615Y-75.638
X116.98Y-72.869
X117.059Y-91.618
X118.561Y-86.757
X121.561Y-105.724
X121.752Y-68.412
X124.841Y-81.931
X124.898Y-84.665
X125.152Y-79.845
X125.74Y-75.34
X127.892Y-88.122
X130.273Y-98.263
X130.47Y-90.322
X132.102Y-91.424
X139.001Y-79.985
X142.135Y-83.217
X142.484Y-87.366
X142.58Y-66.192
X142.805Y-72.072
X144.65Y-81.531
X145.034Y-74.016
X149.368Y-83.039
X149.565Y-81.001
X150.06Y-78.375
X151.492Y-88.856
X151.667Y-86.868
X154.6Y-88.821
X155.924Y-84.458
X157.112Y-81.563
X157.842Y-58.776
X158.264Y-72.581
X161.036Y-85.976
X162.579Y-68.097
X162.744Y-78.6
X163.122Y-64.065
X163.271Y-79.404
X164.087Y-67.199
X164.922Y-75.492
X165.027Y-67.291
X165.846Y-66.964
X166.097Y-81.08
X166.202Y-63.024
X166.341Y-69.345
X166.849Y-87.189
X167.003Y-62.977
X167.541Y-68.958
X167.583Y-90.049
X167.942Y-77.333
X168.329Y-74.114
X168.777Y-76.038
X168.815Y-63.684
X168.977Y-57.683
X169.532Y-78.946
X171.118Y-85.603
X171.5Y-63.967
X173.161Y-67.193
X173.171Y-85.293
X173.171Y-88.128
X173.358Y-65.837
X173.771Y-64.602
X174.755Y-89.662
X175.057Y-82.477
X176.07Y-77.264
X176.581Y-58.661
X177.638Y-78.057
X179.403Y-76.003
X181.734Y-89.662
X182.308Y-85.477
X184.036Y-85.414
X184.896Y-72.647
X188.281Y-77.302
X189.344Y-76.136
X189.906Y-69.348
T2
X123.517Y-67.227
X126.017Y-67.227
X136.805Y-68.164
X139.305Y-68.164
X153.8Y-68.333
X153.8Y-73.233
X184.833Y-91.535
X187.333Y-91.535
T3
X196.707Y-81.457
X196.707Y-83.957
X196.707Y-85.957
X196.707Y-88.457
T4
X99.457Y-56.817
X99.457Y-59.357
X99.457Y-66.923
X99.457Y-69.463
X99.457Y-72.003
X99.568Y-61.925
X99.568Y-64.465
X105.039Y-62.093
X105.039Y-64.633
X105.039Y-67.173
X105.039Y-69.713
X107.607Y-67.016
X107.607Y-69.556
X107.664Y-59.468
X107.664Y-62.008
X107.664Y-64.548
X147.653Y-95.654
X147.653Y-98.194
X147.653Y-100.734
X147.653Y-103.274
X148.0Y-57.5
X148.0Y-60.04
X150.54Y-57.5
X150.54Y-60.04
X180.318Y-65.307
X180.318Y-67.847
X182.858Y-65.307
X182.858Y-67.847
T5
X202.346Y-58.416
X202.346Y-62.916
X202.486Y-65.634
X202.486Y-70.134
T6
X199.846Y-57.166
X199.846Y-64.166
X199.986Y-64.384
X199.986Y-71.384
T7
X199.417Y-78.387
X199.417Y-91.527
T8
X118.491Y-60.642
X118.491Y-110.363
X139.573Y-60.642
X139.573Y-110.363
X189.357Y-60.642
M30
