%TF.GenerationSoftware,KiCad,Pcbnew,9.0.5*%
%TF.CreationDate,2025-10-23T08:30:37+01:00*%
%TF.ProjectId,Gotek,476f7465-6b2e-46b6-9963-61645f706362,rev?*%
%TF.SameCoordinates,Original*%
%TF.FileFunction,Legend,Top*%
%TF.FilePolarity,Positive*%
%FSLAX46Y46*%
G04 Gerber Fmt 4.6, Leading zero omitted, Abs format (unit mm)*
G04 Created by KiCad (PCBNEW 9.0.5) date 2025-10-23 08:30:37*
%MOMM*%
%LPD*%
G01*
G04 APERTURE LIST*
%ADD10C,0.150000*%
%ADD11C,0.254000*%
%ADD12C,0.120000*%
%ADD13C,0.100000*%
%ADD14C,0.200000*%
%ADD15C,0.250000*%
%ADD16C,0.152400*%
G04 APERTURE END LIST*
D10*
X207127588Y-67982936D02*
X207079969Y-68078174D01*
X207079969Y-68078174D02*
X207079969Y-68221031D01*
X207079969Y-68221031D02*
X207127588Y-68363888D01*
X207127588Y-68363888D02*
X207222826Y-68459126D01*
X207222826Y-68459126D02*
X207318064Y-68506745D01*
X207318064Y-68506745D02*
X207508540Y-68554364D01*
X207508540Y-68554364D02*
X207651397Y-68554364D01*
X207651397Y-68554364D02*
X207841873Y-68506745D01*
X207841873Y-68506745D02*
X207937111Y-68459126D01*
X207937111Y-68459126D02*
X208032350Y-68363888D01*
X208032350Y-68363888D02*
X208079969Y-68221031D01*
X208079969Y-68221031D02*
X208079969Y-68125793D01*
X208079969Y-68125793D02*
X208032350Y-67982936D01*
X208032350Y-67982936D02*
X207984730Y-67935317D01*
X207984730Y-67935317D02*
X207651397Y-67935317D01*
X207651397Y-67935317D02*
X207651397Y-68125793D01*
X208079969Y-66935317D02*
X207603778Y-67268650D01*
X208079969Y-67506745D02*
X207079969Y-67506745D01*
X207079969Y-67506745D02*
X207079969Y-67125793D01*
X207079969Y-67125793D02*
X207127588Y-67030555D01*
X207127588Y-67030555D02*
X207175207Y-66982936D01*
X207175207Y-66982936D02*
X207270445Y-66935317D01*
X207270445Y-66935317D02*
X207413302Y-66935317D01*
X207413302Y-66935317D02*
X207508540Y-66982936D01*
X207508540Y-66982936D02*
X207556159Y-67030555D01*
X207556159Y-67030555D02*
X207603778Y-67125793D01*
X207603778Y-67125793D02*
X207603778Y-67506745D01*
X207556159Y-66506745D02*
X207556159Y-66173412D01*
X208079969Y-66030555D02*
X208079969Y-66506745D01*
X208079969Y-66506745D02*
X207079969Y-66506745D01*
X207079969Y-66506745D02*
X207079969Y-66030555D01*
X207556159Y-65601983D02*
X207556159Y-65268650D01*
X208079969Y-65125793D02*
X208079969Y-65601983D01*
X208079969Y-65601983D02*
X207079969Y-65601983D01*
X207079969Y-65601983D02*
X207079969Y-65125793D01*
X208079969Y-64697221D02*
X207079969Y-64697221D01*
X207079969Y-64697221D02*
X208079969Y-64125793D01*
X208079969Y-64125793D02*
X207079969Y-64125793D01*
X162480788Y-56775244D02*
X162385550Y-56727625D01*
X162385550Y-56727625D02*
X162242693Y-56727625D01*
X162242693Y-56727625D02*
X162099836Y-56775244D01*
X162099836Y-56775244D02*
X162004598Y-56870482D01*
X162004598Y-56870482D02*
X161956979Y-56965720D01*
X161956979Y-56965720D02*
X161909360Y-57156196D01*
X161909360Y-57156196D02*
X161909360Y-57299053D01*
X161909360Y-57299053D02*
X161956979Y-57489529D01*
X161956979Y-57489529D02*
X162004598Y-57584767D01*
X162004598Y-57584767D02*
X162099836Y-57680006D01*
X162099836Y-57680006D02*
X162242693Y-57727625D01*
X162242693Y-57727625D02*
X162337931Y-57727625D01*
X162337931Y-57727625D02*
X162480788Y-57680006D01*
X162480788Y-57680006D02*
X162528407Y-57632386D01*
X162528407Y-57632386D02*
X162528407Y-57299053D01*
X162528407Y-57299053D02*
X162337931Y-57299053D01*
X162956979Y-57727625D02*
X162956979Y-56727625D01*
X162956979Y-56727625D02*
X163528407Y-57727625D01*
X163528407Y-57727625D02*
X163528407Y-56727625D01*
X164004598Y-57727625D02*
X164004598Y-56727625D01*
X164004598Y-56727625D02*
X164242693Y-56727625D01*
X164242693Y-56727625D02*
X164385550Y-56775244D01*
X164385550Y-56775244D02*
X164480788Y-56870482D01*
X164480788Y-56870482D02*
X164528407Y-56965720D01*
X164528407Y-56965720D02*
X164576026Y-57156196D01*
X164576026Y-57156196D02*
X164576026Y-57299053D01*
X164576026Y-57299053D02*
X164528407Y-57489529D01*
X164528407Y-57489529D02*
X164480788Y-57584767D01*
X164480788Y-57584767D02*
X164385550Y-57680006D01*
X164385550Y-57680006D02*
X164242693Y-57727625D01*
X164242693Y-57727625D02*
X164004598Y-57727625D01*
X167099836Y-57727625D02*
X166766503Y-57251434D01*
X166528408Y-57727625D02*
X166528408Y-56727625D01*
X166528408Y-56727625D02*
X166909360Y-56727625D01*
X166909360Y-56727625D02*
X167004598Y-56775244D01*
X167004598Y-56775244D02*
X167052217Y-56822863D01*
X167052217Y-56822863D02*
X167099836Y-56918101D01*
X167099836Y-56918101D02*
X167099836Y-57060958D01*
X167099836Y-57060958D02*
X167052217Y-57156196D01*
X167052217Y-57156196D02*
X167004598Y-57203815D01*
X167004598Y-57203815D02*
X166909360Y-57251434D01*
X166909360Y-57251434D02*
X166528408Y-57251434D01*
X167480789Y-57441910D02*
X167956979Y-57441910D01*
X167385551Y-57727625D02*
X167718884Y-56727625D01*
X167718884Y-56727625D02*
X168052217Y-57727625D01*
X161956979Y-58813759D02*
X162290312Y-58813759D01*
X162433169Y-59337569D02*
X161956979Y-59337569D01*
X161956979Y-59337569D02*
X161956979Y-58337569D01*
X161956979Y-58337569D02*
X162433169Y-58337569D01*
X162861741Y-59337569D02*
X162861741Y-58337569D01*
X162861741Y-58337569D02*
X163433169Y-59337569D01*
X163433169Y-59337569D02*
X163433169Y-58337569D01*
X164480788Y-59242330D02*
X164433169Y-59289950D01*
X164433169Y-59289950D02*
X164290312Y-59337569D01*
X164290312Y-59337569D02*
X164195074Y-59337569D01*
X164195074Y-59337569D02*
X164052217Y-59289950D01*
X164052217Y-59289950D02*
X163956979Y-59194711D01*
X163956979Y-59194711D02*
X163909360Y-59099473D01*
X163909360Y-59099473D02*
X163861741Y-58908997D01*
X163861741Y-58908997D02*
X163861741Y-58766140D01*
X163861741Y-58766140D02*
X163909360Y-58575664D01*
X163909360Y-58575664D02*
X163956979Y-58480426D01*
X163956979Y-58480426D02*
X164052217Y-58385188D01*
X164052217Y-58385188D02*
X164195074Y-58337569D01*
X164195074Y-58337569D02*
X164290312Y-58337569D01*
X164290312Y-58337569D02*
X164433169Y-58385188D01*
X164433169Y-58385188D02*
X164480788Y-58432807D01*
X165433169Y-59337569D02*
X164861741Y-59337569D01*
X165147455Y-59337569D02*
X165147455Y-58337569D01*
X165147455Y-58337569D02*
X165052217Y-58480426D01*
X165052217Y-58480426D02*
X164956979Y-58575664D01*
X164956979Y-58575664D02*
X164861741Y-58623283D01*
X166623646Y-58813759D02*
X166956979Y-58813759D01*
X167099836Y-59337569D02*
X166623646Y-59337569D01*
X166623646Y-59337569D02*
X166623646Y-58337569D01*
X166623646Y-58337569D02*
X167099836Y-58337569D01*
X167528408Y-59337569D02*
X167528408Y-58337569D01*
X167528408Y-58337569D02*
X168099836Y-59337569D01*
X168099836Y-59337569D02*
X168099836Y-58337569D01*
X169147455Y-59242330D02*
X169099836Y-59289950D01*
X169099836Y-59289950D02*
X168956979Y-59337569D01*
X168956979Y-59337569D02*
X168861741Y-59337569D01*
X168861741Y-59337569D02*
X168718884Y-59289950D01*
X168718884Y-59289950D02*
X168623646Y-59194711D01*
X168623646Y-59194711D02*
X168576027Y-59099473D01*
X168576027Y-59099473D02*
X168528408Y-58908997D01*
X168528408Y-58908997D02*
X168528408Y-58766140D01*
X168528408Y-58766140D02*
X168576027Y-58575664D01*
X168576027Y-58575664D02*
X168623646Y-58480426D01*
X168623646Y-58480426D02*
X168718884Y-58385188D01*
X168718884Y-58385188D02*
X168861741Y-58337569D01*
X168861741Y-58337569D02*
X168956979Y-58337569D01*
X168956979Y-58337569D02*
X169099836Y-58385188D01*
X169099836Y-58385188D02*
X169147455Y-58432807D01*
X169528408Y-58432807D02*
X169576027Y-58385188D01*
X169576027Y-58385188D02*
X169671265Y-58337569D01*
X169671265Y-58337569D02*
X169909360Y-58337569D01*
X169909360Y-58337569D02*
X170004598Y-58385188D01*
X170004598Y-58385188D02*
X170052217Y-58432807D01*
X170052217Y-58432807D02*
X170099836Y-58528045D01*
X170099836Y-58528045D02*
X170099836Y-58623283D01*
X170099836Y-58623283D02*
X170052217Y-58766140D01*
X170052217Y-58766140D02*
X169480789Y-59337569D01*
X169480789Y-59337569D02*
X170099836Y-59337569D01*
X179785982Y-62236450D02*
X179452649Y-61760259D01*
X179214554Y-62236450D02*
X179214554Y-61236450D01*
X179214554Y-61236450D02*
X179595506Y-61236450D01*
X179595506Y-61236450D02*
X179690744Y-61284069D01*
X179690744Y-61284069D02*
X179738363Y-61331688D01*
X179738363Y-61331688D02*
X179785982Y-61426926D01*
X179785982Y-61426926D02*
X179785982Y-61569783D01*
X179785982Y-61569783D02*
X179738363Y-61665021D01*
X179738363Y-61665021D02*
X179690744Y-61712640D01*
X179690744Y-61712640D02*
X179595506Y-61760259D01*
X179595506Y-61760259D02*
X179214554Y-61760259D01*
X180547887Y-61712640D02*
X180690744Y-61760259D01*
X180690744Y-61760259D02*
X180738363Y-61807878D01*
X180738363Y-61807878D02*
X180785982Y-61903116D01*
X180785982Y-61903116D02*
X180785982Y-62045973D01*
X180785982Y-62045973D02*
X180738363Y-62141211D01*
X180738363Y-62141211D02*
X180690744Y-62188831D01*
X180690744Y-62188831D02*
X180595506Y-62236450D01*
X180595506Y-62236450D02*
X180214554Y-62236450D01*
X180214554Y-62236450D02*
X180214554Y-61236450D01*
X180214554Y-61236450D02*
X180547887Y-61236450D01*
X180547887Y-61236450D02*
X180643125Y-61284069D01*
X180643125Y-61284069D02*
X180690744Y-61331688D01*
X180690744Y-61331688D02*
X180738363Y-61426926D01*
X180738363Y-61426926D02*
X180738363Y-61522164D01*
X180738363Y-61522164D02*
X180690744Y-61617402D01*
X180690744Y-61617402D02*
X180643125Y-61665021D01*
X180643125Y-61665021D02*
X180547887Y-61712640D01*
X180547887Y-61712640D02*
X180214554Y-61712640D01*
X182500268Y-61284069D02*
X182405030Y-61236450D01*
X182405030Y-61236450D02*
X182262173Y-61236450D01*
X182262173Y-61236450D02*
X182119316Y-61284069D01*
X182119316Y-61284069D02*
X182024078Y-61379307D01*
X182024078Y-61379307D02*
X181976459Y-61474545D01*
X181976459Y-61474545D02*
X181928840Y-61665021D01*
X181928840Y-61665021D02*
X181928840Y-61807878D01*
X181928840Y-61807878D02*
X181976459Y-61998354D01*
X181976459Y-61998354D02*
X182024078Y-62093592D01*
X182024078Y-62093592D02*
X182119316Y-62188831D01*
X182119316Y-62188831D02*
X182262173Y-62236450D01*
X182262173Y-62236450D02*
X182357411Y-62236450D01*
X182357411Y-62236450D02*
X182500268Y-62188831D01*
X182500268Y-62188831D02*
X182547887Y-62141211D01*
X182547887Y-62141211D02*
X182547887Y-61807878D01*
X182547887Y-61807878D02*
X182357411Y-61807878D01*
X182976459Y-62236450D02*
X182976459Y-61236450D01*
X182976459Y-61236450D02*
X183547887Y-62236450D01*
X183547887Y-62236450D02*
X183547887Y-61236450D01*
X184024078Y-62236450D02*
X184024078Y-61236450D01*
X184024078Y-61236450D02*
X184262173Y-61236450D01*
X184262173Y-61236450D02*
X184405030Y-61284069D01*
X184405030Y-61284069D02*
X184500268Y-61379307D01*
X184500268Y-61379307D02*
X184547887Y-61474545D01*
X184547887Y-61474545D02*
X184595506Y-61665021D01*
X184595506Y-61665021D02*
X184595506Y-61807878D01*
X184595506Y-61807878D02*
X184547887Y-61998354D01*
X184547887Y-61998354D02*
X184500268Y-62093592D01*
X184500268Y-62093592D02*
X184405030Y-62188831D01*
X184405030Y-62188831D02*
X184262173Y-62236450D01*
X184262173Y-62236450D02*
X184024078Y-62236450D01*
X179785982Y-63846394D02*
X179452649Y-63370203D01*
X179214554Y-63846394D02*
X179214554Y-62846394D01*
X179214554Y-62846394D02*
X179595506Y-62846394D01*
X179595506Y-62846394D02*
X179690744Y-62894013D01*
X179690744Y-62894013D02*
X179738363Y-62941632D01*
X179738363Y-62941632D02*
X179785982Y-63036870D01*
X179785982Y-63036870D02*
X179785982Y-63179727D01*
X179785982Y-63179727D02*
X179738363Y-63274965D01*
X179738363Y-63274965D02*
X179690744Y-63322584D01*
X179690744Y-63322584D02*
X179595506Y-63370203D01*
X179595506Y-63370203D02*
X179214554Y-63370203D01*
X180785982Y-63751155D02*
X180738363Y-63798775D01*
X180738363Y-63798775D02*
X180595506Y-63846394D01*
X180595506Y-63846394D02*
X180500268Y-63846394D01*
X180500268Y-63846394D02*
X180357411Y-63798775D01*
X180357411Y-63798775D02*
X180262173Y-63703536D01*
X180262173Y-63703536D02*
X180214554Y-63608298D01*
X180214554Y-63608298D02*
X180166935Y-63417822D01*
X180166935Y-63417822D02*
X180166935Y-63274965D01*
X180166935Y-63274965D02*
X180214554Y-63084489D01*
X180214554Y-63084489D02*
X180262173Y-62989251D01*
X180262173Y-62989251D02*
X180357411Y-62894013D01*
X180357411Y-62894013D02*
X180500268Y-62846394D01*
X180500268Y-62846394D02*
X180595506Y-62846394D01*
X180595506Y-62846394D02*
X180738363Y-62894013D01*
X180738363Y-62894013D02*
X180785982Y-62941632D01*
X182500268Y-62894013D02*
X182405030Y-62846394D01*
X182405030Y-62846394D02*
X182262173Y-62846394D01*
X182262173Y-62846394D02*
X182119316Y-62894013D01*
X182119316Y-62894013D02*
X182024078Y-62989251D01*
X182024078Y-62989251D02*
X181976459Y-63084489D01*
X181976459Y-63084489D02*
X181928840Y-63274965D01*
X181928840Y-63274965D02*
X181928840Y-63417822D01*
X181928840Y-63417822D02*
X181976459Y-63608298D01*
X181976459Y-63608298D02*
X182024078Y-63703536D01*
X182024078Y-63703536D02*
X182119316Y-63798775D01*
X182119316Y-63798775D02*
X182262173Y-63846394D01*
X182262173Y-63846394D02*
X182357411Y-63846394D01*
X182357411Y-63846394D02*
X182500268Y-63798775D01*
X182500268Y-63798775D02*
X182547887Y-63751155D01*
X182547887Y-63751155D02*
X182547887Y-63417822D01*
X182547887Y-63417822D02*
X182357411Y-63417822D01*
X182976459Y-63846394D02*
X182976459Y-62846394D01*
X182976459Y-62846394D02*
X183547887Y-63846394D01*
X183547887Y-63846394D02*
X183547887Y-62846394D01*
X184024078Y-63846394D02*
X184024078Y-62846394D01*
X184024078Y-62846394D02*
X184262173Y-62846394D01*
X184262173Y-62846394D02*
X184405030Y-62894013D01*
X184405030Y-62894013D02*
X184500268Y-62989251D01*
X184500268Y-62989251D02*
X184547887Y-63084489D01*
X184547887Y-63084489D02*
X184595506Y-63274965D01*
X184595506Y-63274965D02*
X184595506Y-63417822D01*
X184595506Y-63417822D02*
X184547887Y-63608298D01*
X184547887Y-63608298D02*
X184500268Y-63703536D01*
X184500268Y-63703536D02*
X184405030Y-63798775D01*
X184405030Y-63798775D02*
X184262173Y-63846394D01*
X184262173Y-63846394D02*
X184024078Y-63846394D01*
X101920910Y-72710675D02*
X102063767Y-72758294D01*
X102063767Y-72758294D02*
X102301862Y-72758294D01*
X102301862Y-72758294D02*
X102397100Y-72710675D01*
X102397100Y-72710675D02*
X102444719Y-72663055D01*
X102444719Y-72663055D02*
X102492338Y-72567817D01*
X102492338Y-72567817D02*
X102492338Y-72472579D01*
X102492338Y-72472579D02*
X102444719Y-72377341D01*
X102444719Y-72377341D02*
X102397100Y-72329722D01*
X102397100Y-72329722D02*
X102301862Y-72282103D01*
X102301862Y-72282103D02*
X102111386Y-72234484D01*
X102111386Y-72234484D02*
X102016148Y-72186865D01*
X102016148Y-72186865D02*
X101968529Y-72139246D01*
X101968529Y-72139246D02*
X101920910Y-72044008D01*
X101920910Y-72044008D02*
X101920910Y-71948770D01*
X101920910Y-71948770D02*
X101968529Y-71853532D01*
X101968529Y-71853532D02*
X102016148Y-71805913D01*
X102016148Y-71805913D02*
X102111386Y-71758294D01*
X102111386Y-71758294D02*
X102349481Y-71758294D01*
X102349481Y-71758294D02*
X102492338Y-71805913D01*
X103444719Y-72758294D02*
X102873291Y-72758294D01*
X103159005Y-72758294D02*
X103159005Y-71758294D01*
X103159005Y-71758294D02*
X103063767Y-71901151D01*
X103063767Y-71901151D02*
X102968529Y-71996389D01*
X102968529Y-71996389D02*
X102873291Y-72044008D01*
X205463769Y-67935317D02*
X204987578Y-68268650D01*
X205463769Y-68506745D02*
X204463769Y-68506745D01*
X204463769Y-68506745D02*
X204463769Y-68125793D01*
X204463769Y-68125793D02*
X204511388Y-68030555D01*
X204511388Y-68030555D02*
X204559007Y-67982936D01*
X204559007Y-67982936D02*
X204654245Y-67935317D01*
X204654245Y-67935317D02*
X204797102Y-67935317D01*
X204797102Y-67935317D02*
X204892340Y-67982936D01*
X204892340Y-67982936D02*
X204939959Y-68030555D01*
X204939959Y-68030555D02*
X204987578Y-68125793D01*
X204987578Y-68125793D02*
X204987578Y-68506745D01*
X204939959Y-67506745D02*
X204939959Y-67173412D01*
X205463769Y-67030555D02*
X205463769Y-67506745D01*
X205463769Y-67506745D02*
X204463769Y-67506745D01*
X204463769Y-67506745D02*
X204463769Y-67030555D01*
X205463769Y-66601983D02*
X204463769Y-66601983D01*
X204463769Y-66601983D02*
X204463769Y-66363888D01*
X204463769Y-66363888D02*
X204511388Y-66221031D01*
X204511388Y-66221031D02*
X204606626Y-66125793D01*
X204606626Y-66125793D02*
X204701864Y-66078174D01*
X204701864Y-66078174D02*
X204892340Y-66030555D01*
X204892340Y-66030555D02*
X205035197Y-66030555D01*
X205035197Y-66030555D02*
X205225673Y-66078174D01*
X205225673Y-66078174D02*
X205320911Y-66125793D01*
X205320911Y-66125793D02*
X205416150Y-66221031D01*
X205416150Y-66221031D02*
X205463769Y-66363888D01*
X205463769Y-66363888D02*
X205463769Y-66601983D01*
X124726857Y-73024994D02*
X124393524Y-72548803D01*
X124155429Y-73024994D02*
X124155429Y-72024994D01*
X124155429Y-72024994D02*
X124536381Y-72024994D01*
X124536381Y-72024994D02*
X124631619Y-72072613D01*
X124631619Y-72072613D02*
X124679238Y-72120232D01*
X124679238Y-72120232D02*
X124726857Y-72215470D01*
X124726857Y-72215470D02*
X124726857Y-72358327D01*
X124726857Y-72358327D02*
X124679238Y-72453565D01*
X124679238Y-72453565D02*
X124631619Y-72501184D01*
X124631619Y-72501184D02*
X124536381Y-72548803D01*
X124536381Y-72548803D02*
X124155429Y-72548803D01*
X125107810Y-72977375D02*
X125250667Y-73024994D01*
X125250667Y-73024994D02*
X125488762Y-73024994D01*
X125488762Y-73024994D02*
X125584000Y-72977375D01*
X125584000Y-72977375D02*
X125631619Y-72929755D01*
X125631619Y-72929755D02*
X125679238Y-72834517D01*
X125679238Y-72834517D02*
X125679238Y-72739279D01*
X125679238Y-72739279D02*
X125631619Y-72644041D01*
X125631619Y-72644041D02*
X125584000Y-72596422D01*
X125584000Y-72596422D02*
X125488762Y-72548803D01*
X125488762Y-72548803D02*
X125298286Y-72501184D01*
X125298286Y-72501184D02*
X125203048Y-72453565D01*
X125203048Y-72453565D02*
X125155429Y-72405946D01*
X125155429Y-72405946D02*
X125107810Y-72310708D01*
X125107810Y-72310708D02*
X125107810Y-72215470D01*
X125107810Y-72215470D02*
X125155429Y-72120232D01*
X125155429Y-72120232D02*
X125203048Y-72072613D01*
X125203048Y-72072613D02*
X125298286Y-72024994D01*
X125298286Y-72024994D02*
X125536381Y-72024994D01*
X125536381Y-72024994D02*
X125679238Y-72072613D01*
X125964953Y-72024994D02*
X126536381Y-72024994D01*
X126250667Y-73024994D02*
X126250667Y-72024994D01*
X104248051Y-71301894D02*
X104248051Y-72016179D01*
X104248051Y-72016179D02*
X104200432Y-72159036D01*
X104200432Y-72159036D02*
X104105194Y-72254275D01*
X104105194Y-72254275D02*
X103962337Y-72301894D01*
X103962337Y-72301894D02*
X103867099Y-72301894D01*
X105248051Y-72301894D02*
X104676623Y-72301894D01*
X104962337Y-72301894D02*
X104962337Y-71301894D01*
X104962337Y-71301894D02*
X104867099Y-71444751D01*
X104867099Y-71444751D02*
X104771861Y-71539989D01*
X104771861Y-71539989D02*
X104676623Y-71587608D01*
X105867099Y-71301894D02*
X105962337Y-71301894D01*
X105962337Y-71301894D02*
X106057575Y-71349513D01*
X106057575Y-71349513D02*
X106105194Y-71397132D01*
X106105194Y-71397132D02*
X106152813Y-71492370D01*
X106152813Y-71492370D02*
X106200432Y-71682846D01*
X106200432Y-71682846D02*
X106200432Y-71920941D01*
X106200432Y-71920941D02*
X106152813Y-72111417D01*
X106152813Y-72111417D02*
X106105194Y-72206655D01*
X106105194Y-72206655D02*
X106057575Y-72254275D01*
X106057575Y-72254275D02*
X105962337Y-72301894D01*
X105962337Y-72301894D02*
X105867099Y-72301894D01*
X105867099Y-72301894D02*
X105771861Y-72254275D01*
X105771861Y-72254275D02*
X105724242Y-72206655D01*
X105724242Y-72206655D02*
X105676623Y-72111417D01*
X105676623Y-72111417D02*
X105629004Y-71920941D01*
X105629004Y-71920941D02*
X105629004Y-71682846D01*
X105629004Y-71682846D02*
X105676623Y-71492370D01*
X105676623Y-71492370D02*
X105724242Y-71397132D01*
X105724242Y-71397132D02*
X105771861Y-71349513D01*
X105771861Y-71349513D02*
X105867099Y-71301894D01*
X151705041Y-92838519D02*
X151705041Y-93552804D01*
X151705041Y-93552804D02*
X151657422Y-93695661D01*
X151657422Y-93695661D02*
X151562184Y-93790900D01*
X151562184Y-93790900D02*
X151419327Y-93838519D01*
X151419327Y-93838519D02*
X151324089Y-93838519D01*
X152085994Y-92838519D02*
X152752660Y-92838519D01*
X152752660Y-92838519D02*
X152324089Y-93838519D01*
X115251070Y-91634469D02*
X115251070Y-90634469D01*
X115251070Y-90634469D02*
X115632022Y-90634469D01*
X115632022Y-90634469D02*
X115727260Y-90682088D01*
X115727260Y-90682088D02*
X115774879Y-90729707D01*
X115774879Y-90729707D02*
X115822498Y-90824945D01*
X115822498Y-90824945D02*
X115822498Y-90967802D01*
X115822498Y-90967802D02*
X115774879Y-91063040D01*
X115774879Y-91063040D02*
X115727260Y-91110659D01*
X115727260Y-91110659D02*
X115632022Y-91158278D01*
X115632022Y-91158278D02*
X115251070Y-91158278D01*
X116251070Y-90634469D02*
X116251070Y-91443992D01*
X116251070Y-91443992D02*
X116298689Y-91539230D01*
X116298689Y-91539230D02*
X116346308Y-91586850D01*
X116346308Y-91586850D02*
X116441546Y-91634469D01*
X116441546Y-91634469D02*
X116632022Y-91634469D01*
X116632022Y-91634469D02*
X116727260Y-91586850D01*
X116727260Y-91586850D02*
X116774879Y-91539230D01*
X116774879Y-91539230D02*
X116822498Y-91443992D01*
X116822498Y-91443992D02*
X116822498Y-90634469D01*
X117774879Y-90634469D02*
X117298689Y-90634469D01*
X117298689Y-90634469D02*
X117251070Y-91110659D01*
X117251070Y-91110659D02*
X117298689Y-91063040D01*
X117298689Y-91063040D02*
X117393927Y-91015421D01*
X117393927Y-91015421D02*
X117632022Y-91015421D01*
X117632022Y-91015421D02*
X117727260Y-91063040D01*
X117727260Y-91063040D02*
X117774879Y-91110659D01*
X117774879Y-91110659D02*
X117822498Y-91205897D01*
X117822498Y-91205897D02*
X117822498Y-91443992D01*
X117822498Y-91443992D02*
X117774879Y-91539230D01*
X117774879Y-91539230D02*
X117727260Y-91586850D01*
X117727260Y-91586850D02*
X117632022Y-91634469D01*
X117632022Y-91634469D02*
X117393927Y-91634469D01*
X117393927Y-91634469D02*
X117298689Y-91586850D01*
X117298689Y-91586850D02*
X117251070Y-91539230D01*
X147556558Y-77858155D02*
X147508939Y-77905775D01*
X147508939Y-77905775D02*
X147366082Y-77953394D01*
X147366082Y-77953394D02*
X147270844Y-77953394D01*
X147270844Y-77953394D02*
X147127987Y-77905775D01*
X147127987Y-77905775D02*
X147032749Y-77810536D01*
X147032749Y-77810536D02*
X146985130Y-77715298D01*
X146985130Y-77715298D02*
X146937511Y-77524822D01*
X146937511Y-77524822D02*
X146937511Y-77381965D01*
X146937511Y-77381965D02*
X146985130Y-77191489D01*
X146985130Y-77191489D02*
X147032749Y-77096251D01*
X147032749Y-77096251D02*
X147127987Y-77001013D01*
X147127987Y-77001013D02*
X147270844Y-76953394D01*
X147270844Y-76953394D02*
X147366082Y-76953394D01*
X147366082Y-76953394D02*
X147508939Y-77001013D01*
X147508939Y-77001013D02*
X147556558Y-77048632D01*
X148413701Y-77286727D02*
X148413701Y-77953394D01*
X148175606Y-76905775D02*
X147937511Y-77620060D01*
X147937511Y-77620060D02*
X148556558Y-77620060D01*
X182052933Y-92212330D02*
X182005314Y-92259950D01*
X182005314Y-92259950D02*
X181862457Y-92307569D01*
X181862457Y-92307569D02*
X181767219Y-92307569D01*
X181767219Y-92307569D02*
X181624362Y-92259950D01*
X181624362Y-92259950D02*
X181529124Y-92164711D01*
X181529124Y-92164711D02*
X181481505Y-92069473D01*
X181481505Y-92069473D02*
X181433886Y-91878997D01*
X181433886Y-91878997D02*
X181433886Y-91736140D01*
X181433886Y-91736140D02*
X181481505Y-91545664D01*
X181481505Y-91545664D02*
X181529124Y-91450426D01*
X181529124Y-91450426D02*
X181624362Y-91355188D01*
X181624362Y-91355188D02*
X181767219Y-91307569D01*
X181767219Y-91307569D02*
X181862457Y-91307569D01*
X181862457Y-91307569D02*
X182005314Y-91355188D01*
X182005314Y-91355188D02*
X182052933Y-91402807D01*
X183005314Y-92307569D02*
X182433886Y-92307569D01*
X182719600Y-92307569D02*
X182719600Y-91307569D01*
X182719600Y-91307569D02*
X182624362Y-91450426D01*
X182624362Y-91450426D02*
X182529124Y-91545664D01*
X182529124Y-91545664D02*
X182433886Y-91593283D01*
D11*
X132584522Y-107988045D02*
X132463570Y-107927569D01*
X132463570Y-107927569D02*
X132342617Y-107806617D01*
X132342617Y-107806617D02*
X132161189Y-107625188D01*
X132161189Y-107625188D02*
X132040236Y-107564712D01*
X132040236Y-107564712D02*
X131919284Y-107564712D01*
X131979760Y-107867093D02*
X131858808Y-107806617D01*
X131858808Y-107806617D02*
X131737855Y-107685664D01*
X131737855Y-107685664D02*
X131677379Y-107443759D01*
X131677379Y-107443759D02*
X131677379Y-107020426D01*
X131677379Y-107020426D02*
X131737855Y-106778521D01*
X131737855Y-106778521D02*
X131858808Y-106657569D01*
X131858808Y-106657569D02*
X131979760Y-106597093D01*
X131979760Y-106597093D02*
X132221665Y-106597093D01*
X132221665Y-106597093D02*
X132342617Y-106657569D01*
X132342617Y-106657569D02*
X132463570Y-106778521D01*
X132463570Y-106778521D02*
X132524046Y-107020426D01*
X132524046Y-107020426D02*
X132524046Y-107443759D01*
X132524046Y-107443759D02*
X132463570Y-107685664D01*
X132463570Y-107685664D02*
X132342617Y-107806617D01*
X132342617Y-107806617D02*
X132221665Y-107867093D01*
X132221665Y-107867093D02*
X131979760Y-107867093D01*
X133673093Y-106597093D02*
X133068331Y-106597093D01*
X133068331Y-106597093D02*
X133007855Y-107201855D01*
X133007855Y-107201855D02*
X133068331Y-107141378D01*
X133068331Y-107141378D02*
X133189284Y-107080902D01*
X133189284Y-107080902D02*
X133491665Y-107080902D01*
X133491665Y-107080902D02*
X133612617Y-107141378D01*
X133612617Y-107141378D02*
X133673093Y-107201855D01*
X133673093Y-107201855D02*
X133733570Y-107322807D01*
X133733570Y-107322807D02*
X133733570Y-107625188D01*
X133733570Y-107625188D02*
X133673093Y-107746140D01*
X133673093Y-107746140D02*
X133612617Y-107806617D01*
X133612617Y-107806617D02*
X133491665Y-107867093D01*
X133491665Y-107867093D02*
X133189284Y-107867093D01*
X133189284Y-107867093D02*
X133068331Y-107806617D01*
X133068331Y-107806617D02*
X133007855Y-107746140D01*
X141880495Y-104250768D02*
X141457161Y-103646006D01*
X141154780Y-104250768D02*
X141154780Y-102980768D01*
X141154780Y-102980768D02*
X141638590Y-102980768D01*
X141638590Y-102980768D02*
X141759542Y-103041244D01*
X141759542Y-103041244D02*
X141820019Y-103101720D01*
X141820019Y-103101720D02*
X141880495Y-103222672D01*
X141880495Y-103222672D02*
X141880495Y-103404101D01*
X141880495Y-103404101D02*
X141820019Y-103525053D01*
X141820019Y-103525053D02*
X141759542Y-103585530D01*
X141759542Y-103585530D02*
X141638590Y-103646006D01*
X141638590Y-103646006D02*
X141154780Y-103646006D01*
X142424780Y-104250768D02*
X142424780Y-102980768D01*
X142424780Y-102980768D02*
X143150495Y-104250768D01*
X143150495Y-104250768D02*
X143150495Y-102980768D01*
X144299542Y-103404101D02*
X144299542Y-104250768D01*
X143997161Y-102920292D02*
X143694780Y-103827434D01*
X143694780Y-103827434D02*
X144480971Y-103827434D01*
X132606572Y-106383995D02*
X132485620Y-106323519D01*
X132485620Y-106323519D02*
X132364667Y-106202567D01*
X132364667Y-106202567D02*
X132183239Y-106021138D01*
X132183239Y-106021138D02*
X132062286Y-105960662D01*
X132062286Y-105960662D02*
X131941334Y-105960662D01*
X132001810Y-106263043D02*
X131880858Y-106202567D01*
X131880858Y-106202567D02*
X131759905Y-106081614D01*
X131759905Y-106081614D02*
X131699429Y-105839709D01*
X131699429Y-105839709D02*
X131699429Y-105416376D01*
X131699429Y-105416376D02*
X131759905Y-105174471D01*
X131759905Y-105174471D02*
X131880858Y-105053519D01*
X131880858Y-105053519D02*
X132001810Y-104993043D01*
X132001810Y-104993043D02*
X132243715Y-104993043D01*
X132243715Y-104993043D02*
X132364667Y-105053519D01*
X132364667Y-105053519D02*
X132485620Y-105174471D01*
X132485620Y-105174471D02*
X132546096Y-105416376D01*
X132546096Y-105416376D02*
X132546096Y-105839709D01*
X132546096Y-105839709D02*
X132485620Y-106081614D01*
X132485620Y-106081614D02*
X132364667Y-106202567D01*
X132364667Y-106202567D02*
X132243715Y-106263043D01*
X132243715Y-106263043D02*
X132001810Y-106263043D01*
X133634667Y-104993043D02*
X133392762Y-104993043D01*
X133392762Y-104993043D02*
X133271810Y-105053519D01*
X133271810Y-105053519D02*
X133211334Y-105113995D01*
X133211334Y-105113995D02*
X133090381Y-105295424D01*
X133090381Y-105295424D02*
X133029905Y-105537328D01*
X133029905Y-105537328D02*
X133029905Y-106021138D01*
X133029905Y-106021138D02*
X133090381Y-106142090D01*
X133090381Y-106142090D02*
X133150858Y-106202567D01*
X133150858Y-106202567D02*
X133271810Y-106263043D01*
X133271810Y-106263043D02*
X133513715Y-106263043D01*
X133513715Y-106263043D02*
X133634667Y-106202567D01*
X133634667Y-106202567D02*
X133695143Y-106142090D01*
X133695143Y-106142090D02*
X133755620Y-106021138D01*
X133755620Y-106021138D02*
X133755620Y-105718757D01*
X133755620Y-105718757D02*
X133695143Y-105597805D01*
X133695143Y-105597805D02*
X133634667Y-105537328D01*
X133634667Y-105537328D02*
X133513715Y-105476852D01*
X133513715Y-105476852D02*
X133271810Y-105476852D01*
X133271810Y-105476852D02*
X133150858Y-105537328D01*
X133150858Y-105537328D02*
X133090381Y-105597805D01*
X133090381Y-105597805D02*
X133029905Y-105718757D01*
D10*
X190501608Y-70006369D02*
X190025418Y-70006369D01*
X190025418Y-70006369D02*
X190025418Y-69006369D01*
X191311132Y-69006369D02*
X190834942Y-69006369D01*
X190834942Y-69006369D02*
X190787323Y-69482559D01*
X190787323Y-69482559D02*
X190834942Y-69434940D01*
X190834942Y-69434940D02*
X190930180Y-69387321D01*
X190930180Y-69387321D02*
X191168275Y-69387321D01*
X191168275Y-69387321D02*
X191263513Y-69434940D01*
X191263513Y-69434940D02*
X191311132Y-69482559D01*
X191311132Y-69482559D02*
X191358751Y-69577797D01*
X191358751Y-69577797D02*
X191358751Y-69815892D01*
X191358751Y-69815892D02*
X191311132Y-69911130D01*
X191311132Y-69911130D02*
X191263513Y-69958750D01*
X191263513Y-69958750D02*
X191168275Y-70006369D01*
X191168275Y-70006369D02*
X190930180Y-70006369D01*
X190930180Y-70006369D02*
X190834942Y-69958750D01*
X190834942Y-69958750D02*
X190787323Y-69911130D01*
X140697892Y-77372380D02*
X140650273Y-77420000D01*
X140650273Y-77420000D02*
X140507416Y-77467619D01*
X140507416Y-77467619D02*
X140412178Y-77467619D01*
X140412178Y-77467619D02*
X140269321Y-77420000D01*
X140269321Y-77420000D02*
X140174083Y-77324761D01*
X140174083Y-77324761D02*
X140126464Y-77229523D01*
X140126464Y-77229523D02*
X140078845Y-77039047D01*
X140078845Y-77039047D02*
X140078845Y-76896190D01*
X140078845Y-76896190D02*
X140126464Y-76705714D01*
X140126464Y-76705714D02*
X140174083Y-76610476D01*
X140174083Y-76610476D02*
X140269321Y-76515238D01*
X140269321Y-76515238D02*
X140412178Y-76467619D01*
X140412178Y-76467619D02*
X140507416Y-76467619D01*
X140507416Y-76467619D02*
X140650273Y-76515238D01*
X140650273Y-76515238D02*
X140697892Y-76562857D01*
X141078845Y-76562857D02*
X141126464Y-76515238D01*
X141126464Y-76515238D02*
X141221702Y-76467619D01*
X141221702Y-76467619D02*
X141459797Y-76467619D01*
X141459797Y-76467619D02*
X141555035Y-76515238D01*
X141555035Y-76515238D02*
X141602654Y-76562857D01*
X141602654Y-76562857D02*
X141650273Y-76658095D01*
X141650273Y-76658095D02*
X141650273Y-76753333D01*
X141650273Y-76753333D02*
X141602654Y-76896190D01*
X141602654Y-76896190D02*
X141031226Y-77467619D01*
X141031226Y-77467619D02*
X141650273Y-77467619D01*
X142269321Y-76467619D02*
X142364559Y-76467619D01*
X142364559Y-76467619D02*
X142459797Y-76515238D01*
X142459797Y-76515238D02*
X142507416Y-76562857D01*
X142507416Y-76562857D02*
X142555035Y-76658095D01*
X142555035Y-76658095D02*
X142602654Y-76848571D01*
X142602654Y-76848571D02*
X142602654Y-77086666D01*
X142602654Y-77086666D02*
X142555035Y-77277142D01*
X142555035Y-77277142D02*
X142507416Y-77372380D01*
X142507416Y-77372380D02*
X142459797Y-77420000D01*
X142459797Y-77420000D02*
X142364559Y-77467619D01*
X142364559Y-77467619D02*
X142269321Y-77467619D01*
X142269321Y-77467619D02*
X142174083Y-77420000D01*
X142174083Y-77420000D02*
X142126464Y-77372380D01*
X142126464Y-77372380D02*
X142078845Y-77277142D01*
X142078845Y-77277142D02*
X142031226Y-77086666D01*
X142031226Y-77086666D02*
X142031226Y-76848571D01*
X142031226Y-76848571D02*
X142078845Y-76658095D01*
X142078845Y-76658095D02*
X142126464Y-76562857D01*
X142126464Y-76562857D02*
X142174083Y-76515238D01*
X142174083Y-76515238D02*
X142269321Y-76467619D01*
X137066930Y-65088305D02*
X137019311Y-65135925D01*
X137019311Y-65135925D02*
X136876454Y-65183544D01*
X136876454Y-65183544D02*
X136781216Y-65183544D01*
X136781216Y-65183544D02*
X136638359Y-65135925D01*
X136638359Y-65135925D02*
X136543121Y-65040686D01*
X136543121Y-65040686D02*
X136495502Y-64945448D01*
X136495502Y-64945448D02*
X136447883Y-64754972D01*
X136447883Y-64754972D02*
X136447883Y-64612115D01*
X136447883Y-64612115D02*
X136495502Y-64421639D01*
X136495502Y-64421639D02*
X136543121Y-64326401D01*
X136543121Y-64326401D02*
X136638359Y-64231163D01*
X136638359Y-64231163D02*
X136781216Y-64183544D01*
X136781216Y-64183544D02*
X136876454Y-64183544D01*
X136876454Y-64183544D02*
X137019311Y-64231163D01*
X137019311Y-64231163D02*
X137066930Y-64278782D01*
X138019311Y-65183544D02*
X137447883Y-65183544D01*
X137733597Y-65183544D02*
X137733597Y-64183544D01*
X137733597Y-64183544D02*
X137638359Y-64326401D01*
X137638359Y-64326401D02*
X137543121Y-64421639D01*
X137543121Y-64421639D02*
X137447883Y-64469258D01*
X138352645Y-64183544D02*
X139019311Y-64183544D01*
X139019311Y-64183544D02*
X138590740Y-65183544D01*
X144808616Y-58078019D02*
X144808616Y-58792304D01*
X144808616Y-58792304D02*
X144760997Y-58935161D01*
X144760997Y-58935161D02*
X144665759Y-59030400D01*
X144665759Y-59030400D02*
X144522902Y-59078019D01*
X144522902Y-59078019D02*
X144427664Y-59078019D01*
X145808616Y-59078019D02*
X145237188Y-59078019D01*
X145522902Y-59078019D02*
X145522902Y-58078019D01*
X145522902Y-58078019D02*
X145427664Y-58220876D01*
X145427664Y-58220876D02*
X145332426Y-58316114D01*
X145332426Y-58316114D02*
X145237188Y-58363733D01*
X113974780Y-103975694D02*
X113974780Y-102975694D01*
X113974780Y-102975694D02*
X114355732Y-102975694D01*
X114355732Y-102975694D02*
X114450970Y-103023313D01*
X114450970Y-103023313D02*
X114498589Y-103070932D01*
X114498589Y-103070932D02*
X114546208Y-103166170D01*
X114546208Y-103166170D02*
X114546208Y-103309027D01*
X114546208Y-103309027D02*
X114498589Y-103404265D01*
X114498589Y-103404265D02*
X114450970Y-103451884D01*
X114450970Y-103451884D02*
X114355732Y-103499503D01*
X114355732Y-103499503D02*
X113974780Y-103499503D01*
X114974780Y-102975694D02*
X114974780Y-103785217D01*
X114974780Y-103785217D02*
X115022399Y-103880455D01*
X115022399Y-103880455D02*
X115070018Y-103928075D01*
X115070018Y-103928075D02*
X115165256Y-103975694D01*
X115165256Y-103975694D02*
X115355732Y-103975694D01*
X115355732Y-103975694D02*
X115450970Y-103928075D01*
X115450970Y-103928075D02*
X115498589Y-103880455D01*
X115498589Y-103880455D02*
X115546208Y-103785217D01*
X115546208Y-103785217D02*
X115546208Y-102975694D01*
X116546208Y-103975694D02*
X115974780Y-103975694D01*
X116260494Y-103975694D02*
X116260494Y-102975694D01*
X116260494Y-102975694D02*
X116165256Y-103118551D01*
X116165256Y-103118551D02*
X116070018Y-103213789D01*
X116070018Y-103213789D02*
X115974780Y-103261408D01*
X116927161Y-103070932D02*
X116974780Y-103023313D01*
X116974780Y-103023313D02*
X117070018Y-102975694D01*
X117070018Y-102975694D02*
X117308113Y-102975694D01*
X117308113Y-102975694D02*
X117403351Y-103023313D01*
X117403351Y-103023313D02*
X117450970Y-103070932D01*
X117450970Y-103070932D02*
X117498589Y-103166170D01*
X117498589Y-103166170D02*
X117498589Y-103261408D01*
X117498589Y-103261408D02*
X117450970Y-103404265D01*
X117450970Y-103404265D02*
X116879542Y-103975694D01*
X116879542Y-103975694D02*
X117498589Y-103975694D01*
X161544883Y-62678480D02*
X161497264Y-62726100D01*
X161497264Y-62726100D02*
X161354407Y-62773719D01*
X161354407Y-62773719D02*
X161259169Y-62773719D01*
X161259169Y-62773719D02*
X161116312Y-62726100D01*
X161116312Y-62726100D02*
X161021074Y-62630861D01*
X161021074Y-62630861D02*
X160973455Y-62535623D01*
X160973455Y-62535623D02*
X160925836Y-62345147D01*
X160925836Y-62345147D02*
X160925836Y-62202290D01*
X160925836Y-62202290D02*
X160973455Y-62011814D01*
X160973455Y-62011814D02*
X161021074Y-61916576D01*
X161021074Y-61916576D02*
X161116312Y-61821338D01*
X161116312Y-61821338D02*
X161259169Y-61773719D01*
X161259169Y-61773719D02*
X161354407Y-61773719D01*
X161354407Y-61773719D02*
X161497264Y-61821338D01*
X161497264Y-61821338D02*
X161544883Y-61868957D01*
X162402026Y-61773719D02*
X162211550Y-61773719D01*
X162211550Y-61773719D02*
X162116312Y-61821338D01*
X162116312Y-61821338D02*
X162068693Y-61868957D01*
X162068693Y-61868957D02*
X161973455Y-62011814D01*
X161973455Y-62011814D02*
X161925836Y-62202290D01*
X161925836Y-62202290D02*
X161925836Y-62583242D01*
X161925836Y-62583242D02*
X161973455Y-62678480D01*
X161973455Y-62678480D02*
X162021074Y-62726100D01*
X162021074Y-62726100D02*
X162116312Y-62773719D01*
X162116312Y-62773719D02*
X162306788Y-62773719D01*
X162306788Y-62773719D02*
X162402026Y-62726100D01*
X162402026Y-62726100D02*
X162449645Y-62678480D01*
X162449645Y-62678480D02*
X162497264Y-62583242D01*
X162497264Y-62583242D02*
X162497264Y-62345147D01*
X162497264Y-62345147D02*
X162449645Y-62249909D01*
X162449645Y-62249909D02*
X162402026Y-62202290D01*
X162402026Y-62202290D02*
X162306788Y-62154671D01*
X162306788Y-62154671D02*
X162116312Y-62154671D01*
X162116312Y-62154671D02*
X162021074Y-62202290D01*
X162021074Y-62202290D02*
X161973455Y-62249909D01*
X161973455Y-62249909D02*
X161925836Y-62345147D01*
X128417855Y-104039194D02*
X128417855Y-103039194D01*
X128417855Y-103039194D02*
X128798807Y-103039194D01*
X128798807Y-103039194D02*
X128894045Y-103086813D01*
X128894045Y-103086813D02*
X128941664Y-103134432D01*
X128941664Y-103134432D02*
X128989283Y-103229670D01*
X128989283Y-103229670D02*
X128989283Y-103372527D01*
X128989283Y-103372527D02*
X128941664Y-103467765D01*
X128941664Y-103467765D02*
X128894045Y-103515384D01*
X128894045Y-103515384D02*
X128798807Y-103563003D01*
X128798807Y-103563003D02*
X128417855Y-103563003D01*
X129417855Y-103039194D02*
X129417855Y-103848717D01*
X129417855Y-103848717D02*
X129465474Y-103943955D01*
X129465474Y-103943955D02*
X129513093Y-103991575D01*
X129513093Y-103991575D02*
X129608331Y-104039194D01*
X129608331Y-104039194D02*
X129798807Y-104039194D01*
X129798807Y-104039194D02*
X129894045Y-103991575D01*
X129894045Y-103991575D02*
X129941664Y-103943955D01*
X129941664Y-103943955D02*
X129989283Y-103848717D01*
X129989283Y-103848717D02*
X129989283Y-103039194D01*
X130989283Y-104039194D02*
X130417855Y-104039194D01*
X130703569Y-104039194D02*
X130703569Y-103039194D01*
X130703569Y-103039194D02*
X130608331Y-103182051D01*
X130608331Y-103182051D02*
X130513093Y-103277289D01*
X130513093Y-103277289D02*
X130417855Y-103324908D01*
X131322617Y-103039194D02*
X131941664Y-103039194D01*
X131941664Y-103039194D02*
X131608331Y-103420146D01*
X131608331Y-103420146D02*
X131751188Y-103420146D01*
X131751188Y-103420146D02*
X131846426Y-103467765D01*
X131846426Y-103467765D02*
X131894045Y-103515384D01*
X131894045Y-103515384D02*
X131941664Y-103610622D01*
X131941664Y-103610622D02*
X131941664Y-103848717D01*
X131941664Y-103848717D02*
X131894045Y-103943955D01*
X131894045Y-103943955D02*
X131846426Y-103991575D01*
X131846426Y-103991575D02*
X131751188Y-104039194D01*
X131751188Y-104039194D02*
X131465474Y-104039194D01*
X131465474Y-104039194D02*
X131370236Y-103991575D01*
X131370236Y-103991575D02*
X131322617Y-103943955D01*
X115330445Y-78918594D02*
X115330445Y-77918594D01*
X115330445Y-77918594D02*
X115711397Y-77918594D01*
X115711397Y-77918594D02*
X115806635Y-77966213D01*
X115806635Y-77966213D02*
X115854254Y-78013832D01*
X115854254Y-78013832D02*
X115901873Y-78109070D01*
X115901873Y-78109070D02*
X115901873Y-78251927D01*
X115901873Y-78251927D02*
X115854254Y-78347165D01*
X115854254Y-78347165D02*
X115806635Y-78394784D01*
X115806635Y-78394784D02*
X115711397Y-78442403D01*
X115711397Y-78442403D02*
X115330445Y-78442403D01*
X116330445Y-77918594D02*
X116330445Y-78728117D01*
X116330445Y-78728117D02*
X116378064Y-78823355D01*
X116378064Y-78823355D02*
X116425683Y-78870975D01*
X116425683Y-78870975D02*
X116520921Y-78918594D01*
X116520921Y-78918594D02*
X116711397Y-78918594D01*
X116711397Y-78918594D02*
X116806635Y-78870975D01*
X116806635Y-78870975D02*
X116854254Y-78823355D01*
X116854254Y-78823355D02*
X116901873Y-78728117D01*
X116901873Y-78728117D02*
X116901873Y-77918594D01*
X117330445Y-78013832D02*
X117378064Y-77966213D01*
X117378064Y-77966213D02*
X117473302Y-77918594D01*
X117473302Y-77918594D02*
X117711397Y-77918594D01*
X117711397Y-77918594D02*
X117806635Y-77966213D01*
X117806635Y-77966213D02*
X117854254Y-78013832D01*
X117854254Y-78013832D02*
X117901873Y-78109070D01*
X117901873Y-78109070D02*
X117901873Y-78204308D01*
X117901873Y-78204308D02*
X117854254Y-78347165D01*
X117854254Y-78347165D02*
X117282826Y-78918594D01*
X117282826Y-78918594D02*
X117901873Y-78918594D01*
X114317680Y-100921344D02*
X114317680Y-99921344D01*
X114317680Y-99921344D02*
X114698632Y-99921344D01*
X114698632Y-99921344D02*
X114793870Y-99968963D01*
X114793870Y-99968963D02*
X114841489Y-100016582D01*
X114841489Y-100016582D02*
X114889108Y-100111820D01*
X114889108Y-100111820D02*
X114889108Y-100254677D01*
X114889108Y-100254677D02*
X114841489Y-100349915D01*
X114841489Y-100349915D02*
X114793870Y-100397534D01*
X114793870Y-100397534D02*
X114698632Y-100445153D01*
X114698632Y-100445153D02*
X114317680Y-100445153D01*
X115317680Y-99921344D02*
X115317680Y-100730867D01*
X115317680Y-100730867D02*
X115365299Y-100826105D01*
X115365299Y-100826105D02*
X115412918Y-100873725D01*
X115412918Y-100873725D02*
X115508156Y-100921344D01*
X115508156Y-100921344D02*
X115698632Y-100921344D01*
X115698632Y-100921344D02*
X115793870Y-100873725D01*
X115793870Y-100873725D02*
X115841489Y-100826105D01*
X115841489Y-100826105D02*
X115889108Y-100730867D01*
X115889108Y-100730867D02*
X115889108Y-99921344D01*
X116889108Y-100921344D02*
X116317680Y-100921344D01*
X116603394Y-100921344D02*
X116603394Y-99921344D01*
X116603394Y-99921344D02*
X116508156Y-100064201D01*
X116508156Y-100064201D02*
X116412918Y-100159439D01*
X116412918Y-100159439D02*
X116317680Y-100207058D01*
X117841489Y-100921344D02*
X117270061Y-100921344D01*
X117555775Y-100921344D02*
X117555775Y-99921344D01*
X117555775Y-99921344D02*
X117460537Y-100064201D01*
X117460537Y-100064201D02*
X117365299Y-100159439D01*
X117365299Y-100159439D02*
X117270061Y-100207058D01*
D11*
X129323797Y-76247570D02*
X129202845Y-76187094D01*
X129202845Y-76187094D02*
X129081892Y-76066142D01*
X129081892Y-76066142D02*
X128900464Y-75884713D01*
X128900464Y-75884713D02*
X128779511Y-75824237D01*
X128779511Y-75824237D02*
X128658559Y-75824237D01*
X128719035Y-76126618D02*
X128598083Y-76066142D01*
X128598083Y-76066142D02*
X128477130Y-75945189D01*
X128477130Y-75945189D02*
X128416654Y-75703284D01*
X128416654Y-75703284D02*
X128416654Y-75279951D01*
X128416654Y-75279951D02*
X128477130Y-75038046D01*
X128477130Y-75038046D02*
X128598083Y-74917094D01*
X128598083Y-74917094D02*
X128719035Y-74856618D01*
X128719035Y-74856618D02*
X128960940Y-74856618D01*
X128960940Y-74856618D02*
X129081892Y-74917094D01*
X129081892Y-74917094D02*
X129202845Y-75038046D01*
X129202845Y-75038046D02*
X129263321Y-75279951D01*
X129263321Y-75279951D02*
X129263321Y-75703284D01*
X129263321Y-75703284D02*
X129202845Y-75945189D01*
X129202845Y-75945189D02*
X129081892Y-76066142D01*
X129081892Y-76066142D02*
X128960940Y-76126618D01*
X128960940Y-76126618D02*
X128719035Y-76126618D01*
X129686654Y-74856618D02*
X130472845Y-74856618D01*
X130472845Y-74856618D02*
X130049511Y-75340427D01*
X130049511Y-75340427D02*
X130230940Y-75340427D01*
X130230940Y-75340427D02*
X130351892Y-75400903D01*
X130351892Y-75400903D02*
X130412368Y-75461380D01*
X130412368Y-75461380D02*
X130472845Y-75582332D01*
X130472845Y-75582332D02*
X130472845Y-75884713D01*
X130472845Y-75884713D02*
X130412368Y-76005665D01*
X130412368Y-76005665D02*
X130351892Y-76066142D01*
X130351892Y-76066142D02*
X130230940Y-76126618D01*
X130230940Y-76126618D02*
X129868083Y-76126618D01*
X129868083Y-76126618D02*
X129747130Y-76066142D01*
X129747130Y-76066142D02*
X129686654Y-76005665D01*
D10*
X102211441Y-62819644D02*
X102211441Y-63533929D01*
X102211441Y-63533929D02*
X102163822Y-63676786D01*
X102163822Y-63676786D02*
X102068584Y-63772025D01*
X102068584Y-63772025D02*
X101925727Y-63819644D01*
X101925727Y-63819644D02*
X101830489Y-63819644D01*
X102687632Y-63819644D02*
X102687632Y-62819644D01*
X102687632Y-62819644D02*
X102925727Y-62819644D01*
X102925727Y-62819644D02*
X103068584Y-62867263D01*
X103068584Y-62867263D02*
X103163822Y-62962501D01*
X103163822Y-62962501D02*
X103211441Y-63057739D01*
X103211441Y-63057739D02*
X103259060Y-63248215D01*
X103259060Y-63248215D02*
X103259060Y-63391072D01*
X103259060Y-63391072D02*
X103211441Y-63581548D01*
X103211441Y-63581548D02*
X103163822Y-63676786D01*
X103163822Y-63676786D02*
X103068584Y-63772025D01*
X103068584Y-63772025D02*
X102925727Y-63819644D01*
X102925727Y-63819644D02*
X102687632Y-63819644D01*
X104211441Y-63819644D02*
X103640013Y-63819644D01*
X103925727Y-63819644D02*
X103925727Y-62819644D01*
X103925727Y-62819644D02*
X103830489Y-62962501D01*
X103830489Y-62962501D02*
X103735251Y-63057739D01*
X103735251Y-63057739D02*
X103640013Y-63105358D01*
X114898645Y-97889219D02*
X114898645Y-96889219D01*
X114898645Y-96889219D02*
X115279597Y-96889219D01*
X115279597Y-96889219D02*
X115374835Y-96936838D01*
X115374835Y-96936838D02*
X115422454Y-96984457D01*
X115422454Y-96984457D02*
X115470073Y-97079695D01*
X115470073Y-97079695D02*
X115470073Y-97222552D01*
X115470073Y-97222552D02*
X115422454Y-97317790D01*
X115422454Y-97317790D02*
X115374835Y-97365409D01*
X115374835Y-97365409D02*
X115279597Y-97413028D01*
X115279597Y-97413028D02*
X114898645Y-97413028D01*
X115898645Y-96889219D02*
X115898645Y-97698742D01*
X115898645Y-97698742D02*
X115946264Y-97793980D01*
X115946264Y-97793980D02*
X115993883Y-97841600D01*
X115993883Y-97841600D02*
X116089121Y-97889219D01*
X116089121Y-97889219D02*
X116279597Y-97889219D01*
X116279597Y-97889219D02*
X116374835Y-97841600D01*
X116374835Y-97841600D02*
X116422454Y-97793980D01*
X116422454Y-97793980D02*
X116470073Y-97698742D01*
X116470073Y-97698742D02*
X116470073Y-96889219D01*
X116993883Y-97889219D02*
X117184359Y-97889219D01*
X117184359Y-97889219D02*
X117279597Y-97841600D01*
X117279597Y-97841600D02*
X117327216Y-97793980D01*
X117327216Y-97793980D02*
X117422454Y-97651123D01*
X117422454Y-97651123D02*
X117470073Y-97460647D01*
X117470073Y-97460647D02*
X117470073Y-97079695D01*
X117470073Y-97079695D02*
X117422454Y-96984457D01*
X117422454Y-96984457D02*
X117374835Y-96936838D01*
X117374835Y-96936838D02*
X117279597Y-96889219D01*
X117279597Y-96889219D02*
X117089121Y-96889219D01*
X117089121Y-96889219D02*
X116993883Y-96936838D01*
X116993883Y-96936838D02*
X116946264Y-96984457D01*
X116946264Y-96984457D02*
X116898645Y-97079695D01*
X116898645Y-97079695D02*
X116898645Y-97317790D01*
X116898645Y-97317790D02*
X116946264Y-97413028D01*
X116946264Y-97413028D02*
X116993883Y-97460647D01*
X116993883Y-97460647D02*
X117089121Y-97508266D01*
X117089121Y-97508266D02*
X117279597Y-97508266D01*
X117279597Y-97508266D02*
X117374835Y-97460647D01*
X117374835Y-97460647D02*
X117422454Y-97413028D01*
X117422454Y-97413028D02*
X117470073Y-97317790D01*
D11*
X132549597Y-109566020D02*
X132428645Y-109505544D01*
X132428645Y-109505544D02*
X132307692Y-109384592D01*
X132307692Y-109384592D02*
X132126264Y-109203163D01*
X132126264Y-109203163D02*
X132005311Y-109142687D01*
X132005311Y-109142687D02*
X131884359Y-109142687D01*
X131944835Y-109445068D02*
X131823883Y-109384592D01*
X131823883Y-109384592D02*
X131702930Y-109263639D01*
X131702930Y-109263639D02*
X131642454Y-109021734D01*
X131642454Y-109021734D02*
X131642454Y-108598401D01*
X131642454Y-108598401D02*
X131702930Y-108356496D01*
X131702930Y-108356496D02*
X131823883Y-108235544D01*
X131823883Y-108235544D02*
X131944835Y-108175068D01*
X131944835Y-108175068D02*
X132186740Y-108175068D01*
X132186740Y-108175068D02*
X132307692Y-108235544D01*
X132307692Y-108235544D02*
X132428645Y-108356496D01*
X132428645Y-108356496D02*
X132489121Y-108598401D01*
X132489121Y-108598401D02*
X132489121Y-109021734D01*
X132489121Y-109021734D02*
X132428645Y-109263639D01*
X132428645Y-109263639D02*
X132307692Y-109384592D01*
X132307692Y-109384592D02*
X132186740Y-109445068D01*
X132186740Y-109445068D02*
X131944835Y-109445068D01*
X133577692Y-108598401D02*
X133577692Y-109445068D01*
X133275311Y-108114592D02*
X132972930Y-109021734D01*
X132972930Y-109021734D02*
X133759121Y-109021734D01*
D10*
X132494423Y-74445019D02*
X132161090Y-73968828D01*
X131922995Y-74445019D02*
X131922995Y-73445019D01*
X131922995Y-73445019D02*
X132303947Y-73445019D01*
X132303947Y-73445019D02*
X132399185Y-73492638D01*
X132399185Y-73492638D02*
X132446804Y-73540257D01*
X132446804Y-73540257D02*
X132494423Y-73635495D01*
X132494423Y-73635495D02*
X132494423Y-73778352D01*
X132494423Y-73778352D02*
X132446804Y-73873590D01*
X132446804Y-73873590D02*
X132399185Y-73921209D01*
X132399185Y-73921209D02*
X132303947Y-73968828D01*
X132303947Y-73968828D02*
X131922995Y-73968828D01*
X132922995Y-74445019D02*
X132922995Y-73445019D01*
X132922995Y-73445019D02*
X133494423Y-74445019D01*
X133494423Y-74445019D02*
X133494423Y-73445019D01*
X133922995Y-73540257D02*
X133970614Y-73492638D01*
X133970614Y-73492638D02*
X134065852Y-73445019D01*
X134065852Y-73445019D02*
X134303947Y-73445019D01*
X134303947Y-73445019D02*
X134399185Y-73492638D01*
X134399185Y-73492638D02*
X134446804Y-73540257D01*
X134446804Y-73540257D02*
X134494423Y-73635495D01*
X134494423Y-73635495D02*
X134494423Y-73730733D01*
X134494423Y-73730733D02*
X134446804Y-73873590D01*
X134446804Y-73873590D02*
X133875376Y-74445019D01*
X133875376Y-74445019D02*
X134494423Y-74445019D01*
X128484470Y-97708244D02*
X128484470Y-96708244D01*
X128484470Y-96708244D02*
X128865422Y-96708244D01*
X128865422Y-96708244D02*
X128960660Y-96755863D01*
X128960660Y-96755863D02*
X129008279Y-96803482D01*
X129008279Y-96803482D02*
X129055898Y-96898720D01*
X129055898Y-96898720D02*
X129055898Y-97041577D01*
X129055898Y-97041577D02*
X129008279Y-97136815D01*
X129008279Y-97136815D02*
X128960660Y-97184434D01*
X128960660Y-97184434D02*
X128865422Y-97232053D01*
X128865422Y-97232053D02*
X128484470Y-97232053D01*
X129484470Y-96708244D02*
X129484470Y-97517767D01*
X129484470Y-97517767D02*
X129532089Y-97613005D01*
X129532089Y-97613005D02*
X129579708Y-97660625D01*
X129579708Y-97660625D02*
X129674946Y-97708244D01*
X129674946Y-97708244D02*
X129865422Y-97708244D01*
X129865422Y-97708244D02*
X129960660Y-97660625D01*
X129960660Y-97660625D02*
X130008279Y-97613005D01*
X130008279Y-97613005D02*
X130055898Y-97517767D01*
X130055898Y-97517767D02*
X130055898Y-96708244D01*
X130674946Y-97136815D02*
X130579708Y-97089196D01*
X130579708Y-97089196D02*
X130532089Y-97041577D01*
X130532089Y-97041577D02*
X130484470Y-96946339D01*
X130484470Y-96946339D02*
X130484470Y-96898720D01*
X130484470Y-96898720D02*
X130532089Y-96803482D01*
X130532089Y-96803482D02*
X130579708Y-96755863D01*
X130579708Y-96755863D02*
X130674946Y-96708244D01*
X130674946Y-96708244D02*
X130865422Y-96708244D01*
X130865422Y-96708244D02*
X130960660Y-96755863D01*
X130960660Y-96755863D02*
X131008279Y-96803482D01*
X131008279Y-96803482D02*
X131055898Y-96898720D01*
X131055898Y-96898720D02*
X131055898Y-96946339D01*
X131055898Y-96946339D02*
X131008279Y-97041577D01*
X131008279Y-97041577D02*
X130960660Y-97089196D01*
X130960660Y-97089196D02*
X130865422Y-97136815D01*
X130865422Y-97136815D02*
X130674946Y-97136815D01*
X130674946Y-97136815D02*
X130579708Y-97184434D01*
X130579708Y-97184434D02*
X130532089Y-97232053D01*
X130532089Y-97232053D02*
X130484470Y-97327291D01*
X130484470Y-97327291D02*
X130484470Y-97517767D01*
X130484470Y-97517767D02*
X130532089Y-97613005D01*
X130532089Y-97613005D02*
X130579708Y-97660625D01*
X130579708Y-97660625D02*
X130674946Y-97708244D01*
X130674946Y-97708244D02*
X130865422Y-97708244D01*
X130865422Y-97708244D02*
X130960660Y-97660625D01*
X130960660Y-97660625D02*
X131008279Y-97613005D01*
X131008279Y-97613005D02*
X131055898Y-97517767D01*
X131055898Y-97517767D02*
X131055898Y-97327291D01*
X131055898Y-97327291D02*
X131008279Y-97232053D01*
X131008279Y-97232053D02*
X130960660Y-97184434D01*
X130960660Y-97184434D02*
X130865422Y-97136815D01*
X137376842Y-75851555D02*
X137329223Y-75899175D01*
X137329223Y-75899175D02*
X137186366Y-75946794D01*
X137186366Y-75946794D02*
X137091128Y-75946794D01*
X137091128Y-75946794D02*
X136948271Y-75899175D01*
X136948271Y-75899175D02*
X136853033Y-75803936D01*
X136853033Y-75803936D02*
X136805414Y-75708698D01*
X136805414Y-75708698D02*
X136757795Y-75518222D01*
X136757795Y-75518222D02*
X136757795Y-75375365D01*
X136757795Y-75375365D02*
X136805414Y-75184889D01*
X136805414Y-75184889D02*
X136853033Y-75089651D01*
X136853033Y-75089651D02*
X136948271Y-74994413D01*
X136948271Y-74994413D02*
X137091128Y-74946794D01*
X137091128Y-74946794D02*
X137186366Y-74946794D01*
X137186366Y-74946794D02*
X137329223Y-74994413D01*
X137329223Y-74994413D02*
X137376842Y-75042032D01*
X138329223Y-75946794D02*
X137757795Y-75946794D01*
X138043509Y-75946794D02*
X138043509Y-74946794D01*
X138043509Y-74946794D02*
X137948271Y-75089651D01*
X137948271Y-75089651D02*
X137853033Y-75184889D01*
X137853033Y-75184889D02*
X137757795Y-75232508D01*
X138900652Y-75375365D02*
X138805414Y-75327746D01*
X138805414Y-75327746D02*
X138757795Y-75280127D01*
X138757795Y-75280127D02*
X138710176Y-75184889D01*
X138710176Y-75184889D02*
X138710176Y-75137270D01*
X138710176Y-75137270D02*
X138757795Y-75042032D01*
X138757795Y-75042032D02*
X138805414Y-74994413D01*
X138805414Y-74994413D02*
X138900652Y-74946794D01*
X138900652Y-74946794D02*
X139091128Y-74946794D01*
X139091128Y-74946794D02*
X139186366Y-74994413D01*
X139186366Y-74994413D02*
X139233985Y-75042032D01*
X139233985Y-75042032D02*
X139281604Y-75137270D01*
X139281604Y-75137270D02*
X139281604Y-75184889D01*
X139281604Y-75184889D02*
X139233985Y-75280127D01*
X139233985Y-75280127D02*
X139186366Y-75327746D01*
X139186366Y-75327746D02*
X139091128Y-75375365D01*
X139091128Y-75375365D02*
X138900652Y-75375365D01*
X138900652Y-75375365D02*
X138805414Y-75422984D01*
X138805414Y-75422984D02*
X138757795Y-75470603D01*
X138757795Y-75470603D02*
X138710176Y-75565841D01*
X138710176Y-75565841D02*
X138710176Y-75756317D01*
X138710176Y-75756317D02*
X138757795Y-75851555D01*
X138757795Y-75851555D02*
X138805414Y-75899175D01*
X138805414Y-75899175D02*
X138900652Y-75946794D01*
X138900652Y-75946794D02*
X139091128Y-75946794D01*
X139091128Y-75946794D02*
X139186366Y-75899175D01*
X139186366Y-75899175D02*
X139233985Y-75851555D01*
X139233985Y-75851555D02*
X139281604Y-75756317D01*
X139281604Y-75756317D02*
X139281604Y-75565841D01*
X139281604Y-75565841D02*
X139233985Y-75470603D01*
X139233985Y-75470603D02*
X139186366Y-75422984D01*
X139186366Y-75422984D02*
X139091128Y-75375365D01*
X101717642Y-67999769D02*
X101717642Y-66999769D01*
X101717642Y-66999769D02*
X102050975Y-67714054D01*
X102050975Y-67714054D02*
X102384308Y-66999769D01*
X102384308Y-66999769D02*
X102384308Y-67999769D01*
X103050975Y-66999769D02*
X103241451Y-66999769D01*
X103241451Y-66999769D02*
X103336689Y-67047388D01*
X103336689Y-67047388D02*
X103431927Y-67142626D01*
X103431927Y-67142626D02*
X103479546Y-67333102D01*
X103479546Y-67333102D02*
X103479546Y-67666435D01*
X103479546Y-67666435D02*
X103431927Y-67856911D01*
X103431927Y-67856911D02*
X103336689Y-67952150D01*
X103336689Y-67952150D02*
X103241451Y-67999769D01*
X103241451Y-67999769D02*
X103050975Y-67999769D01*
X103050975Y-67999769D02*
X102955737Y-67952150D01*
X102955737Y-67952150D02*
X102860499Y-67856911D01*
X102860499Y-67856911D02*
X102812880Y-67666435D01*
X102812880Y-67666435D02*
X102812880Y-67333102D01*
X102812880Y-67333102D02*
X102860499Y-67142626D01*
X102860499Y-67142626D02*
X102955737Y-67047388D01*
X102955737Y-67047388D02*
X103050975Y-66999769D01*
X104431927Y-67999769D02*
X103860499Y-67999769D01*
X104146213Y-67999769D02*
X104146213Y-66999769D01*
X104146213Y-66999769D02*
X104050975Y-67142626D01*
X104050975Y-67142626D02*
X103955737Y-67237864D01*
X103955737Y-67237864D02*
X103860499Y-67285483D01*
X150617258Y-77565330D02*
X150569639Y-77612950D01*
X150569639Y-77612950D02*
X150426782Y-77660569D01*
X150426782Y-77660569D02*
X150331544Y-77660569D01*
X150331544Y-77660569D02*
X150188687Y-77612950D01*
X150188687Y-77612950D02*
X150093449Y-77517711D01*
X150093449Y-77517711D02*
X150045830Y-77422473D01*
X150045830Y-77422473D02*
X149998211Y-77231997D01*
X149998211Y-77231997D02*
X149998211Y-77089140D01*
X149998211Y-77089140D02*
X150045830Y-76898664D01*
X150045830Y-76898664D02*
X150093449Y-76803426D01*
X150093449Y-76803426D02*
X150188687Y-76708188D01*
X150188687Y-76708188D02*
X150331544Y-76660569D01*
X150331544Y-76660569D02*
X150426782Y-76660569D01*
X150426782Y-76660569D02*
X150569639Y-76708188D01*
X150569639Y-76708188D02*
X150617258Y-76755807D01*
X151522020Y-76660569D02*
X151045830Y-76660569D01*
X151045830Y-76660569D02*
X150998211Y-77136759D01*
X150998211Y-77136759D02*
X151045830Y-77089140D01*
X151045830Y-77089140D02*
X151141068Y-77041521D01*
X151141068Y-77041521D02*
X151379163Y-77041521D01*
X151379163Y-77041521D02*
X151474401Y-77089140D01*
X151474401Y-77089140D02*
X151522020Y-77136759D01*
X151522020Y-77136759D02*
X151569639Y-77231997D01*
X151569639Y-77231997D02*
X151569639Y-77470092D01*
X151569639Y-77470092D02*
X151522020Y-77565330D01*
X151522020Y-77565330D02*
X151474401Y-77612950D01*
X151474401Y-77612950D02*
X151379163Y-77660569D01*
X151379163Y-77660569D02*
X151141068Y-77660569D01*
X151141068Y-77660569D02*
X151045830Y-77612950D01*
X151045830Y-77612950D02*
X150998211Y-77565330D01*
D11*
X171352330Y-85670668D02*
X171352330Y-86698763D01*
X171352330Y-86698763D02*
X171412807Y-86819715D01*
X171412807Y-86819715D02*
X171473283Y-86880192D01*
X171473283Y-86880192D02*
X171594235Y-86940668D01*
X171594235Y-86940668D02*
X171836140Y-86940668D01*
X171836140Y-86940668D02*
X171957092Y-86880192D01*
X171957092Y-86880192D02*
X172017569Y-86819715D01*
X172017569Y-86819715D02*
X172078045Y-86698763D01*
X172078045Y-86698763D02*
X172078045Y-85670668D01*
X172864235Y-86214953D02*
X172743283Y-86154477D01*
X172743283Y-86154477D02*
X172682806Y-86094001D01*
X172682806Y-86094001D02*
X172622330Y-85973049D01*
X172622330Y-85973049D02*
X172622330Y-85912572D01*
X172622330Y-85912572D02*
X172682806Y-85791620D01*
X172682806Y-85791620D02*
X172743283Y-85731144D01*
X172743283Y-85731144D02*
X172864235Y-85670668D01*
X172864235Y-85670668D02*
X173106140Y-85670668D01*
X173106140Y-85670668D02*
X173227092Y-85731144D01*
X173227092Y-85731144D02*
X173287568Y-85791620D01*
X173287568Y-85791620D02*
X173348045Y-85912572D01*
X173348045Y-85912572D02*
X173348045Y-85973049D01*
X173348045Y-85973049D02*
X173287568Y-86094001D01*
X173287568Y-86094001D02*
X173227092Y-86154477D01*
X173227092Y-86154477D02*
X173106140Y-86214953D01*
X173106140Y-86214953D02*
X172864235Y-86214953D01*
X172864235Y-86214953D02*
X172743283Y-86275430D01*
X172743283Y-86275430D02*
X172682806Y-86335906D01*
X172682806Y-86335906D02*
X172622330Y-86456858D01*
X172622330Y-86456858D02*
X172622330Y-86698763D01*
X172622330Y-86698763D02*
X172682806Y-86819715D01*
X172682806Y-86819715D02*
X172743283Y-86880192D01*
X172743283Y-86880192D02*
X172864235Y-86940668D01*
X172864235Y-86940668D02*
X173106140Y-86940668D01*
X173106140Y-86940668D02*
X173227092Y-86880192D01*
X173227092Y-86880192D02*
X173287568Y-86819715D01*
X173287568Y-86819715D02*
X173348045Y-86698763D01*
X173348045Y-86698763D02*
X173348045Y-86456858D01*
X173348045Y-86456858D02*
X173287568Y-86335906D01*
X173287568Y-86335906D02*
X173227092Y-86275430D01*
X173227092Y-86275430D02*
X173106140Y-86214953D01*
D10*
X109772491Y-58993294D02*
X109772491Y-59707579D01*
X109772491Y-59707579D02*
X109724872Y-59850436D01*
X109724872Y-59850436D02*
X109629634Y-59945675D01*
X109629634Y-59945675D02*
X109486777Y-59993294D01*
X109486777Y-59993294D02*
X109391539Y-59993294D01*
X110153444Y-58993294D02*
X110772491Y-58993294D01*
X110772491Y-58993294D02*
X110439158Y-59374246D01*
X110439158Y-59374246D02*
X110582015Y-59374246D01*
X110582015Y-59374246D02*
X110677253Y-59421865D01*
X110677253Y-59421865D02*
X110724872Y-59469484D01*
X110724872Y-59469484D02*
X110772491Y-59564722D01*
X110772491Y-59564722D02*
X110772491Y-59802817D01*
X110772491Y-59802817D02*
X110724872Y-59898055D01*
X110724872Y-59898055D02*
X110677253Y-59945675D01*
X110677253Y-59945675D02*
X110582015Y-59993294D01*
X110582015Y-59993294D02*
X110296301Y-59993294D01*
X110296301Y-59993294D02*
X110201063Y-59945675D01*
X110201063Y-59945675D02*
X110153444Y-59898055D01*
X176869441Y-69571394D02*
X176869441Y-70285679D01*
X176869441Y-70285679D02*
X176821822Y-70428536D01*
X176821822Y-70428536D02*
X176726584Y-70523775D01*
X176726584Y-70523775D02*
X176583727Y-70571394D01*
X176583727Y-70571394D02*
X176488489Y-70571394D01*
X177298013Y-69666632D02*
X177345632Y-69619013D01*
X177345632Y-69619013D02*
X177440870Y-69571394D01*
X177440870Y-69571394D02*
X177678965Y-69571394D01*
X177678965Y-69571394D02*
X177774203Y-69619013D01*
X177774203Y-69619013D02*
X177821822Y-69666632D01*
X177821822Y-69666632D02*
X177869441Y-69761870D01*
X177869441Y-69761870D02*
X177869441Y-69857108D01*
X177869441Y-69857108D02*
X177821822Y-69999965D01*
X177821822Y-69999965D02*
X177250394Y-70571394D01*
X177250394Y-70571394D02*
X177869441Y-70571394D01*
X132494423Y-72714644D02*
X132161090Y-72238453D01*
X131922995Y-72714644D02*
X131922995Y-71714644D01*
X131922995Y-71714644D02*
X132303947Y-71714644D01*
X132303947Y-71714644D02*
X132399185Y-71762263D01*
X132399185Y-71762263D02*
X132446804Y-71809882D01*
X132446804Y-71809882D02*
X132494423Y-71905120D01*
X132494423Y-71905120D02*
X132494423Y-72047977D01*
X132494423Y-72047977D02*
X132446804Y-72143215D01*
X132446804Y-72143215D02*
X132399185Y-72190834D01*
X132399185Y-72190834D02*
X132303947Y-72238453D01*
X132303947Y-72238453D02*
X131922995Y-72238453D01*
X132922995Y-72714644D02*
X132922995Y-71714644D01*
X132922995Y-71714644D02*
X133494423Y-72714644D01*
X133494423Y-72714644D02*
X133494423Y-71714644D01*
X134494423Y-72714644D02*
X133922995Y-72714644D01*
X134208709Y-72714644D02*
X134208709Y-71714644D01*
X134208709Y-71714644D02*
X134113471Y-71857501D01*
X134113471Y-71857501D02*
X134018233Y-71952739D01*
X134018233Y-71952739D02*
X133922995Y-72000358D01*
X193971344Y-85694744D02*
X192971344Y-85694744D01*
X192971344Y-85694744D02*
X192971344Y-85313792D01*
X192971344Y-85313792D02*
X193018963Y-85218554D01*
X193018963Y-85218554D02*
X193066582Y-85170935D01*
X193066582Y-85170935D02*
X193161820Y-85123316D01*
X193161820Y-85123316D02*
X193304677Y-85123316D01*
X193304677Y-85123316D02*
X193399915Y-85170935D01*
X193399915Y-85170935D02*
X193447534Y-85218554D01*
X193447534Y-85218554D02*
X193495153Y-85313792D01*
X193495153Y-85313792D02*
X193495153Y-85694744D01*
X192971344Y-84789982D02*
X192971344Y-84170935D01*
X192971344Y-84170935D02*
X193352296Y-84504268D01*
X193352296Y-84504268D02*
X193352296Y-84361411D01*
X193352296Y-84361411D02*
X193399915Y-84266173D01*
X193399915Y-84266173D02*
X193447534Y-84218554D01*
X193447534Y-84218554D02*
X193542772Y-84170935D01*
X193542772Y-84170935D02*
X193780867Y-84170935D01*
X193780867Y-84170935D02*
X193876105Y-84218554D01*
X193876105Y-84218554D02*
X193923725Y-84266173D01*
X193923725Y-84266173D02*
X193971344Y-84361411D01*
X193971344Y-84361411D02*
X193971344Y-84647125D01*
X193971344Y-84647125D02*
X193923725Y-84742363D01*
X193923725Y-84742363D02*
X193876105Y-84789982D01*
D11*
X129361897Y-74317170D02*
X129240945Y-74256694D01*
X129240945Y-74256694D02*
X129119992Y-74135742D01*
X129119992Y-74135742D02*
X128938564Y-73954313D01*
X128938564Y-73954313D02*
X128817611Y-73893837D01*
X128817611Y-73893837D02*
X128696659Y-73893837D01*
X128757135Y-74196218D02*
X128636183Y-74135742D01*
X128636183Y-74135742D02*
X128515230Y-74014789D01*
X128515230Y-74014789D02*
X128454754Y-73772884D01*
X128454754Y-73772884D02*
X128454754Y-73349551D01*
X128454754Y-73349551D02*
X128515230Y-73107646D01*
X128515230Y-73107646D02*
X128636183Y-72986694D01*
X128636183Y-72986694D02*
X128757135Y-72926218D01*
X128757135Y-72926218D02*
X128999040Y-72926218D01*
X128999040Y-72926218D02*
X129119992Y-72986694D01*
X129119992Y-72986694D02*
X129240945Y-73107646D01*
X129240945Y-73107646D02*
X129301421Y-73349551D01*
X129301421Y-73349551D02*
X129301421Y-73772884D01*
X129301421Y-73772884D02*
X129240945Y-74014789D01*
X129240945Y-74014789D02*
X129119992Y-74135742D01*
X129119992Y-74135742D02*
X128999040Y-74196218D01*
X128999040Y-74196218D02*
X128757135Y-74196218D01*
X129785230Y-73047170D02*
X129845706Y-72986694D01*
X129845706Y-72986694D02*
X129966659Y-72926218D01*
X129966659Y-72926218D02*
X130269040Y-72926218D01*
X130269040Y-72926218D02*
X130389992Y-72986694D01*
X130389992Y-72986694D02*
X130450468Y-73047170D01*
X130450468Y-73047170D02*
X130510945Y-73168122D01*
X130510945Y-73168122D02*
X130510945Y-73289075D01*
X130510945Y-73289075D02*
X130450468Y-73470503D01*
X130450468Y-73470503D02*
X129724754Y-74196218D01*
X129724754Y-74196218D02*
X130510945Y-74196218D01*
X141134237Y-101282143D02*
X141134237Y-100012143D01*
X141134237Y-100012143D02*
X141436618Y-100012143D01*
X141436618Y-100012143D02*
X141618047Y-100072619D01*
X141618047Y-100072619D02*
X141738999Y-100193571D01*
X141738999Y-100193571D02*
X141799476Y-100314524D01*
X141799476Y-100314524D02*
X141859952Y-100556428D01*
X141859952Y-100556428D02*
X141859952Y-100737857D01*
X141859952Y-100737857D02*
X141799476Y-100979762D01*
X141799476Y-100979762D02*
X141738999Y-101100714D01*
X141738999Y-101100714D02*
X141618047Y-101221667D01*
X141618047Y-101221667D02*
X141436618Y-101282143D01*
X141436618Y-101282143D02*
X141134237Y-101282143D01*
X142404237Y-101282143D02*
X142404237Y-100012143D01*
X143008999Y-101282143D02*
X143008999Y-100012143D01*
X143008999Y-100012143D02*
X143311380Y-100012143D01*
X143311380Y-100012143D02*
X143492809Y-100072619D01*
X143492809Y-100072619D02*
X143613761Y-100193571D01*
X143613761Y-100193571D02*
X143674238Y-100314524D01*
X143674238Y-100314524D02*
X143734714Y-100556428D01*
X143734714Y-100556428D02*
X143734714Y-100737857D01*
X143734714Y-100737857D02*
X143674238Y-100979762D01*
X143674238Y-100979762D02*
X143613761Y-101100714D01*
X143613761Y-101100714D02*
X143492809Y-101221667D01*
X143492809Y-101221667D02*
X143311380Y-101282143D01*
X143311380Y-101282143D02*
X143008999Y-101282143D01*
X144944238Y-101282143D02*
X144218523Y-101282143D01*
X144581380Y-101282143D02*
X144581380Y-100012143D01*
X144581380Y-100012143D02*
X144460428Y-100193571D01*
X144460428Y-100193571D02*
X144339476Y-100314524D01*
X144339476Y-100314524D02*
X144218523Y-100375000D01*
D10*
X132551573Y-76454794D02*
X132218240Y-75978603D01*
X131980145Y-76454794D02*
X131980145Y-75454794D01*
X131980145Y-75454794D02*
X132361097Y-75454794D01*
X132361097Y-75454794D02*
X132456335Y-75502413D01*
X132456335Y-75502413D02*
X132503954Y-75550032D01*
X132503954Y-75550032D02*
X132551573Y-75645270D01*
X132551573Y-75645270D02*
X132551573Y-75788127D01*
X132551573Y-75788127D02*
X132503954Y-75883365D01*
X132503954Y-75883365D02*
X132456335Y-75930984D01*
X132456335Y-75930984D02*
X132361097Y-75978603D01*
X132361097Y-75978603D02*
X131980145Y-75978603D01*
X132980145Y-76454794D02*
X132980145Y-75454794D01*
X132980145Y-75454794D02*
X133551573Y-76454794D01*
X133551573Y-76454794D02*
X133551573Y-75454794D01*
X133932526Y-75454794D02*
X134551573Y-75454794D01*
X134551573Y-75454794D02*
X134218240Y-75835746D01*
X134218240Y-75835746D02*
X134361097Y-75835746D01*
X134361097Y-75835746D02*
X134456335Y-75883365D01*
X134456335Y-75883365D02*
X134503954Y-75930984D01*
X134503954Y-75930984D02*
X134551573Y-76026222D01*
X134551573Y-76026222D02*
X134551573Y-76264317D01*
X134551573Y-76264317D02*
X134503954Y-76359555D01*
X134503954Y-76359555D02*
X134456335Y-76407175D01*
X134456335Y-76407175D02*
X134361097Y-76454794D01*
X134361097Y-76454794D02*
X134075383Y-76454794D01*
X134075383Y-76454794D02*
X133980145Y-76407175D01*
X133980145Y-76407175D02*
X133932526Y-76359555D01*
D11*
X141810645Y-98351618D02*
X141387311Y-97746856D01*
X141084930Y-98351618D02*
X141084930Y-97081618D01*
X141084930Y-97081618D02*
X141568740Y-97081618D01*
X141568740Y-97081618D02*
X141689692Y-97142094D01*
X141689692Y-97142094D02*
X141750169Y-97202570D01*
X141750169Y-97202570D02*
X141810645Y-97323522D01*
X141810645Y-97323522D02*
X141810645Y-97504951D01*
X141810645Y-97504951D02*
X141750169Y-97625903D01*
X141750169Y-97625903D02*
X141689692Y-97686380D01*
X141689692Y-97686380D02*
X141568740Y-97746856D01*
X141568740Y-97746856D02*
X141084930Y-97746856D01*
X142354930Y-98351618D02*
X142354930Y-97081618D01*
X142354930Y-97081618D02*
X143080645Y-98351618D01*
X143080645Y-98351618D02*
X143080645Y-97081618D01*
X144290168Y-97081618D02*
X143685406Y-97081618D01*
X143685406Y-97081618D02*
X143624930Y-97686380D01*
X143624930Y-97686380D02*
X143685406Y-97625903D01*
X143685406Y-97625903D02*
X143806359Y-97565427D01*
X143806359Y-97565427D02*
X144108740Y-97565427D01*
X144108740Y-97565427D02*
X144229692Y-97625903D01*
X144229692Y-97625903D02*
X144290168Y-97686380D01*
X144290168Y-97686380D02*
X144350645Y-97807332D01*
X144350645Y-97807332D02*
X144350645Y-98109713D01*
X144350645Y-98109713D02*
X144290168Y-98230665D01*
X144290168Y-98230665D02*
X144229692Y-98291142D01*
X144229692Y-98291142D02*
X144108740Y-98351618D01*
X144108740Y-98351618D02*
X143806359Y-98351618D01*
X143806359Y-98351618D02*
X143685406Y-98291142D01*
X143685406Y-98291142D02*
X143624930Y-98230665D01*
D10*
X150560108Y-65619255D02*
X150512489Y-65666875D01*
X150512489Y-65666875D02*
X150369632Y-65714494D01*
X150369632Y-65714494D02*
X150274394Y-65714494D01*
X150274394Y-65714494D02*
X150131537Y-65666875D01*
X150131537Y-65666875D02*
X150036299Y-65571636D01*
X150036299Y-65571636D02*
X149988680Y-65476398D01*
X149988680Y-65476398D02*
X149941061Y-65285922D01*
X149941061Y-65285922D02*
X149941061Y-65143065D01*
X149941061Y-65143065D02*
X149988680Y-64952589D01*
X149988680Y-64952589D02*
X150036299Y-64857351D01*
X150036299Y-64857351D02*
X150131537Y-64762113D01*
X150131537Y-64762113D02*
X150274394Y-64714494D01*
X150274394Y-64714494D02*
X150369632Y-64714494D01*
X150369632Y-64714494D02*
X150512489Y-64762113D01*
X150512489Y-64762113D02*
X150560108Y-64809732D01*
X150893442Y-64714494D02*
X151512489Y-64714494D01*
X151512489Y-64714494D02*
X151179156Y-65095446D01*
X151179156Y-65095446D02*
X151322013Y-65095446D01*
X151322013Y-65095446D02*
X151417251Y-65143065D01*
X151417251Y-65143065D02*
X151464870Y-65190684D01*
X151464870Y-65190684D02*
X151512489Y-65285922D01*
X151512489Y-65285922D02*
X151512489Y-65524017D01*
X151512489Y-65524017D02*
X151464870Y-65619255D01*
X151464870Y-65619255D02*
X151417251Y-65666875D01*
X151417251Y-65666875D02*
X151322013Y-65714494D01*
X151322013Y-65714494D02*
X151036299Y-65714494D01*
X151036299Y-65714494D02*
X150941061Y-65666875D01*
X150941061Y-65666875D02*
X150893442Y-65619255D01*
D11*
X165376980Y-77304543D02*
X165376980Y-78332638D01*
X165376980Y-78332638D02*
X165437457Y-78453590D01*
X165437457Y-78453590D02*
X165497933Y-78514067D01*
X165497933Y-78514067D02*
X165618885Y-78574543D01*
X165618885Y-78574543D02*
X165860790Y-78574543D01*
X165860790Y-78574543D02*
X165981742Y-78514067D01*
X165981742Y-78514067D02*
X166042219Y-78453590D01*
X166042219Y-78453590D02*
X166102695Y-78332638D01*
X166102695Y-78332638D02*
X166102695Y-77304543D01*
X166586504Y-77304543D02*
X167372695Y-77304543D01*
X167372695Y-77304543D02*
X166949361Y-77788352D01*
X166949361Y-77788352D02*
X167130790Y-77788352D01*
X167130790Y-77788352D02*
X167251742Y-77848828D01*
X167251742Y-77848828D02*
X167312218Y-77909305D01*
X167312218Y-77909305D02*
X167372695Y-78030257D01*
X167372695Y-78030257D02*
X167372695Y-78332638D01*
X167372695Y-78332638D02*
X167312218Y-78453590D01*
X167312218Y-78453590D02*
X167251742Y-78514067D01*
X167251742Y-78514067D02*
X167130790Y-78574543D01*
X167130790Y-78574543D02*
X166767933Y-78574543D01*
X166767933Y-78574543D02*
X166646980Y-78514067D01*
X166646980Y-78514067D02*
X166586504Y-78453590D01*
D10*
X115295520Y-75730894D02*
X115295520Y-74730894D01*
X115295520Y-74730894D02*
X115676472Y-74730894D01*
X115676472Y-74730894D02*
X115771710Y-74778513D01*
X115771710Y-74778513D02*
X115819329Y-74826132D01*
X115819329Y-74826132D02*
X115866948Y-74921370D01*
X115866948Y-74921370D02*
X115866948Y-75064227D01*
X115866948Y-75064227D02*
X115819329Y-75159465D01*
X115819329Y-75159465D02*
X115771710Y-75207084D01*
X115771710Y-75207084D02*
X115676472Y-75254703D01*
X115676472Y-75254703D02*
X115295520Y-75254703D01*
X116295520Y-74730894D02*
X116295520Y-75540417D01*
X116295520Y-75540417D02*
X116343139Y-75635655D01*
X116343139Y-75635655D02*
X116390758Y-75683275D01*
X116390758Y-75683275D02*
X116485996Y-75730894D01*
X116485996Y-75730894D02*
X116676472Y-75730894D01*
X116676472Y-75730894D02*
X116771710Y-75683275D01*
X116771710Y-75683275D02*
X116819329Y-75635655D01*
X116819329Y-75635655D02*
X116866948Y-75540417D01*
X116866948Y-75540417D02*
X116866948Y-74730894D01*
X117866948Y-75730894D02*
X117295520Y-75730894D01*
X117581234Y-75730894D02*
X117581234Y-74730894D01*
X117581234Y-74730894D02*
X117485996Y-74873751D01*
X117485996Y-74873751D02*
X117390758Y-74968989D01*
X117390758Y-74968989D02*
X117295520Y-75016608D01*
X101941410Y-57766869D02*
X101941410Y-58481154D01*
X101941410Y-58481154D02*
X101893791Y-58624011D01*
X101893791Y-58624011D02*
X101798553Y-58719250D01*
X101798553Y-58719250D02*
X101655696Y-58766869D01*
X101655696Y-58766869D02*
X101560458Y-58766869D01*
X102417601Y-58243059D02*
X102750934Y-58243059D01*
X102893791Y-58766869D02*
X102417601Y-58766869D01*
X102417601Y-58766869D02*
X102417601Y-57766869D01*
X102417601Y-57766869D02*
X102893791Y-57766869D01*
X103846172Y-58766869D02*
X103274744Y-58766869D01*
X103560458Y-58766869D02*
X103560458Y-57766869D01*
X103560458Y-57766869D02*
X103465220Y-57909726D01*
X103465220Y-57909726D02*
X103369982Y-58004964D01*
X103369982Y-58004964D02*
X103274744Y-58052583D01*
X96624380Y-76050045D02*
X96624380Y-75050045D01*
X96624380Y-75050045D02*
X97005332Y-75050045D01*
X97005332Y-75050045D02*
X97100570Y-75097664D01*
X97100570Y-75097664D02*
X97148189Y-75145283D01*
X97148189Y-75145283D02*
X97195808Y-75240521D01*
X97195808Y-75240521D02*
X97195808Y-75383378D01*
X97195808Y-75383378D02*
X97148189Y-75478616D01*
X97148189Y-75478616D02*
X97100570Y-75526235D01*
X97100570Y-75526235D02*
X97005332Y-75573854D01*
X97005332Y-75573854D02*
X96624380Y-75573854D01*
X98148189Y-76050045D02*
X97576761Y-76050045D01*
X97862475Y-76050045D02*
X97862475Y-75050045D01*
X97862475Y-75050045D02*
X97767237Y-75192902D01*
X97767237Y-75192902D02*
X97671999Y-75288140D01*
X97671999Y-75288140D02*
X97576761Y-75335759D01*
X125458617Y-63837355D02*
X125410998Y-63884975D01*
X125410998Y-63884975D02*
X125268141Y-63932594D01*
X125268141Y-63932594D02*
X125172903Y-63932594D01*
X125172903Y-63932594D02*
X125030046Y-63884975D01*
X125030046Y-63884975D02*
X124934808Y-63789736D01*
X124934808Y-63789736D02*
X124887189Y-63694498D01*
X124887189Y-63694498D02*
X124839570Y-63504022D01*
X124839570Y-63504022D02*
X124839570Y-63361165D01*
X124839570Y-63361165D02*
X124887189Y-63170689D01*
X124887189Y-63170689D02*
X124934808Y-63075451D01*
X124934808Y-63075451D02*
X125030046Y-62980213D01*
X125030046Y-62980213D02*
X125172903Y-62932594D01*
X125172903Y-62932594D02*
X125268141Y-62932594D01*
X125268141Y-62932594D02*
X125410998Y-62980213D01*
X125410998Y-62980213D02*
X125458617Y-63027832D01*
X125839570Y-63027832D02*
X125887189Y-62980213D01*
X125887189Y-62980213D02*
X125982427Y-62932594D01*
X125982427Y-62932594D02*
X126220522Y-62932594D01*
X126220522Y-62932594D02*
X126315760Y-62980213D01*
X126315760Y-62980213D02*
X126363379Y-63027832D01*
X126363379Y-63027832D02*
X126410998Y-63123070D01*
X126410998Y-63123070D02*
X126410998Y-63218308D01*
X126410998Y-63218308D02*
X126363379Y-63361165D01*
X126363379Y-63361165D02*
X125791951Y-63932594D01*
X125791951Y-63932594D02*
X126410998Y-63932594D01*
X126744332Y-62932594D02*
X127363379Y-62932594D01*
X127363379Y-62932594D02*
X127030046Y-63313546D01*
X127030046Y-63313546D02*
X127172903Y-63313546D01*
X127172903Y-63313546D02*
X127268141Y-63361165D01*
X127268141Y-63361165D02*
X127315760Y-63408784D01*
X127315760Y-63408784D02*
X127363379Y-63504022D01*
X127363379Y-63504022D02*
X127363379Y-63742117D01*
X127363379Y-63742117D02*
X127315760Y-63837355D01*
X127315760Y-63837355D02*
X127268141Y-63884975D01*
X127268141Y-63884975D02*
X127172903Y-63932594D01*
X127172903Y-63932594D02*
X126887189Y-63932594D01*
X126887189Y-63932594D02*
X126791951Y-63884975D01*
X126791951Y-63884975D02*
X126744332Y-63837355D01*
X128446245Y-94977744D02*
X128446245Y-93977744D01*
X128446245Y-93977744D02*
X128827197Y-93977744D01*
X128827197Y-93977744D02*
X128922435Y-94025363D01*
X128922435Y-94025363D02*
X128970054Y-94072982D01*
X128970054Y-94072982D02*
X129017673Y-94168220D01*
X129017673Y-94168220D02*
X129017673Y-94311077D01*
X129017673Y-94311077D02*
X128970054Y-94406315D01*
X128970054Y-94406315D02*
X128922435Y-94453934D01*
X128922435Y-94453934D02*
X128827197Y-94501553D01*
X128827197Y-94501553D02*
X128446245Y-94501553D01*
X129446245Y-93977744D02*
X129446245Y-94787267D01*
X129446245Y-94787267D02*
X129493864Y-94882505D01*
X129493864Y-94882505D02*
X129541483Y-94930125D01*
X129541483Y-94930125D02*
X129636721Y-94977744D01*
X129636721Y-94977744D02*
X129827197Y-94977744D01*
X129827197Y-94977744D02*
X129922435Y-94930125D01*
X129922435Y-94930125D02*
X129970054Y-94882505D01*
X129970054Y-94882505D02*
X130017673Y-94787267D01*
X130017673Y-94787267D02*
X130017673Y-93977744D01*
X130922435Y-93977744D02*
X130731959Y-93977744D01*
X130731959Y-93977744D02*
X130636721Y-94025363D01*
X130636721Y-94025363D02*
X130589102Y-94072982D01*
X130589102Y-94072982D02*
X130493864Y-94215839D01*
X130493864Y-94215839D02*
X130446245Y-94406315D01*
X130446245Y-94406315D02*
X130446245Y-94787267D01*
X130446245Y-94787267D02*
X130493864Y-94882505D01*
X130493864Y-94882505D02*
X130541483Y-94930125D01*
X130541483Y-94930125D02*
X130636721Y-94977744D01*
X130636721Y-94977744D02*
X130827197Y-94977744D01*
X130827197Y-94977744D02*
X130922435Y-94930125D01*
X130922435Y-94930125D02*
X130970054Y-94882505D01*
X130970054Y-94882505D02*
X131017673Y-94787267D01*
X131017673Y-94787267D02*
X131017673Y-94549172D01*
X131017673Y-94549172D02*
X130970054Y-94453934D01*
X130970054Y-94453934D02*
X130922435Y-94406315D01*
X130922435Y-94406315D02*
X130827197Y-94358696D01*
X130827197Y-94358696D02*
X130636721Y-94358696D01*
X130636721Y-94358696D02*
X130541483Y-94406315D01*
X130541483Y-94406315D02*
X130493864Y-94453934D01*
X130493864Y-94453934D02*
X130446245Y-94549172D01*
D11*
X141810645Y-95421093D02*
X141387311Y-94816331D01*
X141084930Y-95421093D02*
X141084930Y-94151093D01*
X141084930Y-94151093D02*
X141568740Y-94151093D01*
X141568740Y-94151093D02*
X141689692Y-94211569D01*
X141689692Y-94211569D02*
X141750169Y-94272045D01*
X141750169Y-94272045D02*
X141810645Y-94392997D01*
X141810645Y-94392997D02*
X141810645Y-94574426D01*
X141810645Y-94574426D02*
X141750169Y-94695378D01*
X141750169Y-94695378D02*
X141689692Y-94755855D01*
X141689692Y-94755855D02*
X141568740Y-94816331D01*
X141568740Y-94816331D02*
X141084930Y-94816331D01*
X142354930Y-95421093D02*
X142354930Y-94151093D01*
X142354930Y-94151093D02*
X143080645Y-95421093D01*
X143080645Y-95421093D02*
X143080645Y-94151093D01*
X144229692Y-94151093D02*
X143987787Y-94151093D01*
X143987787Y-94151093D02*
X143866835Y-94211569D01*
X143866835Y-94211569D02*
X143806359Y-94272045D01*
X143806359Y-94272045D02*
X143685406Y-94453474D01*
X143685406Y-94453474D02*
X143624930Y-94695378D01*
X143624930Y-94695378D02*
X143624930Y-95179188D01*
X143624930Y-95179188D02*
X143685406Y-95300140D01*
X143685406Y-95300140D02*
X143745883Y-95360617D01*
X143745883Y-95360617D02*
X143866835Y-95421093D01*
X143866835Y-95421093D02*
X144108740Y-95421093D01*
X144108740Y-95421093D02*
X144229692Y-95360617D01*
X144229692Y-95360617D02*
X144290168Y-95300140D01*
X144290168Y-95300140D02*
X144350645Y-95179188D01*
X144350645Y-95179188D02*
X144350645Y-94876807D01*
X144350645Y-94876807D02*
X144290168Y-94755855D01*
X144290168Y-94755855D02*
X144229692Y-94695378D01*
X144229692Y-94695378D02*
X144108740Y-94634902D01*
X144108740Y-94634902D02*
X143866835Y-94634902D01*
X143866835Y-94634902D02*
X143745883Y-94695378D01*
X143745883Y-94695378D02*
X143685406Y-94755855D01*
X143685406Y-94755855D02*
X143624930Y-94876807D01*
D10*
X184972933Y-86467419D02*
X184639600Y-85991228D01*
X184401505Y-86467419D02*
X184401505Y-85467419D01*
X184401505Y-85467419D02*
X184782457Y-85467419D01*
X184782457Y-85467419D02*
X184877695Y-85515038D01*
X184877695Y-85515038D02*
X184925314Y-85562657D01*
X184925314Y-85562657D02*
X184972933Y-85657895D01*
X184972933Y-85657895D02*
X184972933Y-85800752D01*
X184972933Y-85800752D02*
X184925314Y-85895990D01*
X184925314Y-85895990D02*
X184877695Y-85943609D01*
X184877695Y-85943609D02*
X184782457Y-85991228D01*
X184782457Y-85991228D02*
X184401505Y-85991228D01*
X185353886Y-85562657D02*
X185401505Y-85515038D01*
X185401505Y-85515038D02*
X185496743Y-85467419D01*
X185496743Y-85467419D02*
X185734838Y-85467419D01*
X185734838Y-85467419D02*
X185830076Y-85515038D01*
X185830076Y-85515038D02*
X185877695Y-85562657D01*
X185877695Y-85562657D02*
X185925314Y-85657895D01*
X185925314Y-85657895D02*
X185925314Y-85753133D01*
X185925314Y-85753133D02*
X185877695Y-85895990D01*
X185877695Y-85895990D02*
X185306267Y-86467419D01*
X185306267Y-86467419D02*
X185925314Y-86467419D01*
X163591033Y-90888355D02*
X163543414Y-90935975D01*
X163543414Y-90935975D02*
X163400557Y-90983594D01*
X163400557Y-90983594D02*
X163305319Y-90983594D01*
X163305319Y-90983594D02*
X163162462Y-90935975D01*
X163162462Y-90935975D02*
X163067224Y-90840736D01*
X163067224Y-90840736D02*
X163019605Y-90745498D01*
X163019605Y-90745498D02*
X162971986Y-90555022D01*
X162971986Y-90555022D02*
X162971986Y-90412165D01*
X162971986Y-90412165D02*
X163019605Y-90221689D01*
X163019605Y-90221689D02*
X163067224Y-90126451D01*
X163067224Y-90126451D02*
X163162462Y-90031213D01*
X163162462Y-90031213D02*
X163305319Y-89983594D01*
X163305319Y-89983594D02*
X163400557Y-89983594D01*
X163400557Y-89983594D02*
X163543414Y-90031213D01*
X163543414Y-90031213D02*
X163591033Y-90078832D01*
X164162462Y-90412165D02*
X164067224Y-90364546D01*
X164067224Y-90364546D02*
X164019605Y-90316927D01*
X164019605Y-90316927D02*
X163971986Y-90221689D01*
X163971986Y-90221689D02*
X163971986Y-90174070D01*
X163971986Y-90174070D02*
X164019605Y-90078832D01*
X164019605Y-90078832D02*
X164067224Y-90031213D01*
X164067224Y-90031213D02*
X164162462Y-89983594D01*
X164162462Y-89983594D02*
X164352938Y-89983594D01*
X164352938Y-89983594D02*
X164448176Y-90031213D01*
X164448176Y-90031213D02*
X164495795Y-90078832D01*
X164495795Y-90078832D02*
X164543414Y-90174070D01*
X164543414Y-90174070D02*
X164543414Y-90221689D01*
X164543414Y-90221689D02*
X164495795Y-90316927D01*
X164495795Y-90316927D02*
X164448176Y-90364546D01*
X164448176Y-90364546D02*
X164352938Y-90412165D01*
X164352938Y-90412165D02*
X164162462Y-90412165D01*
X164162462Y-90412165D02*
X164067224Y-90459784D01*
X164067224Y-90459784D02*
X164019605Y-90507403D01*
X164019605Y-90507403D02*
X163971986Y-90602641D01*
X163971986Y-90602641D02*
X163971986Y-90793117D01*
X163971986Y-90793117D02*
X164019605Y-90888355D01*
X164019605Y-90888355D02*
X164067224Y-90935975D01*
X164067224Y-90935975D02*
X164162462Y-90983594D01*
X164162462Y-90983594D02*
X164352938Y-90983594D01*
X164352938Y-90983594D02*
X164448176Y-90935975D01*
X164448176Y-90935975D02*
X164495795Y-90888355D01*
X164495795Y-90888355D02*
X164543414Y-90793117D01*
X164543414Y-90793117D02*
X164543414Y-90602641D01*
X164543414Y-90602641D02*
X164495795Y-90507403D01*
X164495795Y-90507403D02*
X164448176Y-90459784D01*
X164448176Y-90459784D02*
X164352938Y-90412165D01*
X147054967Y-65897919D02*
X146721634Y-65421728D01*
X146483539Y-65897919D02*
X146483539Y-64897919D01*
X146483539Y-64897919D02*
X146864491Y-64897919D01*
X146864491Y-64897919D02*
X146959729Y-64945538D01*
X146959729Y-64945538D02*
X147007348Y-64993157D01*
X147007348Y-64993157D02*
X147054967Y-65088395D01*
X147054967Y-65088395D02*
X147054967Y-65231252D01*
X147054967Y-65231252D02*
X147007348Y-65326490D01*
X147007348Y-65326490D02*
X146959729Y-65374109D01*
X146959729Y-65374109D02*
X146864491Y-65421728D01*
X146864491Y-65421728D02*
X146483539Y-65421728D01*
X148007348Y-65897919D02*
X147435920Y-65897919D01*
X147721634Y-65897919D02*
X147721634Y-64897919D01*
X147721634Y-64897919D02*
X147626396Y-65040776D01*
X147626396Y-65040776D02*
X147531158Y-65136014D01*
X147531158Y-65136014D02*
X147435920Y-65183633D01*
X148626396Y-64897919D02*
X148721634Y-64897919D01*
X148721634Y-64897919D02*
X148816872Y-64945538D01*
X148816872Y-64945538D02*
X148864491Y-64993157D01*
X148864491Y-64993157D02*
X148912110Y-65088395D01*
X148912110Y-65088395D02*
X148959729Y-65278871D01*
X148959729Y-65278871D02*
X148959729Y-65516966D01*
X148959729Y-65516966D02*
X148912110Y-65707442D01*
X148912110Y-65707442D02*
X148864491Y-65802680D01*
X148864491Y-65802680D02*
X148816872Y-65850300D01*
X148816872Y-65850300D02*
X148721634Y-65897919D01*
X148721634Y-65897919D02*
X148626396Y-65897919D01*
X148626396Y-65897919D02*
X148531158Y-65850300D01*
X148531158Y-65850300D02*
X148483539Y-65802680D01*
X148483539Y-65802680D02*
X148435920Y-65707442D01*
X148435920Y-65707442D02*
X148388301Y-65516966D01*
X148388301Y-65516966D02*
X148388301Y-65278871D01*
X148388301Y-65278871D02*
X148435920Y-65088395D01*
X148435920Y-65088395D02*
X148483539Y-64993157D01*
X148483539Y-64993157D02*
X148531158Y-64945538D01*
X148531158Y-64945538D02*
X148626396Y-64897919D01*
X153136659Y-64308403D02*
X153136659Y-64784594D01*
X152803326Y-63784594D02*
X153136659Y-64308403D01*
X153136659Y-64308403D02*
X153469992Y-63784594D01*
X154327135Y-64784594D02*
X153755707Y-64784594D01*
X154041421Y-64784594D02*
X154041421Y-63784594D01*
X154041421Y-63784594D02*
X153946183Y-63927451D01*
X153946183Y-63927451D02*
X153850945Y-64022689D01*
X153850945Y-64022689D02*
X153755707Y-64070308D01*
X109721691Y-66629644D02*
X109721691Y-67343929D01*
X109721691Y-67343929D02*
X109674072Y-67486786D01*
X109674072Y-67486786D02*
X109578834Y-67582025D01*
X109578834Y-67582025D02*
X109435977Y-67629644D01*
X109435977Y-67629644D02*
X109340739Y-67629644D01*
X110626453Y-66962977D02*
X110626453Y-67629644D01*
X110388358Y-66582025D02*
X110150263Y-67296310D01*
X110150263Y-67296310D02*
X110769310Y-67296310D01*
D11*
X135417680Y-58029118D02*
X135417680Y-59057213D01*
X135417680Y-59057213D02*
X135478157Y-59178165D01*
X135478157Y-59178165D02*
X135538633Y-59238642D01*
X135538633Y-59238642D02*
X135659585Y-59299118D01*
X135659585Y-59299118D02*
X135901490Y-59299118D01*
X135901490Y-59299118D02*
X136022442Y-59238642D01*
X136022442Y-59238642D02*
X136082919Y-59178165D01*
X136082919Y-59178165D02*
X136143395Y-59057213D01*
X136143395Y-59057213D02*
X136143395Y-58029118D01*
X137292442Y-58452451D02*
X137292442Y-59299118D01*
X136990061Y-57968642D02*
X136687680Y-58875784D01*
X136687680Y-58875784D02*
X137473871Y-58875784D01*
D10*
X128408330Y-100740369D02*
X128408330Y-99740369D01*
X128408330Y-99740369D02*
X128789282Y-99740369D01*
X128789282Y-99740369D02*
X128884520Y-99787988D01*
X128884520Y-99787988D02*
X128932139Y-99835607D01*
X128932139Y-99835607D02*
X128979758Y-99930845D01*
X128979758Y-99930845D02*
X128979758Y-100073702D01*
X128979758Y-100073702D02*
X128932139Y-100168940D01*
X128932139Y-100168940D02*
X128884520Y-100216559D01*
X128884520Y-100216559D02*
X128789282Y-100264178D01*
X128789282Y-100264178D02*
X128408330Y-100264178D01*
X129408330Y-99740369D02*
X129408330Y-100549892D01*
X129408330Y-100549892D02*
X129455949Y-100645130D01*
X129455949Y-100645130D02*
X129503568Y-100692750D01*
X129503568Y-100692750D02*
X129598806Y-100740369D01*
X129598806Y-100740369D02*
X129789282Y-100740369D01*
X129789282Y-100740369D02*
X129884520Y-100692750D01*
X129884520Y-100692750D02*
X129932139Y-100645130D01*
X129932139Y-100645130D02*
X129979758Y-100549892D01*
X129979758Y-100549892D02*
X129979758Y-99740369D01*
X130979758Y-100740369D02*
X130408330Y-100740369D01*
X130694044Y-100740369D02*
X130694044Y-99740369D01*
X130694044Y-99740369D02*
X130598806Y-99883226D01*
X130598806Y-99883226D02*
X130503568Y-99978464D01*
X130503568Y-99978464D02*
X130408330Y-100026083D01*
X131598806Y-99740369D02*
X131694044Y-99740369D01*
X131694044Y-99740369D02*
X131789282Y-99787988D01*
X131789282Y-99787988D02*
X131836901Y-99835607D01*
X131836901Y-99835607D02*
X131884520Y-99930845D01*
X131884520Y-99930845D02*
X131932139Y-100121321D01*
X131932139Y-100121321D02*
X131932139Y-100359416D01*
X131932139Y-100359416D02*
X131884520Y-100549892D01*
X131884520Y-100549892D02*
X131836901Y-100645130D01*
X131836901Y-100645130D02*
X131789282Y-100692750D01*
X131789282Y-100692750D02*
X131694044Y-100740369D01*
X131694044Y-100740369D02*
X131598806Y-100740369D01*
X131598806Y-100740369D02*
X131503568Y-100692750D01*
X131503568Y-100692750D02*
X131455949Y-100645130D01*
X131455949Y-100645130D02*
X131408330Y-100549892D01*
X131408330Y-100549892D02*
X131360711Y-100359416D01*
X131360711Y-100359416D02*
X131360711Y-100121321D01*
X131360711Y-100121321D02*
X131408330Y-99930845D01*
X131408330Y-99930845D02*
X131455949Y-99835607D01*
X131455949Y-99835607D02*
X131503568Y-99787988D01*
X131503568Y-99787988D02*
X131598806Y-99740369D01*
X119559533Y-75861069D02*
X119226200Y-75384878D01*
X118988105Y-75861069D02*
X118988105Y-74861069D01*
X118988105Y-74861069D02*
X119369057Y-74861069D01*
X119369057Y-74861069D02*
X119464295Y-74908688D01*
X119464295Y-74908688D02*
X119511914Y-74956307D01*
X119511914Y-74956307D02*
X119559533Y-75051545D01*
X119559533Y-75051545D02*
X119559533Y-75194402D01*
X119559533Y-75194402D02*
X119511914Y-75289640D01*
X119511914Y-75289640D02*
X119464295Y-75337259D01*
X119464295Y-75337259D02*
X119369057Y-75384878D01*
X119369057Y-75384878D02*
X118988105Y-75384878D01*
X119988105Y-75861069D02*
X119988105Y-74861069D01*
X119988105Y-74861069D02*
X120559533Y-75861069D01*
X120559533Y-75861069D02*
X120559533Y-74861069D01*
X121559533Y-75861069D02*
X120988105Y-75861069D01*
X121273819Y-75861069D02*
X121273819Y-74861069D01*
X121273819Y-74861069D02*
X121178581Y-75003926D01*
X121178581Y-75003926D02*
X121083343Y-75099164D01*
X121083343Y-75099164D02*
X120988105Y-75146783D01*
X121892867Y-74861069D02*
X122511914Y-74861069D01*
X122511914Y-74861069D02*
X122178581Y-75242021D01*
X122178581Y-75242021D02*
X122321438Y-75242021D01*
X122321438Y-75242021D02*
X122416676Y-75289640D01*
X122416676Y-75289640D02*
X122464295Y-75337259D01*
X122464295Y-75337259D02*
X122511914Y-75432497D01*
X122511914Y-75432497D02*
X122511914Y-75670592D01*
X122511914Y-75670592D02*
X122464295Y-75765830D01*
X122464295Y-75765830D02*
X122416676Y-75813450D01*
X122416676Y-75813450D02*
X122321438Y-75861069D01*
X122321438Y-75861069D02*
X122035724Y-75861069D01*
X122035724Y-75861069D02*
X121940486Y-75813450D01*
X121940486Y-75813450D02*
X121892867Y-75765830D01*
D11*
X129269822Y-72450270D02*
X129148870Y-72389794D01*
X129148870Y-72389794D02*
X129027917Y-72268842D01*
X129027917Y-72268842D02*
X128846489Y-72087413D01*
X128846489Y-72087413D02*
X128725536Y-72026937D01*
X128725536Y-72026937D02*
X128604584Y-72026937D01*
X128665060Y-72329318D02*
X128544108Y-72268842D01*
X128544108Y-72268842D02*
X128423155Y-72147889D01*
X128423155Y-72147889D02*
X128362679Y-71905984D01*
X128362679Y-71905984D02*
X128362679Y-71482651D01*
X128362679Y-71482651D02*
X128423155Y-71240746D01*
X128423155Y-71240746D02*
X128544108Y-71119794D01*
X128544108Y-71119794D02*
X128665060Y-71059318D01*
X128665060Y-71059318D02*
X128906965Y-71059318D01*
X128906965Y-71059318D02*
X129027917Y-71119794D01*
X129027917Y-71119794D02*
X129148870Y-71240746D01*
X129148870Y-71240746D02*
X129209346Y-71482651D01*
X129209346Y-71482651D02*
X129209346Y-71905984D01*
X129209346Y-71905984D02*
X129148870Y-72147889D01*
X129148870Y-72147889D02*
X129027917Y-72268842D01*
X129027917Y-72268842D02*
X128906965Y-72329318D01*
X128906965Y-72329318D02*
X128665060Y-72329318D01*
X130418870Y-72329318D02*
X129693155Y-72329318D01*
X130056012Y-72329318D02*
X130056012Y-71059318D01*
X130056012Y-71059318D02*
X129935060Y-71240746D01*
X129935060Y-71240746D02*
X129814108Y-71361699D01*
X129814108Y-71361699D02*
X129693155Y-71422175D01*
D10*
X193070183Y-69892069D02*
X192593993Y-69892069D01*
X192593993Y-69892069D02*
X192593993Y-68892069D01*
X193832088Y-69225402D02*
X193832088Y-69892069D01*
X193593993Y-68844450D02*
X193355898Y-69558735D01*
X193355898Y-69558735D02*
X193974945Y-69558735D01*
X113752530Y-84436744D02*
X113752530Y-83436744D01*
X113752530Y-83436744D02*
X114133482Y-83436744D01*
X114133482Y-83436744D02*
X114228720Y-83484363D01*
X114228720Y-83484363D02*
X114276339Y-83531982D01*
X114276339Y-83531982D02*
X114323958Y-83627220D01*
X114323958Y-83627220D02*
X114323958Y-83770077D01*
X114323958Y-83770077D02*
X114276339Y-83865315D01*
X114276339Y-83865315D02*
X114228720Y-83912934D01*
X114228720Y-83912934D02*
X114133482Y-83960553D01*
X114133482Y-83960553D02*
X113752530Y-83960553D01*
X114752530Y-83436744D02*
X114752530Y-84246267D01*
X114752530Y-84246267D02*
X114800149Y-84341505D01*
X114800149Y-84341505D02*
X114847768Y-84389125D01*
X114847768Y-84389125D02*
X114943006Y-84436744D01*
X114943006Y-84436744D02*
X115133482Y-84436744D01*
X115133482Y-84436744D02*
X115228720Y-84389125D01*
X115228720Y-84389125D02*
X115276339Y-84341505D01*
X115276339Y-84341505D02*
X115323958Y-84246267D01*
X115323958Y-84246267D02*
X115323958Y-83436744D01*
X116323958Y-84436744D02*
X115752530Y-84436744D01*
X116038244Y-84436744D02*
X116038244Y-83436744D01*
X116038244Y-83436744D02*
X115943006Y-83579601D01*
X115943006Y-83579601D02*
X115847768Y-83674839D01*
X115847768Y-83674839D02*
X115752530Y-83722458D01*
X117181101Y-83770077D02*
X117181101Y-84436744D01*
X116943006Y-83389125D02*
X116704911Y-84103410D01*
X116704911Y-84103410D02*
X117323958Y-84103410D01*
X142090870Y-80537969D02*
X142090870Y-81347492D01*
X142090870Y-81347492D02*
X142138489Y-81442730D01*
X142138489Y-81442730D02*
X142186108Y-81490350D01*
X142186108Y-81490350D02*
X142281346Y-81537969D01*
X142281346Y-81537969D02*
X142471822Y-81537969D01*
X142471822Y-81537969D02*
X142567060Y-81490350D01*
X142567060Y-81490350D02*
X142614679Y-81442730D01*
X142614679Y-81442730D02*
X142662298Y-81347492D01*
X142662298Y-81347492D02*
X142662298Y-80537969D01*
X143662298Y-81537969D02*
X143090870Y-81537969D01*
X143376584Y-81537969D02*
X143376584Y-80537969D01*
X143376584Y-80537969D02*
X143281346Y-80680826D01*
X143281346Y-80680826D02*
X143186108Y-80776064D01*
X143186108Y-80776064D02*
X143090870Y-80823683D01*
X185215108Y-83611244D02*
X184881775Y-83135053D01*
X184643680Y-83611244D02*
X184643680Y-82611244D01*
X184643680Y-82611244D02*
X185024632Y-82611244D01*
X185024632Y-82611244D02*
X185119870Y-82658863D01*
X185119870Y-82658863D02*
X185167489Y-82706482D01*
X185167489Y-82706482D02*
X185215108Y-82801720D01*
X185215108Y-82801720D02*
X185215108Y-82944577D01*
X185215108Y-82944577D02*
X185167489Y-83039815D01*
X185167489Y-83039815D02*
X185119870Y-83087434D01*
X185119870Y-83087434D02*
X185024632Y-83135053D01*
X185024632Y-83135053D02*
X184643680Y-83135053D01*
X186167489Y-83611244D02*
X185596061Y-83611244D01*
X185881775Y-83611244D02*
X185881775Y-82611244D01*
X185881775Y-82611244D02*
X185786537Y-82754101D01*
X185786537Y-82754101D02*
X185691299Y-82849339D01*
X185691299Y-82849339D02*
X185596061Y-82896958D01*
X187364767Y-69996844D02*
X187031434Y-69520653D01*
X186793339Y-69996844D02*
X186793339Y-68996844D01*
X186793339Y-68996844D02*
X187174291Y-68996844D01*
X187174291Y-68996844D02*
X187269529Y-69044463D01*
X187269529Y-69044463D02*
X187317148Y-69092082D01*
X187317148Y-69092082D02*
X187364767Y-69187320D01*
X187364767Y-69187320D02*
X187364767Y-69330177D01*
X187364767Y-69330177D02*
X187317148Y-69425415D01*
X187317148Y-69425415D02*
X187269529Y-69473034D01*
X187269529Y-69473034D02*
X187174291Y-69520653D01*
X187174291Y-69520653D02*
X186793339Y-69520653D01*
X187745720Y-69092082D02*
X187793339Y-69044463D01*
X187793339Y-69044463D02*
X187888577Y-68996844D01*
X187888577Y-68996844D02*
X188126672Y-68996844D01*
X188126672Y-68996844D02*
X188221910Y-69044463D01*
X188221910Y-69044463D02*
X188269529Y-69092082D01*
X188269529Y-69092082D02*
X188317148Y-69187320D01*
X188317148Y-69187320D02*
X188317148Y-69282558D01*
X188317148Y-69282558D02*
X188269529Y-69425415D01*
X188269529Y-69425415D02*
X187698101Y-69996844D01*
X187698101Y-69996844D02*
X188317148Y-69996844D01*
X189269529Y-69996844D02*
X188698101Y-69996844D01*
X188983815Y-69996844D02*
X188983815Y-68996844D01*
X188983815Y-68996844D02*
X188888577Y-69139701D01*
X188888577Y-69139701D02*
X188793339Y-69234939D01*
X188793339Y-69234939D02*
X188698101Y-69282558D01*
X154443133Y-84487555D02*
X154395514Y-84535175D01*
X154395514Y-84535175D02*
X154252657Y-84582794D01*
X154252657Y-84582794D02*
X154157419Y-84582794D01*
X154157419Y-84582794D02*
X154014562Y-84535175D01*
X154014562Y-84535175D02*
X153919324Y-84439936D01*
X153919324Y-84439936D02*
X153871705Y-84344698D01*
X153871705Y-84344698D02*
X153824086Y-84154222D01*
X153824086Y-84154222D02*
X153824086Y-84011365D01*
X153824086Y-84011365D02*
X153871705Y-83820889D01*
X153871705Y-83820889D02*
X153919324Y-83725651D01*
X153919324Y-83725651D02*
X154014562Y-83630413D01*
X154014562Y-83630413D02*
X154157419Y-83582794D01*
X154157419Y-83582794D02*
X154252657Y-83582794D01*
X154252657Y-83582794D02*
X154395514Y-83630413D01*
X154395514Y-83630413D02*
X154443133Y-83678032D01*
X154919324Y-84582794D02*
X155109800Y-84582794D01*
X155109800Y-84582794D02*
X155205038Y-84535175D01*
X155205038Y-84535175D02*
X155252657Y-84487555D01*
X155252657Y-84487555D02*
X155347895Y-84344698D01*
X155347895Y-84344698D02*
X155395514Y-84154222D01*
X155395514Y-84154222D02*
X155395514Y-83773270D01*
X155395514Y-83773270D02*
X155347895Y-83678032D01*
X155347895Y-83678032D02*
X155300276Y-83630413D01*
X155300276Y-83630413D02*
X155205038Y-83582794D01*
X155205038Y-83582794D02*
X155014562Y-83582794D01*
X155014562Y-83582794D02*
X154919324Y-83630413D01*
X154919324Y-83630413D02*
X154871705Y-83678032D01*
X154871705Y-83678032D02*
X154824086Y-83773270D01*
X154824086Y-83773270D02*
X154824086Y-84011365D01*
X154824086Y-84011365D02*
X154871705Y-84106603D01*
X154871705Y-84106603D02*
X154919324Y-84154222D01*
X154919324Y-84154222D02*
X155014562Y-84201841D01*
X155014562Y-84201841D02*
X155205038Y-84201841D01*
X155205038Y-84201841D02*
X155300276Y-84154222D01*
X155300276Y-84154222D02*
X155347895Y-84106603D01*
X155347895Y-84106603D02*
X155395514Y-84011365D01*
X128585945Y-91777344D02*
X128585945Y-90777344D01*
X128585945Y-90777344D02*
X128966897Y-90777344D01*
X128966897Y-90777344D02*
X129062135Y-90824963D01*
X129062135Y-90824963D02*
X129109754Y-90872582D01*
X129109754Y-90872582D02*
X129157373Y-90967820D01*
X129157373Y-90967820D02*
X129157373Y-91110677D01*
X129157373Y-91110677D02*
X129109754Y-91205915D01*
X129109754Y-91205915D02*
X129062135Y-91253534D01*
X129062135Y-91253534D02*
X128966897Y-91301153D01*
X128966897Y-91301153D02*
X128585945Y-91301153D01*
X129585945Y-90777344D02*
X129585945Y-91586867D01*
X129585945Y-91586867D02*
X129633564Y-91682105D01*
X129633564Y-91682105D02*
X129681183Y-91729725D01*
X129681183Y-91729725D02*
X129776421Y-91777344D01*
X129776421Y-91777344D02*
X129966897Y-91777344D01*
X129966897Y-91777344D02*
X130062135Y-91729725D01*
X130062135Y-91729725D02*
X130109754Y-91682105D01*
X130109754Y-91682105D02*
X130157373Y-91586867D01*
X130157373Y-91586867D02*
X130157373Y-90777344D01*
X131062135Y-91110677D02*
X131062135Y-91777344D01*
X130824040Y-90729725D02*
X130585945Y-91444010D01*
X130585945Y-91444010D02*
X131204992Y-91444010D01*
X180843258Y-70412780D02*
X180795639Y-70460400D01*
X180795639Y-70460400D02*
X180652782Y-70508019D01*
X180652782Y-70508019D02*
X180557544Y-70508019D01*
X180557544Y-70508019D02*
X180414687Y-70460400D01*
X180414687Y-70460400D02*
X180319449Y-70365161D01*
X180319449Y-70365161D02*
X180271830Y-70269923D01*
X180271830Y-70269923D02*
X180224211Y-70079447D01*
X180224211Y-70079447D02*
X180224211Y-69936590D01*
X180224211Y-69936590D02*
X180271830Y-69746114D01*
X180271830Y-69746114D02*
X180319449Y-69650876D01*
X180319449Y-69650876D02*
X180414687Y-69555638D01*
X180414687Y-69555638D02*
X180557544Y-69508019D01*
X180557544Y-69508019D02*
X180652782Y-69508019D01*
X180652782Y-69508019D02*
X180795639Y-69555638D01*
X180795639Y-69555638D02*
X180843258Y-69603257D01*
X181176592Y-69508019D02*
X181843258Y-69508019D01*
X181843258Y-69508019D02*
X181414687Y-70508019D01*
X129014617Y-67904530D02*
X128966998Y-67952150D01*
X128966998Y-67952150D02*
X128824141Y-67999769D01*
X128824141Y-67999769D02*
X128728903Y-67999769D01*
X128728903Y-67999769D02*
X128586046Y-67952150D01*
X128586046Y-67952150D02*
X128490808Y-67856911D01*
X128490808Y-67856911D02*
X128443189Y-67761673D01*
X128443189Y-67761673D02*
X128395570Y-67571197D01*
X128395570Y-67571197D02*
X128395570Y-67428340D01*
X128395570Y-67428340D02*
X128443189Y-67237864D01*
X128443189Y-67237864D02*
X128490808Y-67142626D01*
X128490808Y-67142626D02*
X128586046Y-67047388D01*
X128586046Y-67047388D02*
X128728903Y-66999769D01*
X128728903Y-66999769D02*
X128824141Y-66999769D01*
X128824141Y-66999769D02*
X128966998Y-67047388D01*
X128966998Y-67047388D02*
X129014617Y-67095007D01*
X129966998Y-67999769D02*
X129395570Y-67999769D01*
X129681284Y-67999769D02*
X129681284Y-66999769D01*
X129681284Y-66999769D02*
X129586046Y-67142626D01*
X129586046Y-67142626D02*
X129490808Y-67237864D01*
X129490808Y-67237864D02*
X129395570Y-67285483D01*
X130443189Y-67999769D02*
X130633665Y-67999769D01*
X130633665Y-67999769D02*
X130728903Y-67952150D01*
X130728903Y-67952150D02*
X130776522Y-67904530D01*
X130776522Y-67904530D02*
X130871760Y-67761673D01*
X130871760Y-67761673D02*
X130919379Y-67571197D01*
X130919379Y-67571197D02*
X130919379Y-67190245D01*
X130919379Y-67190245D02*
X130871760Y-67095007D01*
X130871760Y-67095007D02*
X130824141Y-67047388D01*
X130824141Y-67047388D02*
X130728903Y-66999769D01*
X130728903Y-66999769D02*
X130538427Y-66999769D01*
X130538427Y-66999769D02*
X130443189Y-67047388D01*
X130443189Y-67047388D02*
X130395570Y-67095007D01*
X130395570Y-67095007D02*
X130347951Y-67190245D01*
X130347951Y-67190245D02*
X130347951Y-67428340D01*
X130347951Y-67428340D02*
X130395570Y-67523578D01*
X130395570Y-67523578D02*
X130443189Y-67571197D01*
X130443189Y-67571197D02*
X130538427Y-67618816D01*
X130538427Y-67618816D02*
X130728903Y-67618816D01*
X130728903Y-67618816D02*
X130824141Y-67571197D01*
X130824141Y-67571197D02*
X130871760Y-67523578D01*
X130871760Y-67523578D02*
X130919379Y-67428340D01*
X114793870Y-81687194D02*
X114793870Y-80687194D01*
X114793870Y-80687194D02*
X115174822Y-80687194D01*
X115174822Y-80687194D02*
X115270060Y-80734813D01*
X115270060Y-80734813D02*
X115317679Y-80782432D01*
X115317679Y-80782432D02*
X115365298Y-80877670D01*
X115365298Y-80877670D02*
X115365298Y-81020527D01*
X115365298Y-81020527D02*
X115317679Y-81115765D01*
X115317679Y-81115765D02*
X115270060Y-81163384D01*
X115270060Y-81163384D02*
X115174822Y-81211003D01*
X115174822Y-81211003D02*
X114793870Y-81211003D01*
X115793870Y-80687194D02*
X115793870Y-81496717D01*
X115793870Y-81496717D02*
X115841489Y-81591955D01*
X115841489Y-81591955D02*
X115889108Y-81639575D01*
X115889108Y-81639575D02*
X115984346Y-81687194D01*
X115984346Y-81687194D02*
X116174822Y-81687194D01*
X116174822Y-81687194D02*
X116270060Y-81639575D01*
X116270060Y-81639575D02*
X116317679Y-81591955D01*
X116317679Y-81591955D02*
X116365298Y-81496717D01*
X116365298Y-81496717D02*
X116365298Y-80687194D01*
X116746251Y-80687194D02*
X117365298Y-80687194D01*
X117365298Y-80687194D02*
X117031965Y-81068146D01*
X117031965Y-81068146D02*
X117174822Y-81068146D01*
X117174822Y-81068146D02*
X117270060Y-81115765D01*
X117270060Y-81115765D02*
X117317679Y-81163384D01*
X117317679Y-81163384D02*
X117365298Y-81258622D01*
X117365298Y-81258622D02*
X117365298Y-81496717D01*
X117365298Y-81496717D02*
X117317679Y-81591955D01*
X117317679Y-81591955D02*
X117270060Y-81639575D01*
X117270060Y-81639575D02*
X117174822Y-81687194D01*
X117174822Y-81687194D02*
X116889108Y-81687194D01*
X116889108Y-81687194D02*
X116793870Y-81639575D01*
X116793870Y-81639575D02*
X116746251Y-81591955D01*
X115203445Y-94707869D02*
X115203445Y-93707869D01*
X115203445Y-93707869D02*
X115584397Y-93707869D01*
X115584397Y-93707869D02*
X115679635Y-93755488D01*
X115679635Y-93755488D02*
X115727254Y-93803107D01*
X115727254Y-93803107D02*
X115774873Y-93898345D01*
X115774873Y-93898345D02*
X115774873Y-94041202D01*
X115774873Y-94041202D02*
X115727254Y-94136440D01*
X115727254Y-94136440D02*
X115679635Y-94184059D01*
X115679635Y-94184059D02*
X115584397Y-94231678D01*
X115584397Y-94231678D02*
X115203445Y-94231678D01*
X116203445Y-93707869D02*
X116203445Y-94517392D01*
X116203445Y-94517392D02*
X116251064Y-94612630D01*
X116251064Y-94612630D02*
X116298683Y-94660250D01*
X116298683Y-94660250D02*
X116393921Y-94707869D01*
X116393921Y-94707869D02*
X116584397Y-94707869D01*
X116584397Y-94707869D02*
X116679635Y-94660250D01*
X116679635Y-94660250D02*
X116727254Y-94612630D01*
X116727254Y-94612630D02*
X116774873Y-94517392D01*
X116774873Y-94517392D02*
X116774873Y-93707869D01*
X117155826Y-93707869D02*
X117822492Y-93707869D01*
X117822492Y-93707869D02*
X117393921Y-94707869D01*
X179881292Y-85605155D02*
X179833673Y-85652775D01*
X179833673Y-85652775D02*
X179690816Y-85700394D01*
X179690816Y-85700394D02*
X179595578Y-85700394D01*
X179595578Y-85700394D02*
X179452721Y-85652775D01*
X179452721Y-85652775D02*
X179357483Y-85557536D01*
X179357483Y-85557536D02*
X179309864Y-85462298D01*
X179309864Y-85462298D02*
X179262245Y-85271822D01*
X179262245Y-85271822D02*
X179262245Y-85128965D01*
X179262245Y-85128965D02*
X179309864Y-84938489D01*
X179309864Y-84938489D02*
X179357483Y-84843251D01*
X179357483Y-84843251D02*
X179452721Y-84748013D01*
X179452721Y-84748013D02*
X179595578Y-84700394D01*
X179595578Y-84700394D02*
X179690816Y-84700394D01*
X179690816Y-84700394D02*
X179833673Y-84748013D01*
X179833673Y-84748013D02*
X179881292Y-84795632D01*
X180833673Y-85700394D02*
X180262245Y-85700394D01*
X180547959Y-85700394D02*
X180547959Y-84700394D01*
X180547959Y-84700394D02*
X180452721Y-84843251D01*
X180452721Y-84843251D02*
X180357483Y-84938489D01*
X180357483Y-84938489D02*
X180262245Y-84986108D01*
X181690816Y-84700394D02*
X181500340Y-84700394D01*
X181500340Y-84700394D02*
X181405102Y-84748013D01*
X181405102Y-84748013D02*
X181357483Y-84795632D01*
X181357483Y-84795632D02*
X181262245Y-84938489D01*
X181262245Y-84938489D02*
X181214626Y-85128965D01*
X181214626Y-85128965D02*
X181214626Y-85509917D01*
X181214626Y-85509917D02*
X181262245Y-85605155D01*
X181262245Y-85605155D02*
X181309864Y-85652775D01*
X181309864Y-85652775D02*
X181405102Y-85700394D01*
X181405102Y-85700394D02*
X181595578Y-85700394D01*
X181595578Y-85700394D02*
X181690816Y-85652775D01*
X181690816Y-85652775D02*
X181738435Y-85605155D01*
X181738435Y-85605155D02*
X181786054Y-85509917D01*
X181786054Y-85509917D02*
X181786054Y-85271822D01*
X181786054Y-85271822D02*
X181738435Y-85176584D01*
X181738435Y-85176584D02*
X181690816Y-85128965D01*
X181690816Y-85128965D02*
X181595578Y-85081346D01*
X181595578Y-85081346D02*
X181405102Y-85081346D01*
X181405102Y-85081346D02*
X181309864Y-85128965D01*
X181309864Y-85128965D02*
X181262245Y-85176584D01*
X181262245Y-85176584D02*
X181214626Y-85271822D01*
D12*
%TO.C,J10*%
X103708525Y-68443475D02*
X103708525Y-60763475D01*
X106368525Y-60763475D02*
X103708525Y-60763475D01*
X106368525Y-68443475D02*
X103708525Y-68443475D01*
X106368525Y-68443475D02*
X106368525Y-60763475D01*
X106368525Y-69713475D02*
X106368525Y-71043475D01*
X106368525Y-71043475D02*
X105038525Y-71043475D01*
%TO.C,J7*%
X146383375Y-94383700D02*
X147653375Y-94383700D01*
X146383375Y-95653700D02*
X146383375Y-94383700D01*
X148696304Y-97813700D02*
X149093375Y-97813700D01*
X148696304Y-98573700D02*
X149093375Y-98573700D01*
X148696304Y-100353700D02*
X149093375Y-100353700D01*
X148696304Y-101113700D02*
X149093375Y-101113700D01*
X148696304Y-102893700D02*
X149093375Y-102893700D01*
X148696304Y-103653700D02*
X149093375Y-103653700D01*
X148763375Y-95273700D02*
X149093375Y-95273700D01*
X148763375Y-96033700D02*
X149093375Y-96033700D01*
X149093375Y-94323700D02*
X149093375Y-104603700D01*
X149093375Y-96923700D02*
X151753375Y-96923700D01*
X149093375Y-99463700D02*
X151753375Y-99463700D01*
X149093375Y-102003700D02*
X151753375Y-102003700D01*
X149093375Y-104603700D02*
X151753375Y-104603700D01*
X151753375Y-94323700D02*
X149093375Y-94323700D01*
X151753375Y-95273700D02*
X157753375Y-95273700D01*
X151753375Y-95333700D02*
X157753375Y-95333700D01*
X151753375Y-95453700D02*
X157753375Y-95453700D01*
X151753375Y-95573700D02*
X157753375Y-95573700D01*
X151753375Y-95693700D02*
X157753375Y-95693700D01*
X151753375Y-95813700D02*
X157753375Y-95813700D01*
X151753375Y-95933700D02*
X157753375Y-95933700D01*
X151753375Y-97813700D02*
X157753375Y-97813700D01*
X151753375Y-100353700D02*
X157753375Y-100353700D01*
X151753375Y-102893700D02*
X157753375Y-102893700D01*
X151753375Y-104603700D02*
X151753375Y-94323700D01*
X157753375Y-95273700D02*
X157753375Y-96033700D01*
X157753375Y-96033700D02*
X151753375Y-96033700D01*
X157753375Y-97813700D02*
X157753375Y-98573700D01*
X157753375Y-98573700D02*
X151753375Y-98573700D01*
X157753375Y-100353700D02*
X157753375Y-101113700D01*
X157753375Y-101113700D02*
X151753375Y-101113700D01*
X157753375Y-102893700D02*
X157753375Y-103653700D01*
X157753375Y-103653700D02*
X151753375Y-103653700D01*
%TO.C,PU5*%
X119968911Y-90622450D02*
X120423039Y-90622450D01*
X119968911Y-92092450D02*
X120423039Y-92092450D01*
%TO.C,C4*%
X146924725Y-73801973D02*
X146924725Y-74324477D01*
X148394725Y-73801973D02*
X148394725Y-74324477D01*
%TO.C,C1*%
X183482138Y-91819250D02*
X183482138Y-91251250D01*
X183522138Y-92053250D02*
X183522138Y-91017250D01*
X183562138Y-92212250D02*
X183562138Y-90858250D01*
X183602138Y-92340250D02*
X183602138Y-90730250D01*
X183642138Y-92450250D02*
X183642138Y-90620250D01*
X183682138Y-92546250D02*
X183682138Y-90524250D01*
X183722138Y-92633250D02*
X183722138Y-90437250D01*
X183762138Y-92713250D02*
X183762138Y-90357250D01*
X183802138Y-90495250D02*
X183802138Y-90284250D01*
X183802138Y-92786250D02*
X183802138Y-92575250D01*
X183842138Y-90495250D02*
X183842138Y-90216250D01*
X183842138Y-92854250D02*
X183842138Y-92575250D01*
X183882138Y-90495250D02*
X183882138Y-90152250D01*
X183882138Y-92918250D02*
X183882138Y-92575250D01*
X183922138Y-90495250D02*
X183922138Y-90092250D01*
X183922138Y-92978250D02*
X183922138Y-92575250D01*
X183962138Y-90495250D02*
X183962138Y-90035250D01*
X183962138Y-93035250D02*
X183962138Y-92575250D01*
X184002138Y-90495250D02*
X184002138Y-89981250D01*
X184002138Y-93089250D02*
X184002138Y-92575250D01*
X184042138Y-90495250D02*
X184042138Y-89930250D01*
X184042138Y-93140250D02*
X184042138Y-92575250D01*
X184082138Y-90495250D02*
X184082138Y-89882250D01*
X184082138Y-93188250D02*
X184082138Y-92575250D01*
X184122138Y-90495250D02*
X184122138Y-89836250D01*
X184122138Y-93234250D02*
X184122138Y-92575250D01*
X184162138Y-90495250D02*
X184162138Y-89792250D01*
X184162138Y-93278250D02*
X184162138Y-92575250D01*
X184202138Y-90495250D02*
X184202138Y-89750250D01*
X184202138Y-93320250D02*
X184202138Y-92575250D01*
X184242138Y-90495250D02*
X184242138Y-89709250D01*
X184242138Y-93361250D02*
X184242138Y-92575250D01*
X184282138Y-90495250D02*
X184282138Y-89671250D01*
X184282138Y-93399250D02*
X184282138Y-92575250D01*
X184322138Y-90495250D02*
X184322138Y-89634250D01*
X184322138Y-93436250D02*
X184322138Y-92575250D01*
X184362138Y-90495250D02*
X184362138Y-89598250D01*
X184362138Y-93472250D02*
X184362138Y-92575250D01*
X184402138Y-90495250D02*
X184402138Y-89564250D01*
X184402138Y-93506250D02*
X184402138Y-92575250D01*
X184442138Y-90495250D02*
X184442138Y-89531250D01*
X184442138Y-93539250D02*
X184442138Y-92575250D01*
X184482138Y-90495250D02*
X184482138Y-89500250D01*
X184482138Y-93570250D02*
X184482138Y-92575250D01*
X184522138Y-90495250D02*
X184522138Y-89470250D01*
X184522138Y-93600250D02*
X184522138Y-92575250D01*
X184562138Y-90495250D02*
X184562138Y-89440250D01*
X184562138Y-93630250D02*
X184562138Y-92575250D01*
X184602138Y-90495250D02*
X184602138Y-89413250D01*
X184602138Y-93657250D02*
X184602138Y-92575250D01*
X184642138Y-90495250D02*
X184642138Y-89386250D01*
X184642138Y-93684250D02*
X184642138Y-92575250D01*
X184682138Y-90495250D02*
X184682138Y-89360250D01*
X184682138Y-93710250D02*
X184682138Y-92575250D01*
X184722138Y-90495250D02*
X184722138Y-89335250D01*
X184722138Y-93735250D02*
X184722138Y-92575250D01*
X184762138Y-90495250D02*
X184762138Y-89311250D01*
X184762138Y-93759250D02*
X184762138Y-92575250D01*
X184802138Y-90495250D02*
X184802138Y-89288250D01*
X184802138Y-93782250D02*
X184802138Y-92575250D01*
X184842138Y-90495250D02*
X184842138Y-89267250D01*
X184842138Y-93803250D02*
X184842138Y-92575250D01*
X184882138Y-90495250D02*
X184882138Y-89245250D01*
X184882138Y-93825250D02*
X184882138Y-92575250D01*
X184922138Y-90495250D02*
X184922138Y-89225250D01*
X184922138Y-93845250D02*
X184922138Y-92575250D01*
X184962138Y-90495250D02*
X184962138Y-89206250D01*
X184962138Y-93864250D02*
X184962138Y-92575250D01*
X185002138Y-90495250D02*
X185002138Y-89187250D01*
X185002138Y-93883250D02*
X185002138Y-92575250D01*
X185042138Y-90495250D02*
X185042138Y-89170250D01*
X185042138Y-93900250D02*
X185042138Y-92575250D01*
X185082138Y-90495250D02*
X185082138Y-89153250D01*
X185082138Y-93917250D02*
X185082138Y-92575250D01*
X185122138Y-90495250D02*
X185122138Y-89137250D01*
X185122138Y-93933250D02*
X185122138Y-92575250D01*
X185162138Y-90495250D02*
X185162138Y-89121250D01*
X185162138Y-93949250D02*
X185162138Y-92575250D01*
X185202138Y-90495250D02*
X185202138Y-89107250D01*
X185202138Y-93963250D02*
X185202138Y-92575250D01*
X185242138Y-90495250D02*
X185242138Y-89093250D01*
X185242138Y-93977250D02*
X185242138Y-92575250D01*
X185282138Y-90495250D02*
X185282138Y-89080250D01*
X185282138Y-93990250D02*
X185282138Y-92575250D01*
X185322138Y-90495250D02*
X185322138Y-89067250D01*
X185322138Y-94003250D02*
X185322138Y-92575250D01*
X185362138Y-90495250D02*
X185362138Y-89055250D01*
X185362138Y-94015250D02*
X185362138Y-92575250D01*
X185403138Y-90495250D02*
X185403138Y-89044250D01*
X185403138Y-94026250D02*
X185403138Y-92575250D01*
X185443138Y-90495250D02*
X185443138Y-89034250D01*
X185443138Y-94036250D02*
X185443138Y-92575250D01*
X185483138Y-90495250D02*
X185483138Y-89024250D01*
X185483138Y-94046250D02*
X185483138Y-92575250D01*
X185523138Y-90495250D02*
X185523138Y-89015250D01*
X185523138Y-94055250D02*
X185523138Y-92575250D01*
X185563138Y-90495250D02*
X185563138Y-89007250D01*
X185563138Y-94063250D02*
X185563138Y-92575250D01*
X185603138Y-90495250D02*
X185603138Y-88999250D01*
X185603138Y-94071250D02*
X185603138Y-92575250D01*
X185643138Y-90495250D02*
X185643138Y-88992250D01*
X185643138Y-94078250D02*
X185643138Y-92575250D01*
X185683138Y-90495250D02*
X185683138Y-88985250D01*
X185683138Y-94085250D02*
X185683138Y-92575250D01*
X185723138Y-90495250D02*
X185723138Y-88979250D01*
X185723138Y-94091250D02*
X185723138Y-92575250D01*
X185763138Y-90495250D02*
X185763138Y-88974250D01*
X185763138Y-94096250D02*
X185763138Y-92575250D01*
X185803138Y-90495250D02*
X185803138Y-88970250D01*
X185803138Y-94100250D02*
X185803138Y-92575250D01*
X185843138Y-90495250D02*
X185843138Y-88966250D01*
X185843138Y-94104250D02*
X185843138Y-92575250D01*
X185883138Y-94108250D02*
X185883138Y-88962250D01*
X185923138Y-94111250D02*
X185923138Y-88959250D01*
X185963138Y-94113250D02*
X185963138Y-88957250D01*
X186003138Y-94114250D02*
X186003138Y-88956250D01*
X186043138Y-94115250D02*
X186043138Y-88955250D01*
X186083138Y-94115250D02*
X186083138Y-88955250D01*
X188637913Y-93260250D02*
X188637913Y-92760250D01*
X188887913Y-93010250D02*
X188387913Y-93010250D01*
X188703138Y-91535250D02*
G75*
G02*
X183463138Y-91535250I-2620000J0D01*
G01*
X183463138Y-91535250D02*
G75*
G02*
X188703138Y-91535250I2620000J0D01*
G01*
D13*
%TO.C,S4*%
X198485625Y-64783600D02*
X198485625Y-64783600D01*
X198485625Y-64783600D02*
X198485625Y-70983600D01*
X198485625Y-70983600D02*
X198485625Y-64783600D01*
X198485625Y-70983600D02*
X198485625Y-70983600D01*
D14*
X202285625Y-72233600D02*
X202285625Y-72233600D01*
X202385625Y-72233600D02*
X202385625Y-72233600D01*
X202385625Y-72233600D02*
X202385625Y-72233600D01*
D13*
X203785625Y-70983600D02*
X203785625Y-70983600D01*
X203785625Y-70983600D02*
X205035625Y-70983600D01*
X204035625Y-64783600D02*
X204035625Y-64783600D01*
X204035625Y-64783600D02*
X205035625Y-64783600D01*
X205035625Y-64783600D02*
X204035625Y-64783600D01*
X205035625Y-64783600D02*
X205035625Y-64783600D01*
X205035625Y-64783600D02*
X205035625Y-64783600D01*
X205035625Y-64783600D02*
X205035625Y-70983600D01*
X205035625Y-66383600D02*
X210835625Y-66383600D01*
X205035625Y-69383600D02*
X205035625Y-66383600D01*
X205035625Y-70983600D02*
X203785625Y-70983600D01*
X205035625Y-70983600D02*
X205035625Y-64783600D01*
X205035625Y-70983600D02*
X205035625Y-70983600D01*
X205035625Y-70983600D02*
X205035625Y-70983600D01*
X210835625Y-66383600D02*
X210835625Y-69383600D01*
X210835625Y-69383600D02*
X205035625Y-69383600D01*
D14*
X202285625Y-72233600D02*
G75*
G02*
X202385625Y-72233600I50000J0D01*
G01*
X202285625Y-72233600D02*
G75*
G02*
X202385625Y-72233600I50000J0D01*
G01*
X202385625Y-72233600D02*
G75*
G02*
X202285625Y-72233600I-50000J0D01*
G01*
%TO.C,Q5*%
X132226125Y-96990875D02*
X133426125Y-96990875D01*
X132226125Y-99890875D02*
X132226125Y-96990875D01*
X133426125Y-96990875D02*
X133426125Y-99890875D01*
X133426125Y-99890875D02*
X132226125Y-99890875D01*
X134676125Y-99940875D02*
X133776125Y-99940875D01*
D12*
%TO.C,RN4*%
X138110861Y-102906525D02*
X138564989Y-102906525D01*
X138110861Y-104376525D02*
X138564989Y-104376525D01*
D14*
%TO.C,Q6*%
X132226125Y-93361850D02*
X133426125Y-93361850D01*
X132226125Y-96261850D02*
X132226125Y-93361850D01*
X133426125Y-93361850D02*
X133426125Y-96261850D01*
X133426125Y-96261850D02*
X132226125Y-96261850D01*
X134676125Y-96311850D02*
X133776125Y-96311850D01*
D12*
%TO.C,L5*%
X189635250Y-72148550D02*
X189635250Y-75008550D01*
X189635250Y-75008550D02*
X191555250Y-75008550D01*
X191555250Y-75008550D02*
X191555250Y-72148550D01*
%TO.C,C20*%
X142337523Y-78144700D02*
X142860027Y-78144700D01*
X142337523Y-79614700D02*
X142860027Y-79614700D01*
%TO.C,C17*%
X135453913Y-68448075D02*
X135453913Y-67880075D01*
X135493913Y-68682075D02*
X135493913Y-67646075D01*
X135533913Y-68841075D02*
X135533913Y-67487075D01*
X135573913Y-68969075D02*
X135573913Y-67359075D01*
X135613913Y-69079075D02*
X135613913Y-67249075D01*
X135653913Y-69175075D02*
X135653913Y-67153075D01*
X135693913Y-69262075D02*
X135693913Y-67066075D01*
X135733913Y-69342075D02*
X135733913Y-66986075D01*
X135773913Y-67124075D02*
X135773913Y-66913075D01*
X135773913Y-69415075D02*
X135773913Y-69204075D01*
X135813913Y-67124075D02*
X135813913Y-66845075D01*
X135813913Y-69483075D02*
X135813913Y-69204075D01*
X135853913Y-67124075D02*
X135853913Y-66781075D01*
X135853913Y-69547075D02*
X135853913Y-69204075D01*
X135893913Y-67124075D02*
X135893913Y-66721075D01*
X135893913Y-69607075D02*
X135893913Y-69204075D01*
X135933913Y-67124075D02*
X135933913Y-66664075D01*
X135933913Y-69664075D02*
X135933913Y-69204075D01*
X135973913Y-67124075D02*
X135973913Y-66610075D01*
X135973913Y-69718075D02*
X135973913Y-69204075D01*
X136013913Y-67124075D02*
X136013913Y-66559075D01*
X136013913Y-69769075D02*
X136013913Y-69204075D01*
X136053913Y-67124075D02*
X136053913Y-66511075D01*
X136053913Y-69817075D02*
X136053913Y-69204075D01*
X136093913Y-67124075D02*
X136093913Y-66465075D01*
X136093913Y-69863075D02*
X136093913Y-69204075D01*
X136133913Y-67124075D02*
X136133913Y-66421075D01*
X136133913Y-69907075D02*
X136133913Y-69204075D01*
X136173913Y-67124075D02*
X136173913Y-66379075D01*
X136173913Y-69949075D02*
X136173913Y-69204075D01*
X136213913Y-67124075D02*
X136213913Y-66338075D01*
X136213913Y-69990075D02*
X136213913Y-69204075D01*
X136253913Y-67124075D02*
X136253913Y-66300075D01*
X136253913Y-70028075D02*
X136253913Y-69204075D01*
X136293913Y-67124075D02*
X136293913Y-66263075D01*
X136293913Y-70065075D02*
X136293913Y-69204075D01*
X136333913Y-67124075D02*
X136333913Y-66227075D01*
X136333913Y-70101075D02*
X136333913Y-69204075D01*
X136373913Y-67124075D02*
X136373913Y-66193075D01*
X136373913Y-70135075D02*
X136373913Y-69204075D01*
X136413913Y-67124075D02*
X136413913Y-66160075D01*
X136413913Y-70168075D02*
X136413913Y-69204075D01*
X136453913Y-67124075D02*
X136453913Y-66129075D01*
X136453913Y-70199075D02*
X136453913Y-69204075D01*
X136493913Y-67124075D02*
X136493913Y-66099075D01*
X136493913Y-70229075D02*
X136493913Y-69204075D01*
X136533913Y-67124075D02*
X136533913Y-66069075D01*
X136533913Y-70259075D02*
X136533913Y-69204075D01*
X136573913Y-67124075D02*
X136573913Y-66042075D01*
X136573913Y-70286075D02*
X136573913Y-69204075D01*
X136613913Y-67124075D02*
X136613913Y-66015075D01*
X136613913Y-70313075D02*
X136613913Y-69204075D01*
X136653913Y-67124075D02*
X136653913Y-65989075D01*
X136653913Y-70339075D02*
X136653913Y-69204075D01*
X136693913Y-67124075D02*
X136693913Y-65964075D01*
X136693913Y-70364075D02*
X136693913Y-69204075D01*
X136733913Y-67124075D02*
X136733913Y-65940075D01*
X136733913Y-70388075D02*
X136733913Y-69204075D01*
X136773913Y-67124075D02*
X136773913Y-65917075D01*
X136773913Y-70411075D02*
X136773913Y-69204075D01*
X136813913Y-67124075D02*
X136813913Y-65896075D01*
X136813913Y-70432075D02*
X136813913Y-69204075D01*
X136853913Y-67124075D02*
X136853913Y-65874075D01*
X136853913Y-70454075D02*
X136853913Y-69204075D01*
X136893913Y-67124075D02*
X136893913Y-65854075D01*
X136893913Y-70474075D02*
X136893913Y-69204075D01*
X136933913Y-67124075D02*
X136933913Y-65835075D01*
X136933913Y-70493075D02*
X136933913Y-69204075D01*
X136973913Y-67124075D02*
X136973913Y-65816075D01*
X136973913Y-70512075D02*
X136973913Y-69204075D01*
X137013913Y-67124075D02*
X137013913Y-65799075D01*
X137013913Y-70529075D02*
X137013913Y-69204075D01*
X137053913Y-67124075D02*
X137053913Y-65782075D01*
X137053913Y-70546075D02*
X137053913Y-69204075D01*
X137093913Y-67124075D02*
X137093913Y-65766075D01*
X137093913Y-70562075D02*
X137093913Y-69204075D01*
X137133913Y-67124075D02*
X137133913Y-65750075D01*
X137133913Y-70578075D02*
X137133913Y-69204075D01*
X137173913Y-67124075D02*
X137173913Y-65736075D01*
X137173913Y-70592075D02*
X137173913Y-69204075D01*
X137213913Y-67124075D02*
X137213913Y-65722075D01*
X137213913Y-70606075D02*
X137213913Y-69204075D01*
X137253913Y-67124075D02*
X137253913Y-65709075D01*
X137253913Y-70619075D02*
X137253913Y-69204075D01*
X137293913Y-67124075D02*
X137293913Y-65696075D01*
X137293913Y-70632075D02*
X137293913Y-69204075D01*
X137333913Y-67124075D02*
X137333913Y-65684075D01*
X137333913Y-70644075D02*
X137333913Y-69204075D01*
X137374913Y-67124075D02*
X137374913Y-65673075D01*
X137374913Y-70655075D02*
X137374913Y-69204075D01*
X137414913Y-67124075D02*
X137414913Y-65663075D01*
X137414913Y-70665075D02*
X137414913Y-69204075D01*
X137454913Y-67124075D02*
X137454913Y-65653075D01*
X137454913Y-70675075D02*
X137454913Y-69204075D01*
X137494913Y-67124075D02*
X137494913Y-65644075D01*
X137494913Y-70684075D02*
X137494913Y-69204075D01*
X137534913Y-67124075D02*
X137534913Y-65636075D01*
X137534913Y-70692075D02*
X137534913Y-69204075D01*
X137574913Y-67124075D02*
X137574913Y-65628075D01*
X137574913Y-70700075D02*
X137574913Y-69204075D01*
X137614913Y-67124075D02*
X137614913Y-65621075D01*
X137614913Y-70707075D02*
X137614913Y-69204075D01*
X137654913Y-67124075D02*
X137654913Y-65614075D01*
X137654913Y-70714075D02*
X137654913Y-69204075D01*
X137694913Y-67124075D02*
X137694913Y-65608075D01*
X137694913Y-70720075D02*
X137694913Y-69204075D01*
X137734913Y-67124075D02*
X137734913Y-65603075D01*
X137734913Y-70725075D02*
X137734913Y-69204075D01*
X137774913Y-67124075D02*
X137774913Y-65599075D01*
X137774913Y-70729075D02*
X137774913Y-69204075D01*
X137814913Y-67124075D02*
X137814913Y-65595075D01*
X137814913Y-70733075D02*
X137814913Y-69204075D01*
X137854913Y-70737075D02*
X137854913Y-65591075D01*
X137894913Y-70740075D02*
X137894913Y-65588075D01*
X137934913Y-70742075D02*
X137934913Y-65586075D01*
X137974913Y-70743075D02*
X137974913Y-65585075D01*
X138014913Y-70744075D02*
X138014913Y-65584075D01*
X138054913Y-70744075D02*
X138054913Y-65584075D01*
X140609688Y-69889075D02*
X140609688Y-69389075D01*
X140859688Y-69639075D02*
X140359688Y-69639075D01*
X140674913Y-68164075D02*
G75*
G02*
X135434913Y-68164075I-2620000J0D01*
G01*
X135434913Y-68164075D02*
G75*
G02*
X140674913Y-68164075I2620000J0D01*
G01*
%TO.C,J1*%
X146730000Y-56230000D02*
X148000000Y-56230000D01*
X146730000Y-57500000D02*
X146730000Y-56230000D01*
X149042929Y-59660000D02*
X149497071Y-59660000D01*
X149042929Y-60420000D02*
X149497071Y-60420000D01*
X149110000Y-57120000D02*
X149497071Y-57120000D01*
X149110000Y-57880000D02*
X149497071Y-57880000D01*
X151582929Y-57120000D02*
X151980000Y-57120000D01*
X151582929Y-57880000D02*
X151980000Y-57880000D01*
X151582929Y-59660000D02*
X151980000Y-59660000D01*
X151582929Y-60420000D02*
X151980000Y-60420000D01*
X151980000Y-56170000D02*
X151980000Y-61370000D01*
X151980000Y-58770000D02*
X154640000Y-58770000D01*
X151980000Y-61370000D02*
X154640000Y-61370000D01*
X154640000Y-56170000D02*
X151980000Y-56170000D01*
X154640000Y-57120000D02*
X160640000Y-57120000D01*
X154640000Y-57180000D02*
X160640000Y-57180000D01*
X154640000Y-57300000D02*
X160640000Y-57300000D01*
X154640000Y-57420000D02*
X160640000Y-57420000D01*
X154640000Y-57540000D02*
X160640000Y-57540000D01*
X154640000Y-57660000D02*
X160640000Y-57660000D01*
X154640000Y-57780000D02*
X160640000Y-57780000D01*
X154640000Y-59660000D02*
X160640000Y-59660000D01*
X154640000Y-61370000D02*
X154640000Y-56170000D01*
X160640000Y-57120000D02*
X160640000Y-57880000D01*
X160640000Y-57880000D02*
X154640000Y-57880000D01*
X160640000Y-59660000D02*
X160640000Y-60420000D01*
X160640000Y-60420000D02*
X154640000Y-60420000D01*
%TO.C,PU12*%
X119829211Y-102662050D02*
X120283339Y-102662050D01*
X119829211Y-104132050D02*
X120283339Y-104132050D01*
%TO.C,C6*%
X159942173Y-63838150D02*
X160464677Y-63838150D01*
X159942173Y-65308150D02*
X160464677Y-65308150D01*
D13*
%TO.C,S3*%
X198345925Y-57565800D02*
X198345925Y-57565800D01*
X198345925Y-57565800D02*
X198345925Y-63765800D01*
X198345925Y-63765800D02*
X198345925Y-57565800D01*
X198345925Y-63765800D02*
X198345925Y-63765800D01*
D14*
X202145925Y-65015800D02*
X202145925Y-65015800D01*
X202245925Y-65015800D02*
X202245925Y-65015800D01*
X202245925Y-65015800D02*
X202245925Y-65015800D01*
D13*
X203645925Y-63765800D02*
X203645925Y-63765800D01*
X203645925Y-63765800D02*
X204895925Y-63765800D01*
X203895925Y-57565800D02*
X203895925Y-57565800D01*
X203895925Y-57565800D02*
X204895925Y-57565800D01*
X204895925Y-57565800D02*
X203895925Y-57565800D01*
X204895925Y-57565800D02*
X204895925Y-57565800D01*
X204895925Y-57565800D02*
X204895925Y-57565800D01*
X204895925Y-57565800D02*
X204895925Y-63765800D01*
X204895925Y-59165800D02*
X210695925Y-59165800D01*
X204895925Y-62165800D02*
X204895925Y-59165800D01*
X204895925Y-63765800D02*
X203645925Y-63765800D01*
X204895925Y-63765800D02*
X204895925Y-57565800D01*
X204895925Y-63765800D02*
X204895925Y-63765800D01*
X204895925Y-63765800D02*
X204895925Y-63765800D01*
X210695925Y-59165800D02*
X210695925Y-62165800D01*
X210695925Y-62165800D02*
X204895925Y-62165800D01*
D14*
X202145925Y-65015800D02*
G75*
G02*
X202245925Y-65015800I50000J0D01*
G01*
X202145925Y-65015800D02*
G75*
G02*
X202245925Y-65015800I50000J0D01*
G01*
X202245925Y-65015800D02*
G75*
G02*
X202145925Y-65015800I-50000J0D01*
G01*
D12*
%TO.C,PU13*%
X125271161Y-102696975D02*
X125725289Y-102696975D01*
X125271161Y-104166975D02*
X125725289Y-104166975D01*
%TO.C,PU2*%
X119937161Y-77697025D02*
X120391289Y-77697025D01*
X119937161Y-79167025D02*
X120391289Y-79167025D01*
%TO.C,PU11*%
X119899061Y-99731525D02*
X120353189Y-99731525D01*
X119899061Y-101201525D02*
X120353189Y-101201525D01*
D14*
%TO.C,Q3*%
X127523775Y-84097200D02*
X128723775Y-84097200D01*
X127523775Y-86997200D02*
X127523775Y-84097200D01*
X128723775Y-84097200D02*
X128723775Y-86997200D01*
X128723775Y-86997200D02*
X127523775Y-86997200D01*
X129973775Y-87047200D02*
X129073775Y-87047200D01*
D12*
%TO.C,JD1*%
X89468000Y-61545200D02*
X95468000Y-61545200D01*
X89468000Y-62305200D02*
X89468000Y-61545200D01*
X89468000Y-64085200D02*
X95468000Y-64085200D01*
X89468000Y-64845200D02*
X89468000Y-64085200D01*
X95468000Y-60595200D02*
X95468000Y-65795200D01*
X95468000Y-62305200D02*
X89468000Y-62305200D01*
X95468000Y-64185200D02*
X89468000Y-64185200D01*
X95468000Y-64305200D02*
X89468000Y-64305200D01*
X95468000Y-64425200D02*
X89468000Y-64425200D01*
X95468000Y-64545200D02*
X89468000Y-64545200D01*
X95468000Y-64665200D02*
X89468000Y-64665200D01*
X95468000Y-64785200D02*
X89468000Y-64785200D01*
X95468000Y-64845200D02*
X89468000Y-64845200D01*
X95468000Y-65795200D02*
X98128000Y-65795200D01*
X98128000Y-60595200D02*
X95468000Y-60595200D01*
X98128000Y-63195200D02*
X95468000Y-63195200D01*
X98128000Y-65795200D02*
X98128000Y-60595200D01*
X98458000Y-64085200D02*
X98128000Y-64085200D01*
X98458000Y-64845200D02*
X98128000Y-64845200D01*
X98525071Y-61545200D02*
X98128000Y-61545200D01*
X98525071Y-62305200D02*
X98128000Y-62305200D01*
X100838000Y-64465200D02*
X100838000Y-65735200D01*
X100838000Y-65735200D02*
X99568000Y-65735200D01*
%TO.C,PU9*%
X119899061Y-96591450D02*
X120353189Y-96591450D01*
X119899061Y-98061450D02*
X120353189Y-98061450D01*
D14*
%TO.C,Q4*%
X132261050Y-100759600D02*
X133461050Y-100759600D01*
X132261050Y-103659600D02*
X132261050Y-100759600D01*
X133461050Y-100759600D02*
X133461050Y-103659600D01*
X133461050Y-103659600D02*
X132261050Y-103659600D01*
X134711050Y-103709600D02*
X133811050Y-103709600D01*
D12*
%TO.C,RN2*%
X133789686Y-80865675D02*
X134243814Y-80865675D01*
X133789686Y-82335675D02*
X134243814Y-82335675D01*
%TO.C,PU8*%
X125410861Y-96486675D02*
X125864989Y-96486675D01*
X125410861Y-97956675D02*
X125864989Y-97956675D01*
%TO.C,C18*%
X137803623Y-72804350D02*
X138326127Y-72804350D01*
X137803623Y-74274350D02*
X138326127Y-74274350D01*
%TO.C,MO1*%
X89356875Y-66542650D02*
X95356875Y-66542650D01*
X89356875Y-67302650D02*
X89356875Y-66542650D01*
X89356875Y-69082650D02*
X95356875Y-69082650D01*
X89356875Y-69842650D02*
X89356875Y-69082650D01*
X89356875Y-71622650D02*
X95356875Y-71622650D01*
X89356875Y-72382650D02*
X89356875Y-71622650D01*
X95356875Y-65592650D02*
X95356875Y-73332650D01*
X95356875Y-67302650D02*
X89356875Y-67302650D01*
X95356875Y-69842650D02*
X89356875Y-69842650D01*
X95356875Y-71722650D02*
X89356875Y-71722650D01*
X95356875Y-71842650D02*
X89356875Y-71842650D01*
X95356875Y-71962650D02*
X89356875Y-71962650D01*
X95356875Y-72082650D02*
X89356875Y-72082650D01*
X95356875Y-72202650D02*
X89356875Y-72202650D01*
X95356875Y-72322650D02*
X89356875Y-72322650D01*
X95356875Y-72382650D02*
X89356875Y-72382650D01*
X95356875Y-73332650D02*
X98016875Y-73332650D01*
X98016875Y-65592650D02*
X95356875Y-65592650D01*
X98016875Y-68192650D02*
X95356875Y-68192650D01*
X98016875Y-70732650D02*
X95356875Y-70732650D01*
X98016875Y-73332650D02*
X98016875Y-65592650D01*
X98346875Y-71622650D02*
X98016875Y-71622650D01*
X98346875Y-72382650D02*
X98016875Y-72382650D01*
X98413946Y-66542650D02*
X98016875Y-66542650D01*
X98413946Y-67302650D02*
X98016875Y-67302650D01*
X98413946Y-69082650D02*
X98016875Y-69082650D01*
X98413946Y-69842650D02*
X98016875Y-69842650D01*
X100726875Y-72002650D02*
X100726875Y-73272650D01*
X100726875Y-73272650D02*
X99456875Y-73272650D01*
%TO.C,C5*%
X150029875Y-73627348D02*
X150029875Y-74149852D01*
X151499875Y-73627348D02*
X151499875Y-74149852D01*
D14*
%TO.C,U8*%
X170644500Y-87326875D02*
X172294500Y-87326875D01*
X172644500Y-87293875D02*
X177494500Y-87293875D01*
X172644500Y-92569875D02*
X172644500Y-87293875D01*
X177494500Y-87293875D02*
X177494500Y-92569875D01*
X177494500Y-92569875D02*
X172644500Y-92569875D01*
D12*
%TO.C,J3*%
X106334250Y-58137750D02*
X107664250Y-58137750D01*
X106334250Y-59467750D02*
X106334250Y-58137750D01*
X106334250Y-60737750D02*
X106334250Y-65877750D01*
X106334250Y-60737750D02*
X108994250Y-60737750D01*
X106334250Y-65877750D02*
X108994250Y-65877750D01*
X108994250Y-60737750D02*
X108994250Y-65877750D01*
%TO.C,J2*%
X170217775Y-64926575D02*
X176217775Y-64926575D01*
X170217775Y-65686575D02*
X170217775Y-64926575D01*
X170217775Y-67466575D02*
X176217775Y-67466575D01*
X170217775Y-68226575D02*
X170217775Y-67466575D01*
X176217775Y-63976575D02*
X176217775Y-69176575D01*
X176217775Y-65686575D02*
X170217775Y-65686575D01*
X176217775Y-67566575D02*
X170217775Y-67566575D01*
X176217775Y-67686575D02*
X170217775Y-67686575D01*
X176217775Y-67806575D02*
X170217775Y-67806575D01*
X176217775Y-67926575D02*
X170217775Y-67926575D01*
X176217775Y-68046575D02*
X170217775Y-68046575D01*
X176217775Y-68166575D02*
X170217775Y-68166575D01*
X176217775Y-68226575D02*
X170217775Y-68226575D01*
X176217775Y-69176575D02*
X178877775Y-69176575D01*
X178877775Y-63976575D02*
X176217775Y-63976575D01*
X178877775Y-66576575D02*
X176217775Y-66576575D01*
X178877775Y-69176575D02*
X178877775Y-63976575D01*
X179274846Y-64926575D02*
X178877775Y-64926575D01*
X179274846Y-65686575D02*
X178877775Y-65686575D01*
X179274846Y-67466575D02*
X178877775Y-67466575D01*
X179274846Y-68226575D02*
X178877775Y-68226575D01*
X181747775Y-67466575D02*
X181360704Y-67466575D01*
X181747775Y-68226575D02*
X181360704Y-68226575D01*
X181814846Y-64926575D02*
X181360704Y-64926575D01*
X181814846Y-65686575D02*
X181360704Y-65686575D01*
X184127775Y-67846575D02*
X184127775Y-69116575D01*
X184127775Y-69116575D02*
X182857775Y-69116575D01*
%TO.C,RN1*%
X133707011Y-77970075D02*
X134161139Y-77970075D01*
X133707011Y-79440075D02*
X134161139Y-79440075D01*
%TO.C,P3*%
X194106525Y-89356650D02*
X194106525Y-87556650D01*
X194326525Y-78296650D02*
X197656525Y-78296650D01*
X194326525Y-91616650D02*
X194326525Y-78296650D01*
X194326525Y-91616650D02*
X197656525Y-91616650D01*
X201176525Y-78296650D02*
X209286525Y-78296650D01*
X209286525Y-77646650D02*
X209286525Y-78296650D01*
X209286525Y-91616650D02*
X201176525Y-91616650D01*
X209286525Y-91616650D02*
X209286525Y-92266650D01*
X209286525Y-92266650D02*
X209806525Y-92266650D01*
X209806525Y-77646650D02*
X209286525Y-77646650D01*
X209806525Y-92266650D02*
X209806525Y-77646650D01*
D14*
%TO.C,Q2*%
X127552525Y-80642800D02*
X128752525Y-80642800D01*
X127552525Y-83542800D02*
X127552525Y-80642800D01*
X128752525Y-80642800D02*
X128752525Y-83542800D01*
X128752525Y-83542800D02*
X127552525Y-83542800D01*
X130002525Y-83592800D02*
X129102525Y-83592800D01*
%TO.C,DID1*%
X139013300Y-100187600D02*
X137313300Y-100187600D01*
X139723300Y-101437600D02*
X137313300Y-101437600D01*
D12*
%TO.C,RN3*%
X133789686Y-83726350D02*
X134243814Y-83726350D01*
X133789686Y-85196350D02*
X134243814Y-85196350D01*
%TO.C,RN5*%
X138075936Y-97007375D02*
X138530064Y-97007375D01*
X138075936Y-98477375D02*
X138530064Y-98477375D01*
%TO.C,C3*%
X149994950Y-68464798D02*
X149994950Y-68987302D01*
X151464950Y-68464798D02*
X151464950Y-68987302D01*
D14*
%TO.C,U3*%
X161694600Y-73350225D02*
X170994600Y-73350225D01*
X161694600Y-82650225D02*
X161694600Y-73350225D01*
X170994600Y-73350225D02*
X170994600Y-82650225D01*
X170994600Y-82650225D02*
X161694600Y-82650225D01*
D15*
X160244600Y-73500225D02*
G75*
G02*
X159994600Y-73500225I-125000J0D01*
G01*
X159994600Y-73500225D02*
G75*
G02*
X160244600Y-73500225I125000J0D01*
G01*
D12*
%TO.C,PU1*%
X119902236Y-74903025D02*
X120356364Y-74903025D01*
X119902236Y-76373025D02*
X120356364Y-76373025D01*
%TO.C,JE1*%
X89356875Y-56436625D02*
X95356875Y-56436625D01*
X89356875Y-57196625D02*
X89356875Y-56436625D01*
X89356875Y-58976625D02*
X95356875Y-58976625D01*
X89356875Y-59736625D02*
X89356875Y-58976625D01*
X95356875Y-55486625D02*
X95356875Y-60686625D01*
X95356875Y-57196625D02*
X89356875Y-57196625D01*
X95356875Y-59076625D02*
X89356875Y-59076625D01*
X95356875Y-59196625D02*
X89356875Y-59196625D01*
X95356875Y-59316625D02*
X89356875Y-59316625D01*
X95356875Y-59436625D02*
X89356875Y-59436625D01*
X95356875Y-59556625D02*
X89356875Y-59556625D01*
X95356875Y-59676625D02*
X89356875Y-59676625D01*
X95356875Y-59736625D02*
X89356875Y-59736625D01*
X95356875Y-60686625D02*
X98016875Y-60686625D01*
X98016875Y-55486625D02*
X95356875Y-55486625D01*
X98016875Y-58086625D02*
X95356875Y-58086625D01*
X98016875Y-60686625D02*
X98016875Y-55486625D01*
X98346875Y-58976625D02*
X98016875Y-58976625D01*
X98346875Y-59736625D02*
X98016875Y-59736625D01*
X98413946Y-56436625D02*
X98016875Y-56436625D01*
X98413946Y-57196625D02*
X98016875Y-57196625D01*
X100726875Y-59356625D02*
X100726875Y-60626625D01*
X100726875Y-60626625D02*
X99456875Y-60626625D01*
D16*
%TO.C,P1*%
X96566675Y-77118083D02*
X96566675Y-109118019D01*
X96566675Y-109118019D02*
X97996636Y-109118019D01*
X97996636Y-77118083D02*
X96566675Y-77118083D01*
X99936715Y-109118019D02*
X101866675Y-109118019D01*
X101866675Y-77118083D02*
X99936715Y-77118083D01*
X101866675Y-80098011D02*
X101866675Y-77118083D01*
X101866675Y-109118019D02*
X101866675Y-106138091D01*
X103952675Y-79785083D02*
X102936675Y-80547083D01*
X103952675Y-79785083D02*
X103952675Y-81309083D01*
X103952675Y-81309083D02*
X102936675Y-80547083D01*
D12*
%TO.C,C23*%
X125518875Y-59623148D02*
X125518875Y-60145652D01*
X126988875Y-59623148D02*
X126988875Y-60145652D01*
%TO.C,PU6*%
X125328186Y-93587900D02*
X125782314Y-93587900D01*
X125328186Y-95057900D02*
X125782314Y-95057900D01*
%TO.C,RN6*%
X138006086Y-94181625D02*
X138460214Y-94181625D01*
X138006086Y-95651625D02*
X138460214Y-95651625D01*
%TO.C,R2*%
X188148861Y-85342425D02*
X188602989Y-85342425D01*
X188148861Y-86812425D02*
X188602989Y-86812425D01*
%TO.C,C8*%
X162021152Y-87841150D02*
X161498648Y-87841150D01*
X162021152Y-89311150D02*
X161498648Y-89311150D01*
%TO.C,R10*%
X146854875Y-68394211D02*
X146854875Y-68848339D01*
X148324875Y-68394211D02*
X148324875Y-68848339D01*
%TO.C,Y1*%
X151275175Y-73908450D02*
X151275175Y-67658450D01*
X156325175Y-73908450D02*
X156325175Y-67658450D01*
X151275175Y-67658450D02*
G75*
G02*
X156325175Y-67658450I2525000J0D01*
G01*
X156325175Y-73908450D02*
G75*
G02*
X151275175Y-73908450I-2525000J0D01*
G01*
%TO.C,J4*%
X106277100Y-65686075D02*
X107607100Y-65686075D01*
X106277100Y-67016075D02*
X106277100Y-65686075D01*
X106277100Y-68286075D02*
X106277100Y-70886075D01*
X106277100Y-68286075D02*
X108937100Y-68286075D01*
X106277100Y-70886075D02*
X108937100Y-70886075D01*
X108937100Y-68286075D02*
X108937100Y-70886075D01*
D14*
%TO.C,U4*%
X128472400Y-60452600D02*
X134976400Y-60452600D01*
X128472400Y-63956600D02*
X128472400Y-60452600D01*
X128609400Y-66204600D02*
X128609400Y-64904600D01*
X134976400Y-60452600D02*
X134976400Y-63956600D01*
X134976400Y-63956600D02*
X128472400Y-63956600D01*
D12*
%TO.C,PU10*%
X125375936Y-99661675D02*
X125830064Y-99661675D01*
X125375936Y-101131675D02*
X125830064Y-101131675D01*
%TO.C,RN13*%
X120286514Y-72356675D02*
X119832386Y-72356675D01*
X120286514Y-73826675D02*
X119832386Y-73826675D01*
D14*
%TO.C,Q1*%
X127517600Y-77223325D02*
X128717600Y-77223325D01*
X127517600Y-80123325D02*
X127517600Y-77223325D01*
X128717600Y-77223325D02*
X128717600Y-80123325D01*
X128717600Y-80123325D02*
X127517600Y-80123325D01*
X129967600Y-80173325D02*
X129067600Y-80173325D01*
D12*
%TO.C,L4*%
X192368925Y-72059925D02*
X192368925Y-74919925D01*
X192368925Y-74919925D02*
X194288925Y-74919925D01*
X194288925Y-74919925D02*
X194288925Y-72059925D01*
%TO.C,PU14*%
X120041936Y-82999275D02*
X120496064Y-82999275D01*
X120041936Y-84469275D02*
X120496064Y-84469275D01*
%TO.C,U1*%
X142459075Y-82502850D02*
X140509075Y-82502850D01*
X142459075Y-82502850D02*
X144409075Y-82502850D01*
X142459075Y-91372850D02*
X140509075Y-91372850D01*
X142459075Y-91372850D02*
X144409075Y-91372850D01*
X139759075Y-82567850D02*
X139519075Y-82237850D01*
X139999075Y-82237850D01*
X139759075Y-82567850D01*
G36*
X139759075Y-82567850D02*
G01*
X139519075Y-82237850D01*
X139999075Y-82237850D01*
X139759075Y-82567850D01*
G37*
%TO.C,R1*%
X188190136Y-82596050D02*
X188644264Y-82596050D01*
X188190136Y-84066050D02*
X188644264Y-84066050D01*
%TO.C,R21*%
X187180550Y-72832861D02*
X187180550Y-73286989D01*
X188650550Y-72832861D02*
X188650550Y-73286989D01*
%TO.C,C9*%
X154039900Y-80571073D02*
X154039900Y-81093577D01*
X155509900Y-80571073D02*
X155509900Y-81093577D01*
%TO.C,PU4*%
X125864989Y-90552600D02*
X125410861Y-90552600D01*
X125864989Y-92022600D02*
X125410861Y-92022600D01*
%TO.C,C7*%
X180370175Y-72404973D02*
X180370175Y-72927477D01*
X181840175Y-72404973D02*
X181840175Y-72927477D01*
%TO.C,C19*%
X122166025Y-67511450D02*
X122166025Y-66943450D01*
X122206025Y-67745450D02*
X122206025Y-66709450D01*
X122246025Y-67904450D02*
X122246025Y-66550450D01*
X122286025Y-68032450D02*
X122286025Y-66422450D01*
X122326025Y-68142450D02*
X122326025Y-66312450D01*
X122366025Y-68238450D02*
X122366025Y-66216450D01*
X122406025Y-68325450D02*
X122406025Y-66129450D01*
X122446025Y-68405450D02*
X122446025Y-66049450D01*
X122486025Y-66187450D02*
X122486025Y-65976450D01*
X122486025Y-68478450D02*
X122486025Y-68267450D01*
X122526025Y-66187450D02*
X122526025Y-65908450D01*
X122526025Y-68546450D02*
X122526025Y-68267450D01*
X122566025Y-66187450D02*
X122566025Y-65844450D01*
X122566025Y-68610450D02*
X122566025Y-68267450D01*
X122606025Y-66187450D02*
X122606025Y-65784450D01*
X122606025Y-68670450D02*
X122606025Y-68267450D01*
X122646025Y-66187450D02*
X122646025Y-65727450D01*
X122646025Y-68727450D02*
X122646025Y-68267450D01*
X122686025Y-66187450D02*
X122686025Y-65673450D01*
X122686025Y-68781450D02*
X122686025Y-68267450D01*
X122726025Y-66187450D02*
X122726025Y-65622450D01*
X122726025Y-68832450D02*
X122726025Y-68267450D01*
X122766025Y-66187450D02*
X122766025Y-65574450D01*
X122766025Y-68880450D02*
X122766025Y-68267450D01*
X122806025Y-66187450D02*
X122806025Y-65528450D01*
X122806025Y-68926450D02*
X122806025Y-68267450D01*
X122846025Y-66187450D02*
X122846025Y-65484450D01*
X122846025Y-68970450D02*
X122846025Y-68267450D01*
X122886025Y-66187450D02*
X122886025Y-65442450D01*
X122886025Y-69012450D02*
X122886025Y-68267450D01*
X122926025Y-66187450D02*
X122926025Y-65401450D01*
X122926025Y-69053450D02*
X122926025Y-68267450D01*
X122966025Y-66187450D02*
X122966025Y-65363450D01*
X122966025Y-69091450D02*
X122966025Y-68267450D01*
X123006025Y-66187450D02*
X123006025Y-65326450D01*
X123006025Y-69128450D02*
X123006025Y-68267450D01*
X123046025Y-66187450D02*
X123046025Y-65290450D01*
X123046025Y-69164450D02*
X123046025Y-68267450D01*
X123086025Y-66187450D02*
X123086025Y-65256450D01*
X123086025Y-69198450D02*
X123086025Y-68267450D01*
X123126025Y-66187450D02*
X123126025Y-65223450D01*
X123126025Y-69231450D02*
X123126025Y-68267450D01*
X123166025Y-66187450D02*
X123166025Y-65192450D01*
X123166025Y-69262450D02*
X123166025Y-68267450D01*
X123206025Y-66187450D02*
X123206025Y-65162450D01*
X123206025Y-69292450D02*
X123206025Y-68267450D01*
X123246025Y-66187450D02*
X123246025Y-65132450D01*
X123246025Y-69322450D02*
X123246025Y-68267450D01*
X123286025Y-66187450D02*
X123286025Y-65105450D01*
X123286025Y-69349450D02*
X123286025Y-68267450D01*
X123326025Y-66187450D02*
X123326025Y-65078450D01*
X123326025Y-69376450D02*
X123326025Y-68267450D01*
X123366025Y-66187450D02*
X123366025Y-65052450D01*
X123366025Y-69402450D02*
X123366025Y-68267450D01*
X123406025Y-66187450D02*
X123406025Y-65027450D01*
X123406025Y-69427450D02*
X123406025Y-68267450D01*
X123446025Y-66187450D02*
X123446025Y-65003450D01*
X123446025Y-69451450D02*
X123446025Y-68267450D01*
X123486025Y-66187450D02*
X123486025Y-64980450D01*
X123486025Y-69474450D02*
X123486025Y-68267450D01*
X123526025Y-66187450D02*
X123526025Y-64959450D01*
X123526025Y-69495450D02*
X123526025Y-68267450D01*
X123566025Y-66187450D02*
X123566025Y-64937450D01*
X123566025Y-69517450D02*
X123566025Y-68267450D01*
X123606025Y-66187450D02*
X123606025Y-64917450D01*
X123606025Y-69537450D02*
X123606025Y-68267450D01*
X123646025Y-66187450D02*
X123646025Y-64898450D01*
X123646025Y-69556450D02*
X123646025Y-68267450D01*
X123686025Y-66187450D02*
X123686025Y-64879450D01*
X123686025Y-69575450D02*
X123686025Y-68267450D01*
X123726025Y-66187450D02*
X123726025Y-64862450D01*
X123726025Y-69592450D02*
X123726025Y-68267450D01*
X123766025Y-66187450D02*
X123766025Y-64845450D01*
X123766025Y-69609450D02*
X123766025Y-68267450D01*
X123806025Y-66187450D02*
X123806025Y-64829450D01*
X123806025Y-69625450D02*
X123806025Y-68267450D01*
X123846025Y-66187450D02*
X123846025Y-64813450D01*
X123846025Y-69641450D02*
X123846025Y-68267450D01*
X123886025Y-66187450D02*
X123886025Y-64799450D01*
X123886025Y-69655450D02*
X123886025Y-68267450D01*
X123926025Y-66187450D02*
X123926025Y-64785450D01*
X123926025Y-69669450D02*
X123926025Y-68267450D01*
X123966025Y-66187450D02*
X123966025Y-64772450D01*
X123966025Y-69682450D02*
X123966025Y-68267450D01*
X124006025Y-66187450D02*
X124006025Y-64759450D01*
X124006025Y-69695450D02*
X124006025Y-68267450D01*
X124046025Y-66187450D02*
X124046025Y-64747450D01*
X124046025Y-69707450D02*
X124046025Y-68267450D01*
X124087025Y-66187450D02*
X124087025Y-64736450D01*
X124087025Y-69718450D02*
X124087025Y-68267450D01*
X124127025Y-66187450D02*
X124127025Y-64726450D01*
X124127025Y-69728450D02*
X124127025Y-68267450D01*
X124167025Y-66187450D02*
X124167025Y-64716450D01*
X124167025Y-69738450D02*
X124167025Y-68267450D01*
X124207025Y-66187450D02*
X124207025Y-64707450D01*
X124207025Y-69747450D02*
X124207025Y-68267450D01*
X124247025Y-66187450D02*
X124247025Y-64699450D01*
X124247025Y-69755450D02*
X124247025Y-68267450D01*
X124287025Y-66187450D02*
X124287025Y-64691450D01*
X124287025Y-69763450D02*
X124287025Y-68267450D01*
X124327025Y-66187450D02*
X124327025Y-64684450D01*
X124327025Y-69770450D02*
X124327025Y-68267450D01*
X124367025Y-66187450D02*
X124367025Y-64677450D01*
X124367025Y-69777450D02*
X124367025Y-68267450D01*
X124407025Y-66187450D02*
X124407025Y-64671450D01*
X124407025Y-69783450D02*
X124407025Y-68267450D01*
X124447025Y-66187450D02*
X124447025Y-64666450D01*
X124447025Y-69788450D02*
X124447025Y-68267450D01*
X124487025Y-66187450D02*
X124487025Y-64662450D01*
X124487025Y-69792450D02*
X124487025Y-68267450D01*
X124527025Y-66187450D02*
X124527025Y-64658450D01*
X124527025Y-69796450D02*
X124527025Y-68267450D01*
X124567025Y-69800450D02*
X124567025Y-64654450D01*
X124607025Y-69803450D02*
X124607025Y-64651450D01*
X124647025Y-69805450D02*
X124647025Y-64649450D01*
X124687025Y-69806450D02*
X124687025Y-64648450D01*
X124727025Y-69807450D02*
X124727025Y-64647450D01*
X124767025Y-69807450D02*
X124767025Y-64647450D01*
X127321800Y-68952450D02*
X127321800Y-68452450D01*
X127571800Y-68702450D02*
X127071800Y-68702450D01*
X127387025Y-67227450D02*
G75*
G02*
X122147025Y-67227450I-2620000J0D01*
G01*
X122147025Y-67227450D02*
G75*
G02*
X127387025Y-67227450I2620000J0D01*
G01*
%TO.C,PU3*%
X120041936Y-80243375D02*
X120496064Y-80243375D01*
X120041936Y-81713375D02*
X120496064Y-81713375D01*
%TO.C,PU7*%
X119864136Y-93587900D02*
X120318264Y-93587900D01*
X119864136Y-95057900D02*
X120318264Y-95057900D01*
%TO.C,C16*%
X175922673Y-84450250D02*
X176445177Y-84450250D01*
X175922673Y-85920250D02*
X176445177Y-85920250D01*
%TD*%
M02*
