%TF.GenerationSoftware,KiCad,Pcbnew,9.0.5*%
%TF.CreationDate,2025-10-23T08:30:37+01:00*%
%TF.ProjectId,Gotek,476f7465-6b2e-46b6-9963-61645f706362,rev?*%
%TF.SameCoordinates,Original*%
%TF.FileFunction,Soldermask,Bot*%
%TF.FilePolarity,Negative*%
%FSLAX46Y46*%
G04 Gerber Fmt 4.6, Leading zero omitted, Abs format (unit mm)*
G04 Created by KiCad (PCBNEW 9.0.5) date 2025-10-23 08:30:37*
%MOMM*%
%LPD*%
G01*
G04 APERTURE LIST*
%ADD10C,5.000000*%
%ADD11R,1.700000X1.700000*%
%ADD12O,1.700000X1.700000*%
%ADD13R,1.600000X1.600000*%
%ADD14C,1.600000*%
%ADD15C,1.575000*%
%ADD16C,2.025000*%
%ADD17R,1.500000X1.600000*%
%ADD18C,3.000000*%
%ADD19C,1.500000*%
G04 APERTURE END LIST*
D10*
%TO.C,H1*%
X118491000Y-60642500D03*
%TD*%
%TO.C,H2*%
X139573000Y-60642500D03*
%TD*%
%TO.C,H3*%
X118491000Y-110363000D03*
%TD*%
%TO.C,H4*%
X139573000Y-110363000D03*
%TD*%
%TO.C,H5*%
X189357000Y-60642500D03*
%TD*%
D11*
%TO.C,J10*%
X105038525Y-69713475D03*
D12*
X105038525Y-67173475D03*
X105038525Y-64633475D03*
X105038525Y-62093475D03*
%TD*%
D11*
%TO.C,J7*%
X147653375Y-95653700D03*
D12*
X147653375Y-98193700D03*
X147653375Y-100733700D03*
X147653375Y-103273700D03*
%TD*%
D13*
%TO.C,C1*%
X187333138Y-91535250D03*
D14*
X184833138Y-91535250D03*
%TD*%
D15*
%TO.C,S4*%
X202485625Y-70133600D03*
X202485625Y-65633600D03*
D16*
X199985625Y-71383600D03*
X199985625Y-64383600D03*
%TD*%
D13*
%TO.C,C17*%
X139304913Y-68164075D03*
D14*
X136804913Y-68164075D03*
%TD*%
D11*
%TO.C,J1*%
X148000000Y-57500000D03*
D12*
X150540000Y-57500000D03*
X148000000Y-60040000D03*
X150540000Y-60040000D03*
%TD*%
D15*
%TO.C,S3*%
X202345925Y-62915800D03*
X202345925Y-58415800D03*
D16*
X199845925Y-64165800D03*
X199845925Y-57165800D03*
%TD*%
D11*
%TO.C,JD1*%
X99568000Y-64465200D03*
D12*
X99568000Y-61925200D03*
%TD*%
D11*
%TO.C,MO1*%
X99456875Y-72002650D03*
D12*
X99456875Y-69462650D03*
X99456875Y-66922650D03*
%TD*%
D11*
%TO.C,J3*%
X107664250Y-59467750D03*
D12*
X107664250Y-62007750D03*
X107664250Y-64547750D03*
%TD*%
D11*
%TO.C,J2*%
X182857775Y-67846575D03*
D12*
X180317775Y-67846575D03*
X182857775Y-65306575D03*
X180317775Y-65306575D03*
%TD*%
D17*
%TO.C,P3*%
X196706525Y-88456650D03*
D14*
X196706525Y-85956650D03*
X196706525Y-83956650D03*
X196706525Y-81456650D03*
D18*
X199416525Y-91526650D03*
X199416525Y-78386650D03*
%TD*%
D11*
%TO.C,JE1*%
X99456875Y-59356625D03*
D12*
X99456875Y-56816625D03*
%TD*%
D19*
%TO.C,Y1*%
X153800175Y-73233450D03*
X153800175Y-68333450D03*
%TD*%
D11*
%TO.C,J4*%
X107607100Y-67016075D03*
D12*
X107607100Y-69556075D03*
%TD*%
D13*
%TO.C,C19*%
X126017025Y-67227450D03*
D14*
X123517025Y-67227450D03*
%TD*%
M02*
